<mxfile host="app.diagrams.net" modified="2023-11-02T07:49:48.875Z" agent="Mozilla/5.0 (Macintosh; Intel Mac OS X 10_15_7) AppleWebKit/537.36 (KHTML, like Gecko) Chrome/118.0.0.0 Safari/537.36" etag="sn7mme3mN0Tra2fe_OJV" version="22.0.8" type="device" pages="2">
  <diagram name="ページ1" id="Gp0FOiNVSvTUSCFagttk">
    <mxGraphModel dx="1521" dy="881" grid="0" gridSize="10" guides="1" tooltips="1" connect="1" arrows="1" fold="1" page="1" pageScale="1" pageWidth="827" pageHeight="1169" math="0" shadow="0">
      <root>
        <mxCell id="0" />
        <mxCell id="1" parent="0" />
        <mxCell id="8nDSTVszZVtQRW60rJsY-13" style="edgeStyle=orthogonalEdgeStyle;rounded=0;orthogonalLoop=1;jettySize=auto;html=1;" edge="1" parent="1" source="8nDSTVszZVtQRW60rJsY-10" target="8nDSTVszZVtQRW60rJsY-12">
          <mxGeometry relative="1" as="geometry" />
        </mxCell>
        <mxCell id="8nDSTVszZVtQRW60rJsY-10" value="Amazon SQS" style="sketch=0;outlineConnect=0;fontColor=#232F3E;gradientColor=none;strokeColor=#ffffff;fillColor=#232F3E;dashed=0;verticalLabelPosition=middle;verticalAlign=bottom;align=center;html=1;whiteSpace=wrap;fontSize=10;fontStyle=1;spacing=3;shape=mxgraph.aws4.productIcon;prIcon=mxgraph.aws4.sqs;" vertex="1" parent="1">
          <mxGeometry x="90" y="370" width="80" height="100" as="geometry" />
        </mxCell>
        <mxCell id="8nDSTVszZVtQRW60rJsY-31" style="edgeStyle=orthogonalEdgeStyle;rounded=0;orthogonalLoop=1;jettySize=auto;html=1;" edge="1" parent="1" source="8nDSTVszZVtQRW60rJsY-12" target="8nDSTVszZVtQRW60rJsY-30">
          <mxGeometry relative="1" as="geometry" />
        </mxCell>
        <mxCell id="8nDSTVszZVtQRW60rJsY-12" value="AWS Lambda" style="sketch=0;outlineConnect=0;fontColor=#232F3E;gradientColor=none;strokeColor=#ffffff;fillColor=#232F3E;dashed=0;verticalLabelPosition=middle;verticalAlign=bottom;align=center;html=1;whiteSpace=wrap;fontSize=10;fontStyle=1;spacing=3;shape=mxgraph.aws4.productIcon;prIcon=mxgraph.aws4.lambda;" vertex="1" parent="1">
          <mxGeometry x="213" y="370" width="80" height="100" as="geometry" />
        </mxCell>
        <mxCell id="8nDSTVszZVtQRW60rJsY-26" style="edgeStyle=orthogonalEdgeStyle;rounded=0;orthogonalLoop=1;jettySize=auto;html=1;" edge="1" parent="1" source="8nDSTVszZVtQRW60rJsY-20" target="8nDSTVszZVtQRW60rJsY-25">
          <mxGeometry relative="1" as="geometry" />
        </mxCell>
        <mxCell id="8nDSTVszZVtQRW60rJsY-20" value="Amazon S3" style="sketch=0;outlineConnect=0;fontColor=#232F3E;gradientColor=none;strokeColor=#ffffff;fillColor=#232F3E;dashed=0;verticalLabelPosition=middle;verticalAlign=bottom;align=center;html=1;whiteSpace=wrap;fontSize=10;fontStyle=1;spacing=3;shape=mxgraph.aws4.productIcon;prIcon=mxgraph.aws4.s3;" vertex="1" parent="1">
          <mxGeometry x="690" y="390" width="90" height="110" as="geometry" />
        </mxCell>
        <mxCell id="8nDSTVszZVtQRW60rJsY-65" style="edgeStyle=orthogonalEdgeStyle;rounded=0;orthogonalLoop=1;jettySize=auto;html=1;" edge="1" parent="1" source="8nDSTVszZVtQRW60rJsY-25" target="8nDSTVszZVtQRW60rJsY-43">
          <mxGeometry relative="1" as="geometry" />
        </mxCell>
        <mxCell id="8nDSTVszZVtQRW60rJsY-25" value="AWS Lambda" style="sketch=0;outlineConnect=0;fontColor=#232F3E;gradientColor=none;strokeColor=#ffffff;fillColor=#232F3E;dashed=0;verticalLabelPosition=middle;verticalAlign=bottom;align=center;html=1;whiteSpace=wrap;fontSize=10;fontStyle=1;spacing=3;shape=mxgraph.aws4.productIcon;prIcon=mxgraph.aws4.lambda;" vertex="1" parent="1">
          <mxGeometry x="690" y="550" width="90" height="110" as="geometry" />
        </mxCell>
        <mxCell id="8nDSTVszZVtQRW60rJsY-27" value="&lt;p style=&quot;border-color: var(--border-color); box-sizing: border-box; margin: 16px 0px; color: rgb(20, 23, 26); font-family: &amp;quot;Source Sans Pro&amp;quot;, -apple-system, &amp;quot;system-ui&amp;quot;, &amp;quot;Segoe UI&amp;quot;, Roboto, &amp;quot;Helvetica Neue&amp;quot;, Arial, &amp;quot;Hiragino Kaku Gothic ProN&amp;quot;, &amp;quot;Hiragino Sans&amp;quot;, Meiryo, sans-serif; word-spacing: 1px; background-color: rgb(255, 255, 255); line-height: 12px;&quot;&gt;&lt;font style=&quot;border-color: var(--border-color);&quot;&gt;&lt;u&gt;Lambda関数作成・処理設計・実装&lt;/u&gt;&lt;/font&gt;&lt;/p&gt;&lt;p style=&quot;border-color: var(--border-color); box-sizing: border-box; margin: 16px 0px; color: rgb(20, 23, 26); font-family: &amp;quot;Source Sans Pro&amp;quot;, -apple-system, &amp;quot;system-ui&amp;quot;, &amp;quot;Segoe UI&amp;quot;, Roboto, &amp;quot;Helvetica Neue&amp;quot;, Arial, &amp;quot;Hiragino Kaku Gothic ProN&amp;quot;, &amp;quot;Hiragino Sans&amp;quot;, Meiryo, sans-serif; word-spacing: 1px; background-color: rgb(255, 255, 255); line-height: 12px;&quot;&gt;&lt;font style=&quot;border-color: var(--border-color);&quot;&gt;Lambda関数から、Bedrockを使用して&lt;/font&gt;&lt;/p&gt;&lt;p style=&quot;border-color: var(--border-color); box-sizing: border-box; margin: 16px 0px; color: rgb(20, 23, 26); font-family: &amp;quot;Source Sans Pro&amp;quot;, -apple-system, &amp;quot;system-ui&amp;quot;, &amp;quot;Segoe UI&amp;quot;, Roboto, &amp;quot;Helvetica Neue&amp;quot;, Arial, &amp;quot;Hiragino Kaku Gothic ProN&amp;quot;, &amp;quot;Hiragino Sans&amp;quot;, Meiryo, sans-serif; word-spacing: 1px; background-color: rgb(255, 255, 255); line-height: 12px;&quot;&gt;&lt;font style=&quot;border-color: var(--border-color);&quot;&gt;以下の処理を行わせます。&lt;/font&gt;&lt;/p&gt;&lt;ul style=&quot;border-color: var(--border-color); box-sizing: border-box; margin: 20px 0px; padding-left: 2em; color: rgb(20, 23, 26); font-family: &amp;quot;Source Sans Pro&amp;quot;, -apple-system, &amp;quot;system-ui&amp;quot;, &amp;quot;Segoe UI&amp;quot;, Roboto, &amp;quot;Helvetica Neue&amp;quot;, Arial, &amp;quot;Hiragino Kaku Gothic ProN&amp;quot;, &amp;quot;Hiragino Sans&amp;quot;, Meiryo, sans-serif; word-spacing: 1px; background-color: rgb(255, 255, 255); line-height: 7.2px;&quot;&gt;&lt;li style=&quot;border-color: var(--border-color); box-sizing: border-box; margin: 0px;&quot;&gt;&lt;font style=&quot;border-color: var(--border-color);&quot;&gt;メール文面から本文のみを抽出&lt;/font&gt;&lt;/li&gt;&lt;li style=&quot;border-color: var(--border-color); box-sizing: border-box; margin: 0px;&quot;&gt;&lt;font style=&quot;border-color: var(--border-color);&quot;&gt;&lt;br style=&quot;border-color: var(--border-color);&quot;&gt;&lt;/font&gt;&lt;/li&gt;&lt;li style=&quot;border-color: var(--border-color); box-sizing: border-box; margin: 0px;&quot;&gt;&lt;font style=&quot;border-color: var(--border-color);&quot;&gt;問い合わせ内容をカテゴリに分類&lt;/font&gt;&lt;/li&gt;&lt;li style=&quot;border-color: var(--border-color); box-sizing: border-box; margin: 0px;&quot;&gt;&lt;font style=&quot;border-color: var(--border-color);&quot;&gt;&lt;br style=&quot;border-color: var(--border-color);&quot;&gt;&lt;/font&gt;&lt;/li&gt;&lt;li style=&quot;border-color: var(--border-color); box-sizing: border-box; margin: 0px;&quot;&gt;&lt;font style=&quot;border-color: var(--border-color);&quot;&gt;問い合わせの質問に回答&lt;/font&gt;&lt;/li&gt;&lt;/ul&gt;&lt;div&gt;&lt;div style=&quot;border-color: var(--border-color); font-size: 11px; font-family: Menlo, Monaco, &amp;quot;Courier New&amp;quot;, monospace;&quot;&gt;- Bedrockを利用可能なBoto3のバージョン：&amp;nbsp;&lt;code style=&quot;border-color: var(--border-color); box-sizing: border-box; margin: 0px 6px; background: rgb(240, 240, 240); border-radius: 2px; font-family: SFMono-Regular, Consolas, &amp;quot;Liberation Mono&amp;quot;, Menlo, monospace; font-weight: 600; padding: 2px 6px;&quot;&gt;1.28.57&lt;/code&gt;&lt;br style=&quot;border-color: var(--border-color);&quot;&gt;&lt;span style=&quot;border-color: var(--border-color); background-color: initial;&quot;&gt;- Lambda関数に標準で組み込まれているBoto3のバージョン：&amp;nbsp;&lt;/span&gt;&lt;code style=&quot;border-color: var(--border-color); box-sizing: border-box; margin: 0px 6px; background: rgb(240, 240, 240); border-radius: 2px; font-family: SFMono-Regular, Consolas, &amp;quot;Liberation Mono&amp;quot;, Menlo, monospace; font-weight: 600; padding: 2px 6px;&quot;&gt;1.27.01&lt;/code&gt;&lt;br style=&quot;border-color: var(--border-color);&quot;&gt;&lt;/div&gt;&lt;div style=&quot;border-color: var(--border-color); font-size: 11px; font-family: Menlo, Monaco, &amp;quot;Courier New&amp;quot;, monospace;&quot;&gt;&lt;br&gt;&lt;/div&gt;&lt;/div&gt;" style="text;whiteSpace=wrap;html=1;fillColor=none;strokeColor=#FF3333;align=left;" vertex="1" parent="1">
          <mxGeometry x="286.75" y="690" width="387" height="203" as="geometry" />
        </mxCell>
        <mxCell id="8nDSTVszZVtQRW60rJsY-56" style="edgeStyle=orthogonalEdgeStyle;rounded=0;orthogonalLoop=1;jettySize=auto;html=1;exitX=1;exitY=0.5;exitDx=0;exitDy=0;exitPerimeter=0;" edge="1" parent="1" source="8nDSTVszZVtQRW60rJsY-30" target="8nDSTVszZVtQRW60rJsY-55">
          <mxGeometry relative="1" as="geometry" />
        </mxCell>
        <mxCell id="8nDSTVszZVtQRW60rJsY-30" value="" style="outlineConnect=0;dashed=0;verticalLabelPosition=bottom;verticalAlign=top;align=center;html=1;shape=mxgraph.aws3.ses;fillColor=#D9A741;gradientColor=none;" vertex="1" parent="1">
          <mxGeometry x="332" y="373.5" width="79.5" height="93" as="geometry" />
        </mxCell>
        <mxCell id="8nDSTVszZVtQRW60rJsY-37" style="edgeStyle=orthogonalEdgeStyle;rounded=0;orthogonalLoop=1;jettySize=auto;html=1;" edge="1" parent="1" source="8nDSTVszZVtQRW60rJsY-36" target="8nDSTVszZVtQRW60rJsY-20">
          <mxGeometry relative="1" as="geometry" />
        </mxCell>
        <mxCell id="8nDSTVszZVtQRW60rJsY-36" value="" style="outlineConnect=0;dashed=0;verticalLabelPosition=bottom;verticalAlign=top;align=center;html=1;shape=mxgraph.aws3.ses;fillColor=#D9A741;gradientColor=none;" vertex="1" parent="1">
          <mxGeometry x="707" y="300" width="54.75" height="63" as="geometry" />
        </mxCell>
        <mxCell id="8nDSTVszZVtQRW60rJsY-40" value="イベント検知" style="text;html=1;align=center;verticalAlign=middle;resizable=0;points=[];autosize=1;strokeColor=none;fillColor=none;" vertex="1" parent="1">
          <mxGeometry x="730" y="510" width="90" height="30" as="geometry" />
        </mxCell>
        <mxCell id="8nDSTVszZVtQRW60rJsY-41" value="" style="shape=image;verticalLabelPosition=bottom;labelBackgroundColor=default;verticalAlign=top;aspect=fixed;imageAspect=0;image=data:image/png,iVBORw0KGgoAAAANSUhEUgAAAYAAAAGACAYAAACkx7W/AAAMP2lDQ1BJQ0MgUHJvZmlsZQAASImVVwdYU8kWnluSkJDQAghICb0JIjWAlBBaAOlFsBGSAKGEmBBU7OiigmsXC9jQVRHFDogdsbMoNuyLBRVlXSzYlTcpoOu+8r3zfXPvf/85858z584tA4DmCa5YnIdqAZAvKpTEhwUxRqemMUhPARFQgTpAgB6XJxWzYmOjALSB89/t3Q3oB+2qk1zrn/3/1bT5AikPACQW4gy+lJcP8QEA8CqeWFIIAFHOW04qFMsxbEBXAhOEeL4cZylxlRxnKPEehU9iPBviFgDUqFyuJAsAjcuQZxTxsqCGRi/ELiK+UASAJgNi//z8Aj7E6RDbQR8xxHJ9ZsYPOll/08wY1ORyswaxci4KUwsWSsV53Cn/Zzn+t+XnyQZi2MBGzZaEx8vnDOt2M7cgUo6pEPeIMqJjINaB+IOQr/CHGKVky8KTlP6oMU/KhjUD+hC78LnBkRAbQxwqyouOUvEZmcJQDsRwhaCThYWcRIgNIJ4vkIYkqHw2SgriVbHQ+kwJm6Xiz3ElirjyWPdluUkslf7rbAFHpY9pFGcnpkBMgdiqSJgcDbEGxM7S3IRIlc/I4mx29ICPRBYvz98K4niBKCxIqY8VZUpC41X+ZfnSgfliG7OFnGgV3leYnRiurA/WwuMq8odzwS4LRKykAR2BdHTUwFz4guAQ5dyxZwJRUoJK54O4MCheORaniPNiVf64hSAvTM5bQOwuLUpQjcWTC+GCVOrjmeLC2ERlnnhxDjciVpkPvgREATYIBgwggy0DFIAcIGzraeiBV8qeUMAFEpAFBMBJxQyMSFH0iOAxARSDPyESAOnguCBFrwAUQf7rIKs8OoFMRW+RYkQueAJxPogEefBaphglGoyWDB5DRviP6FzYeDDfPNjk/f+eH2C/MyzIRKkY2UBEhuaAJzGEGEwMJ4YS7XEj3B/3xaPgMRA2V5yJew/M47s/4QmhnfCQcJ3QSbg1QVgi+SnLUaAT6oeqapHxYy1wG6jpgQfhflAdKuP6uBFwwt1hHBYeACN7QJatylteFcZP2n+bwQ93Q+VHdiGj5CHkQLLdzyM1HDQ8BlXktf6xPspcMwbrzR7s+Tk++4fq8+E58mdPbD62HzuLncTOY0ewBsDAjmONWCt2VI4HV9djxeoaiBavyCcX6gj/EW/gzsorKXWpdel2+aLsKxRMlr+jAbtAPEUizMouZLDgF0HA4Ih4zsMYri6ubgDIvy/K19ebOMV3A9Fv/c7N+QMAv+P9/f2Hv3MRxwHY6wUf/0PfOTsm/HSoA3DuEE8mKVJyuPxAgG8JTfikGQJTYAns4HxcgSfwBYEgBESAGJAIUsF4mH02XOcSMAlMA7NBKSgHS8BKsBZsAJvBdrAL7AMN4Ag4Cc6Ai+AyuA7uwNXTBV6AXvAOfEYQhITQEDpiiJgh1ogj4oowEX8kBIlC4pFUJB3JQkSIDJmGzEHKkWXIWmQTUoPsRQ4hJ5HzSDtyC3mAdCOvkU8ohlJRXdQEtUGHo0yUhUaiieg4NAudiBajc9FF6Gq0Gt2J1qMn0YvodbQTfYH2YQBTx/Qxc8wJY2JsLAZLwzIxCTYDK8MqsGqsDmuC9/kq1on1YB9xIk7HGbgTXMHheBLOwyfiM/CF+Fp8O16Pt+BX8Qd4L/6NQCMYExwJPgQOYTQhizCJUEqoIGwlHCSchs9SF+EdkUjUJ9oSveCzmErMIU4lLiSuI+4mniC2Ex8R+0gkkiHJkeRHiiFxSYWkUtIa0k7ScdIVUhfpg5q6mpmaq1qoWpqaSK1ErUJth9oxtStqT9U+k7XI1mQfcgyZT55CXkzeQm4iXyJ3kT9TtCm2FD9KIiWHMpuymlJHOU25S3mjrq5uoe6tHqcuVJ+lvlp9j/o59QfqH6k6VAcqmzqWKqMuom6jnqDeor6h0Wg2tEBaGq2QtohWQztFu0/7oEHXcNbgaPA1ZmpUatRrXNF4qUnWtNZkaY7XLNas0NyveUmzR4usZaPF1uJqzdCq1Dqk1aHVp03XHqEdo52vvVB7h/Z57Wc6JB0bnRAdvs5cnc06p3Qe0TG6JZ1N59Hn0LfQT9O7dIm6troc3Rzdct1dum26vXo6eu56yXqT9Sr1jup16mP6Nvoc/Tz9xfr79G/ofxpiMoQ1RDBkwZC6IVeGvDcYahBoIDAoM9htcN3gkyHDMMQw13CpYYPhPSPcyMEozmiS0Xqj00Y9Q3WH+g7lDS0bum/obWPU2ME43niq8WbjVuM+E1OTMBOxyRqTUyY9pvqmgaY5pitMj5l2m9HN/M2EZivMjps9Z+gxWIw8xmpGC6PX3Ng83Fxmvsm8zfyzha1FkkWJxW6Le5YUS6ZlpuUKy2bLXiszq1FW06xqrW5bk62Z1tnWq6zPWr+3sbVJsZln02DzzNbAlmNbbFtre9eOZhdgN9Gu2u6aPdGeaZ9rv87+sgPq4OGQ7VDpcMkRdfR0FDquc2wfRhjmPUw0rHpYhxPVieVU5FTr9MBZ3znKucS5wfnlcKvhacOXDj87/JuLh0ueyxaXOyN0RkSMKBnRNOK1q4Mrz7XS9ZobzS3UbaZbo9srd0d3gft695sedI9RHvM8mj2+enp5SjzrPLu9rLzSvaq8Opi6zFjmQuY5b4J3kPdM7yPeH308fQp99vn85evkm+u7w/fZSNuRgpFbRj7ys/Dj+m3y6/Rn+Kf7b/TvDDAP4AZUBzwMtAzkB24NfMqyZ+WwdrJeBrkESYIOBr1n+7Cns08EY8FhwWXBbSE6IUkha0Puh1qEZoXWhvaGeYRNDTsRTgiPDF8a3sEx4fA4NZzeCK+I6REtkdTIhMi1kQ+jHKIkUU2j0FERo5aPuhttHS2KbogBMZyY5TH3Ym1jJ8YejiPGxcZVxj2JHxE/Lf5sAj1hQsKOhHeJQYmLE+8k2SXJkpqTNZPHJtckv08JTlmW0jl6+Ojpoy+mGqUKUxvTSGnJaVvT+saEjFk5pmusx9jSsTfG2Y6bPO78eKPxeeOPTtCcwJ2wP52QnpK+I/0LN4Zbze3L4GRUZfTy2LxVvBf8QP4KfrfAT7BM8DTTL3NZ5rMsv6zlWd3ZAdkV2T1CtnCt8FVOeM6GnPe5MbnbcvvzUvJ256vlp+cfEumIckUtBaYFkwvaxY7iUnHnRJ+JKyf2SiIlW6WIdJy0sVAX/si3yuxkv8geFPkXVRZ9mJQ8af9k7cmiya1THKYsmPK0OLT4t6n4VN7U5mnm02ZPezCdNX3TDGRGxozmmZYz587smhU2a/tsyuzc2b+XuJQsK3k7J2VO01yTubPmPvol7JfaUo1SSWnHPN95G+bj84Xz2xa4LViz4FsZv+xCuUt5RfmXhbyFF34d8evqX/sXZS5qW+y5eP0S4hLRkhtLA5ZuX6a9rHjZo+WjltevYKwoW/F25YSV5yvcKzasoqySrepcHbW6cY3VmiVrvqzNXnu9Mqhyd5Vx1YKq9+v4666sD1xft8FkQ/mGTxuFG29uCttUX21TXbGZuLlo85MtyVvO/sb8rWar0dbyrV+3ibZ1bo/f3lLjVVOzw3jH4lq0VlbbvXPszsu7gnc11jnVbdqtv7t8D9gj2/N8b/reG/si9zXvZ+6vO2B9oOog/WBZPVI/pb63IbuhszG1sf1QxKHmJt+mg4edD287Yn6k8qje0cXHKMfmHus/Xny874T4RM/JrJOPmic03zk1+tS1lriWttORp8+dCT1z6izr7PFzfueOnPc5f+gC80LDRc+L9a0erQd/9/j9YJtnW/0lr0uNl70vN7WPbD92JeDKyavBV89c41y7eD36evuNpBs3O8Z2dN7k33x2K+/Wq9tFtz/fmXWXcLfsnta9ivvG96v/sP9jd6dn59EHwQ9aHyY8vPOI9+jFY+njL11zn9CeVDw1e1rzzPXZke7Q7svPxzzveiF+8bmn9E/tP6te2r088FfgX629o3u7Xkle9b9e+Mbwzba37m+b+2L77r/Lf/f5fdkHww/bPzI/nv2U8unp50lfSF9Wf7X/2vQt8tvd/vz+fjFXwlX8CmCwoZmZALzeBgAtFQA63J9Rxij3fwpDlHtWBQL/CSv3iArzBKAO/r/H9cC/mw4A9myB2y+orzkWgFgaAIneAHVzG2wDezXFvlJuRLgP2BjzNSM/A/wbU+45f8j75zOQq7qDn8//ApB3fDyn3+jXAAAAimVYSWZNTQAqAAAACAAEARoABQAAAAEAAAA+ARsABQAAAAEAAABGASgAAwAAAAEAAgAAh2kABAAAAAEAAABOAAAAAAAAAJAAAAABAAAAkAAAAAEAA5KGAAcAAAASAAAAeKACAAQAAAABAAABgKADAAQAAAABAAABgAAAAABBU0NJSQAAAFNjcmVlbnNob3TQ7nP7AAAACXBIWXMAABYlAAAWJQFJUiTwAAAB1mlUWHRYTUw6Y29tLmFkb2JlLnhtcAAAAAAAPHg6eG1wbWV0YSB4bWxuczp4PSJhZG9iZTpuczptZXRhLyIgeDp4bXB0az0iWE1QIENvcmUgNi4wLjAiPgogICA8cmRmOlJERiB4bWxuczpyZGY9Imh0dHA6Ly93d3cudzMub3JnLzE5OTkvMDIvMjItcmRmLXN5bnRheC1ucyMiPgogICAgICA8cmRmOkRlc2NyaXB0aW9uIHJkZjphYm91dD0iIgogICAgICAgICAgICB4bWxuczpleGlmPSJodHRwOi8vbnMuYWRvYmUuY29tL2V4aWYvMS4wLyI+CiAgICAgICAgIDxleGlmOlBpeGVsWURpbWVuc2lvbj4zODQ8L2V4aWY6UGl4ZWxZRGltZW5zaW9uPgogICAgICAgICA8ZXhpZjpQaXhlbFhEaW1lbnNpb24+Mzg0PC9leGlmOlBpeGVsWERpbWVuc2lvbj4KICAgICAgICAgPGV4aWY6VXNlckNvbW1lbnQ+U2NyZWVuc2hvdDwvZXhpZjpVc2VyQ29tbWVudD4KICAgICAgPC9yZGY6RGVzY3JpcHRpb24+CiAgIDwvcmRmOlJERj4KPC94OnhtcG1ldGE+CtZ91YMAAAAcaURPVAAAAAIAAAAAAAAAwAAAACgAAADAAAAAwAAAkoO608iYAABAAElEQVR4Aey9+fseR3IfNuAJkiAIggBBgBdALo9d7q6iXUvWar2SVtrISZ4n+VGyY+cPSGznjp1Yzn061/+S6LFkW3JsR7KjlZ6VtMvlfZ8gAQIESIAgwStV3f2pmurqeus9vl+C3H2/u2D3VH3qU9XV807P9PTM7Pk3/s+/9+mePXumpf4C3LL2am79qRxRWL1IRSyVquo2gZ+mqvD8ipgTxLjFPMu2f4odlDAyHjUfN3h5e7Tf8ij/WN/SCSWVmT2gi/MHHu9/p+zB08rAkbQm0IMlyrOaCRNMTKk4iC1e9VYuaCduAicXi1JRXshRWkOPy/SWx9tDb8s4j9aftaKtxEHE2/NkuEgfu69xe71tT6aXOK0ZN1xUXPE8VR3FDWPoP/2UOLYDQEllyU2UUCQ+0iOhSHBYRgTNIONRc7sjwN/y9mKBSimVH+LOT7eJvAja6UUT8H9WevhppW9ojQ+wQK/qcUPVbKxXe9RQWnzGo/rO3tJASWVVeDtArKHHZXrL4+2ht2W0v0ZysU4cpPaNKMNF+th9lOcsf1av7ZQaIjaCKI4obhhDLwMAFH0JYC8Ph54G1MDGDds5PSLr/HSb+AEI2ulFUyoaH+Qoq6HXjwlD3BgOJ5TexQBVj3GqB2XFRXKg+lLxYz/dCQmZR37AvKm+8sT5yfhbHNowBDYsYz+L41D6cd5UD7djnGi9QVF5ceMJ6azC24vHgH85fZY3YYkDAKTFYeM2St4IeFQ8tl8+Tni0PMoPPcqKy/SCtrQk7gTdJuyAi/zk7dtTrwCU0NZCgshjM1f1OPKd0yPezk+3iUQJ2ulFUyoaH+Qoq6HXjwlD3BgOJ9sBYO38RP0jqa0V3zEdALDFgUS/D6Uf26sebsc40XqDovLixhPSWYW3F48B/3L6KC+wRrljuKAhKrbtXt2/WKBSSuU3Ytqo/jI9rDyui7fbhF3mJ8/vLg0ACDALQBs+buGm+n4gzRIGvcaPGkrESZNn9Be3r+I0fth3ZQKI+StProc/xI1t2GN7PT2sNc+WJ25elJ/V7OE/8pPlB/bxGaSNR/BdJfKjcS3myXCZHuGEOHGPSt1/sb+rnTChUkqvr2q0m6cS+M/jqj8vr3j972Ic/Cg+qAWOInsPR37G/Iq3OJXDbjW9WFkzEjeBk8OillH7FFUJfJzkge8BKNDWQuIRkzUtW6F9wyrNuIWb6pE/DS1ORMXYONQ/GKDfDgDISCmRli7hPn+wivpBiCqt3YQxlVYR+cn2PyEMCJa1j3BKa+MVv62S4TI9+EKcuEcFP/m6rXbChEopvb6q0e7tAGDSRRvIM/K0WA+tz3PjsXSAS4l+EIGrRP1Mkf7r/wevAnIWRZASR4aNTtWBgyVxGY/q0Y7mL3RrFaG9iw/8KCuPt4e+lpvn0cZr2akTkwByPRjHfjz9GKf7vdV7e+sv0wva0kKcth8/yNRPwA9HUR4jOexQRjgf1zgQxa2oH8MprKpQXkSK0hrGuIqP2gc/wmppSbxhHFlgzbHCXAAFsa5e7dBClNaPx62m198X+PsyymMkp8xvBwBKgu0HyqoVeD0SHycWCC7jH0ZDxQ4KILPfXN/i6NotUpsOEjtBhYpYKkUeN6/iMn0cR3MbEzTTJf3YsOFWyijPkVwMEUUQpxePA1HcivoxnKKqCuV1ERtBjKuwOA82AM+zYRye0MSNDYXZeDbVKy+YUFo/HreaPvrZwVvcn3F+Fw4AIIQD34CmkXZIBSamjHYQzzvmUdyK+jGcYqsK5TXhzjYiXCSfmZZqgksCiPIGL2pe/UCOEnq9VI9wY3nPg7xBLqWYS0VUXEEcKrQ4rwey4tbXV544jy0OGw6cSxnbZ/zQC1WrjB3mfsBj7X1+rB5WeiAZ6z0PLCs+0mdxY79Z377GkfoJHKh43G5ppailAlUplQdii9tUj/6xrOyrk3SbEo0PoKmsAcO2AwCn1eYFeZyVFeBxkXxmWqoJzhMbgmyHV/NxQ6DfDgDj/MgPK1K33sj7YTEB+kE7d4zP/YDB2i/Lr8cRay+sYzGpq8L7qZZZ3JvbL+knCFDFYQOLgwyn+hoP2iVbjt4KMnv0j7Vi9k7Sbar/QNHZcxw0APwW7gjBPpyySDtY/EpFOOeVjEcTZHlUPmfjusVBq/imH8PEXvFgsGUctyWOeSou1jd/CSCOo9rnerTLxg0pyohHw4M9diFsNwbZlEpRqL14QiXQQ115vP2y+oqL2gUW2Z9s2LO9rCk6vdov9qPxLybIcJEech3wEVkWt40HPLDWsuK8PpKrZa1luMX6tP+qObmSSh9A2db4x7hMD9IoHrUHEmXUPhtHZg8238yIXyxahZaBbgcAzsVyCYs6GvZIb9ZxsR79YncE8KKM46iIXC9MqAzLiEfjR5zbAWCUwOXzN7KmvQrp9b/wYhDpId8OAJLAYYKRp/73C3CmV9zYj9oDibLivd7yeL21x5bfPSJ+sWiVYABAQqIAoh1b6CNDAdSKwmzDAVteLxaolFLtIe78yKZUADSl8licyg08vIJSVOWJ7AWXALJ+yPXwZNsFKUoNY4xTvVjUyhhO+2tVyLAhOKkU+5C3ufF6+G/uQ0D1E6qFpsVjw1JtTlCweT8EDsRTrUQ8PgzL5/WNGArpCDjM7DO95YEbSLWsPOvrK1OUF/ETOygQVdt2wV71IkGls4d4NZ6I38vBj7L5GbsjkFWM+IZXADAcGbDrTRMu4Ut8UoGqlOo/08PM4tR+rNf8WDugUSqPxakcyFqm+WmOI3thSwCZn1wPT7ZdkKLUMMY41YtFrYzh1PqqkOOO4KRS7EPe5sbr4b+5DwHVT6gWmhaPDUu1OUHB5v0QOBBPtRLx+DAsn9c3YiikI+Aws8/0lgduINWy8qyvr0xRXsRP7KBAVG3bBXvViwSVzh7i1Xgifi8HP8rmZ+yOQFYx4tvzr/3vv7X2cwBp4iVOGwjEKCMeH/CYR3Er6h3cCUqIyi8Ro7JQ7+2MmWxE7Z8BpDqqpPbNKMJpnFn7Mz2ia7gxnEBWof47e2y2UnGZPQwrTu0g78slcQGRRBPpAzmi8GphBKSUUf8BpDzWXuVAorS4rlsI1OmbWRRH5CfCK78dgSIe4CN97EcCR8OHZWavfm1eVA5aqxepE1tByAOYTRP1DhTNQ7cJvyhH7dsOAMhOKccZDDum2UZ6LzfOZGPUMaLkSkKU2jeyCKf0WfszPaJuuDGcGwRgKdU/xFYvUhFLJbAXi0S/Is4HWvmFxsal4rFc9aihHOOj/hMrMZNKUQVhk87i+k2nb46iOCI/EV757ZEt4gE+0sd+JPBWGReZvfq1eVM5eK1epE5sBSEPYDZN1F1QNA/dJvyiHLWPBoC/S7TV0gcgpqUS6ytu5KAaWh5sofS8tiVeL5aomDKKw/NYP30+kReQR/ZeDguUWX6XxCWOonYL+9L23Z7WCNS8y5vTi0dUbOnMs/xYgygOlVt3y/YjrGKehggAm+Zf/dv2Qo4y8hOERWY2v+HNYXHQV+z+4P3YeL3e8mV6QVtaiBdMQdt2ikFfiQMoSFWPA1hdv2n+sjjQwIYbwwGisgK4HdsBYJaW7QCAPcfusEjR8ju+WKBiS7gRqe6QIjIVaxDFoXJjTBuRPXCZHrhWBo6iAzOsM/2yuIgnCItobX63A4Dtb+QdpeZxjFtdb39Pai8eUSllpgc4xI3DhhmVuj8sOQBU22jHA3OmB27TKQ1t+Lily+sRUcfTbc4TBgtbWgP1DxT0dUeI8hTJwYI4uuOZqOWSEO5EYysa32JgFk/Gk+m1HeM41B7xV5yXW71sOVoriHiydm+6/2p8Nh7I+zKKR+Mf80R6lcPT2B5a7SdIKt7zrKYXtHO/KX9ljvIGv9ouF4BAuKLtHOPW1asd3Fn+1fUdj6WDUkrOz3YAKOnoMtVt4sDrOwS5tAYeB/12AEDGbNqRH6Od/fAgrzifX6uXLUdrBRFPfuCwPPCHMrVvwE1xGv84nkivcokYlXHp6KvA88B8Ob2gd5y/Mqf5Fb9SQUim1HaOcevq1Q7uLP/q+o7H0kEpJeenDQAiK5UscZvqd3vkXT1xQaac2ApW94M8Vx5vv6y+4QKCrH/ES2CvetRQ2vaLNOBR8dhO9wNhQsWUygNxlD/rx9vBHmXEs6Q+cZD1g5rbuOEdZcSj9oJExZS5PfzbqQrfP6BdLm+CBj0EHbFvhwBLJYofqE31gzMNUDf/2HQN6fRjnLYvs8/0Gf9Y36UbICq3A0BLxjjxPnEWpx2LnGZ6i/P2y+oRtvUn1jExIKXMfzgGThur+dMwxnaeboxTHsRTcZFcUGM6qKU9ngeQyE/Tx4YFsHx+Fwca8Xj3Y57cHnbbAQA9Py81z8jTXDufIoLc4pa3t3bC5sRWoPxigUotLXymCwYAIKIdBwcC7xiWtox5Gi4hUvW4JSm/uInsbbxon0idWRVoXIKEJyPIcGvrY8POv2uA0WMjyqO6WcyT24snVGzp6K0gikPllg79mOlhleFCfaiozPQzQwWuTOnNl2u3IaEN5bH2wKleJKiUMtOjGcirMaaNyN7LnaUReHxtj5cbM/I/bjdQmX7QAJiWUukzPzAb46I4lH9sv6le+w/81Gd1GagK5rUoUOwAPqC5tdZjnoZJiFS9WkI1glqL4lB+WHR+us28/dbA81s/a+tjQzgoZdRuA6KNCKdubLtWt4dFwOPEVhDFoXLwo6z2mV7Q1h3EVCY8sYPCsR0AZqkcVm3ifTqT/DfOaP+Fy0z/UzkA/OX/7e+GTwIvm7gssZkeftbtgGiHEd5WiXBeDsu2Y9r9E0oqrcLzLKf3djMXpVp5UlwCyPpBzW3ciGZ5vVigUlshtFIx+i6dpLM49W/NgPP6Te3hp/J4fuhbmQCy/IMtw0V6dW/brbyooVwRN4YTmVVoHGM/Xm9xkT5qN6wRR2QPXMqTEKjatlv5pYaKKT87e7jt4pxt7tkOALTbzBKClNWyKTJ9M/I81jDSe7mNYtkde0FDCmG242scNm5Es7xeLFBp/rE55u+OIwS2OPUPHpQV5/Wb2mf80LfSB2AAWf4BznCRXt3bdisvaihXxI3hRGYVGsfYj9dbXKSP2g1rxBHZA5fyJASqtu1WfqmhYsrPzh5uuzhnmzQA/Bd052cmIRsNEAS1zBKX6cGW4oIAVGzjBS/KDLe2PnRrFcovEZWKl0NfS+TFP6gDXPWT8YQdCJpWwl8nJnPbHq+HZIzz5haX6bvdkZxl9jaejN/rYV/LvP02HmvNW00fwEScBLJpHEovHk2om+rRTCW1fpQfiE31lsfzQ1/LTfOn7bNxw4v6H+sVN9Zn9qoXJlRMqbjOT9vspGSriu0AYFJZN7KEehObYrUHsuq9HHr4rbjtAGDzIjtsE8d5jPKc9Y/1t/GBY/YDs8x1S6KJG1KAm8ah9OLRhLOpHs1UUutH+YHYVG95PD/0tdw0f9o+Gze8qP+xXnFjfWavemFCxZSK6/y0zU5KtqpoAwD4LFSJoUe5HG7zDrB+4B1lzi9IVEyp7Rv7UT3MGm4MJ5BVhPaNzuutn1hfcVn7JR4bFpykZ/oARn40vrED1QsTKqXM9F06ycb6yewzPYLxuKqJ2g07xBPZQ9+FreatlvlRftt+EO2cXhhRKWXG79tn41R70Fq9SJ24CjJ7rwdjLeP8wuHiBzSFLXCkYvCJhalEcag94GMexVm9ymGPMsPR8oQ6BbSswWq4qMHCEkdeIYk+5xdPqJhS6W2iAFK9SGplDCedVYT2jc7rrZ9Y38LIAIjHhgUn2wEg6Yds/0J/x93QEh/kHx2R+VH+MdHO6SUiVEqZ8WM3UyMbp9oDYfUideIqyOy9Hoy1jPMLhz/NA8D/SvcAkAepLJmQho86IE581jG2A7M57dwP+KShEJRS419PL2kTVsuj/ABYvUhFjErWDxXn+YWxVkAHcVde8fy1eLQdLWAXtxOYljh7x2vgtFH51G6shzTDhfpQAeZa5v2wXvvhRcMY80R6lQsTKuNS6KVScJ4H5hUX6ZGXTadGwQOvfZnps+MQ+DKeXh+1G/un8qKGMsuv1YuViPkKYDsAzPpVMoNclVI7aKzfDgBI1zg/af6aucM5OieA44X9pLwGThuVL9PDKsOF+lAB5lr2BwarpWgTHlWP87SuXu0Q0ZgfWv09WJzngcXifkC7twMA8oUyy6/Vi5WIywDwn9MVgEiAaaWVe1jVe3lHA7YAiA4eW5E0sOvxCuvjttuxHTQWr7xjPaS640OyGo/3U3ni/GT84zj6OIUlCqDRxHEgTvhDKcxFsKl9H7ccwMfuIKWyxhE3r49zZjqrxvEvyW/dzJhrNea30Ay3+3rE0zWo2wQK+ce274exocdVhqh9kVz9jv1AjzLkceZOAIpSRjzarrF9poeTnB9IlM3frKArgO0AoAnvEtU2Mz2sogMU9BmP11fLqKPzH5Z4RqURBptRAA0ex9Fo3f5sBZvaR/kVL1Kx7UOe4uZZwwgXx1/tIzv49/HbOGP+1XAZz+Z6xGPzFrfP4nyerF7Yx+LwSmjTdqnfyDEQKANcU0fxaPvH9plevCsQolIGYtI1f7PCDgB1yllwhpXNY+bmeNwg8GT2Kc7RO8HCODT8sZ36lxoqjdds0kbAI2KpBPbgqziND3KUO8XT+GJHBZD1U65fNm7bLlih1DA7XLcZ9UNkr3LxhEopvR5q6zjCZfmReC0dnOheFTloyMxPpFfaIADhR0gWl9pbOEiotArlASTTV1zULrDAj+dXBNcynlAvYUrFErct9T/GhfzOHvSWJ+JXOexQWnvuju0AgNzMSk2gTZjKAbZ6SHU/t3pvD4uKy/SCtrQQU5nxNGjsqADyHTMMoNk3P5qITj7WQ4pSw+z8dZtoN+xQRvYqFyQqpfR6qK3jCJflT+K1dHCiWYscNGTmJ9IrbRCA8CMki0vtLRwkVFqF8gCS6SsuahdY4MfzK4JrGU+olzClYonblvof40J+Zw96yxPxqxx2KK09d8eeX6cpIBW3mgpg2ZUV4B1ZQ6+3NFECIrlYixupiIor3m+G22H9mI4jK3H6+Ip49p8IZ4kjnjR/+CFaupn/Wo141O9igsgejjKeTA8eNAf5hVztIUEZ5Xc1vaCDNGTtH+yooDRlxBPJYaztHweoerFApZSZHuAUJ+6lAtPAD9QVH/FD7m8Ow0+0ig766gc88BqVYb4TgtCuOVJzGxfiUL1IUCllpgdYcepnOwDUFCJHphwlbA4I9ZrfOZzqVaF2nVo2I5wljniyHQ5x6IFTHJtKxKN+bTzGmDYie+AynkwPHm2HjUftBdkqUX6BW04vaOsW4rT92wGgpmr1frL9sx0AZJdrlfEOqXlW/Z5f//t0BaDblsDJ4agqvB30KDPcYj0OIJ+2HsY22KVMAons1CxsaHGhOHiM4g54RCwVEC3kB8j7F01gD30to/ZvOhBYL/EBX+PP2p/p4bHDyaZUADTl8nHArPKpHeS2jPMLXMKTOWg0mR+lsXmI5IgO5fL8YoFKKZf1Ew3YIIt4VA4kyiS/gCUnYHn7bV6Ftq8EgWb8oIlwSrs4jshe+aVGU0DbAYCykSUUCUMZ7XABj4ilAqJSasdCbHFeb3GxvuLiHaL5se5ALmVsL5BSiXAa39jR8nr463hkUyoAmnJdP2pn6GQjarcAkgPPplcC8KNx2jxEctihzNqhPGKBSilVb/0bEG+IWioGEvGo3MCFMNYDX/1FuLz943jBLmXgIOOHfYRT2sVxRPbKL7U6AKBDPG0n6TZnPVkYNUB1gBqXXj/Xst45MIBMHzmIaas/1Y/9qx7hrIlzZlawup9q7+0QZy3TvAm8xWPDUm3iSNWWIJILcatEOJXDwvJDKqU3KKpATLrKt7rexhHb18jyfmh8llaahUrGE+kjOXhRRjjfvnGgihvrcbyBP+Qf22ovElRKubremC84ztR4PX+1R17SGQm4C4jAA1hfqtk4f8vbg9nyKD9lnq8A0CEWxsadpNvs9XPi6toaeD0CbOgEkDV8OwDYfGIrzRuA6G/bbapN+wdQS6BmVg40yginckGiMi69QcEFYtLVuFbX2/bE9jXMvB8an6V1bcx4In0k7x1EON++caCKG+uxm6lfi1N7IDbVg6eWUfuy/QB2P3kDAPLT8mzTzcpQActWVpzvQMAivfUY24OnlugQK6WtgEDF1l9vrzho1o2789Ntgl3y2wSRf+C9XjSl4vVwHK2KCB2D2JRh3g2KuwF+rULFYz3Qa9s7WitQ//CEMsNlesvj/Sxp7w0LsXxacmoP7AQ4iWJNvTezcSu/1FAxZcrjaKvA24HWGnhcpq882K/8zWP4sTgrjffrHofDZv/7Bk7jt3F7vUhQKeXy9uD3D3rVKwDQNhzgEEsDvEIhNaT63xBXFRo4zK2B1wNnS3SkldJWQKBi66+3Vxw068bd+ek2wS75bYLIP/BeL5pS8Xo43g4AnCCfH5s/2ULaINBfdJFkPF5vCb2+OQoU2wEgy1+mr/nFcWM7ANBv4df//t/BsEDZsQnEpkq1Vn8BbYd1RcUF+7H4ifToIEcbCEJ85KDxhHaih8Ou3SvrAx5HawVx+MvlV7xaWhJn9q6BoBqWeR5dAIYnstf2j+0zvTgRIHZ1yydq7PDNUOXCZCpR3MgvwDHPZv0Q+6+e1a9tL+JCmeF2W9+lncKy8ap/RIwyy1+kB39yQgQ3ye8l64cFZxzFg7YPcYnjFfWwW55nOwAgZ4Ny1zvG9ZMVqP8+uIrL9LDyuMy+WXpDUJoy+wGsq1f3Ni9wnumB0x/gdgCQnMwqWR53W98d7yky29/qfxZ0qWb7caQH/3YA2POv/i9/Z+nnAJC2voO6/pIOzDoO3Rnh1j1wgFdKCVwqRaV+rRx2qhcJKqZUXMbT6btNJbUK5VdErVWc10dya5/lV/rZhmNJaCvj0fjGRLutl4DFvVSKSv0Dmektztsvq6+4LH86gIF3XEY8kbxnyXCR3rc/y5/VSxxObAXeDywrzusjOexsGbUPqE31UT9GccMvSsXZvHi9SFAppdpDTJOK2wGAk7FeQiWNYi4VqEqpie/03aYaWYXaK6LWKs7rI7m1z3ZoyYsNx5LQVsaj8Y2JdlsvAYt7qRSV+gcy01uct19WX3FZ/qIDB7ygjHgiOexQZrhI79uf5c/q4d//DC3O+4FlxXl9JIedLaP2AbWpPurHKG74Rak4mxevFwkqpVR7iMMBQAHVsm6rW60BOcepzOJ8AEBWnNcvZ591DLxkHaA3hTK/Vg9+jd/qIznspBQzqYiKK8oDscV5vcXF+ooL85gZNjehPcJIcN5N1D4rB31mrweYwF6IXKUIPL/FZXpBj91DTf0cACJ5swztRC8uIOkFZTvnGccXh2fxirNyCcaJrUDtYVH1Xm71smXpIKbSKiK+dfMjjiJiAdTKun6U3rYH9HN9cAUg0BaJKWhjTOzFFqeOwY+y4rx+OfssUfAyOIIWFfxuBwCb7yxvom+VZfshwqEflNfGo3orB171IkGllmImFaMXqa8UnOeHeTXI9IIWfkhsGeUn2n9hHdo1gI9vHEjOE9khkr60eI3DysXKia1A7WFR9V5u9bJl6SCm0ioivnXzI44iYgHUyrp+lN62B/RzfRkAvEIkqNSy8Smt1gqg21w2oeqkEmiAquFalhCgU1zkoBGo2jZI5eIJlVKurod582PdQUmlVagfK4eB6kVSKl4OvS3j/GVxVp7Yflk/i3l8O2weMn2XTnK2on1rhvrJ7NHuilM7yPsywjU/1l1vnP5O1P+YSPWgtjjVW7mgndgJClT3k/HN+a5byMbyaBziufFiuy+rvbcDLuOvOI0bduMyxIkbqQwJQvuG1naMeZbRbweAQeqjxKkcRjbxq+s7HksHJZVWoX6sHAaqF0mpeDn0tox3vOZv7FZIYnuBlEqGi/S+HTagTN+lk2JZ0b41Q/1k9mh3xakd5H0Z4Zof66433g4AYX6ivCKF1jDqp2i/BAvKECdupAITU4b2DaXxjXmW0bcBYDwCRwQqN/HSRhdItwl9bA++ahjjFuuzxOWX0jYObKHUuFwDASml4iCO4u54uk1Y5/mzhpF/8Hk9NLVcN4+pXXOT4TQ+2y5Euam+312RX88vElRKqf6NmDZqvOvrwbccj29Htd80vxJF3JACWdePpx33s2/fknlpDYj8eDlajDLzU3FR+yM52KXMAynQiE/Nx/lTPTwqjgaAv42jP2lVwVA1jOQgRGlxHR0zFqDywq4vM9xifZQo8ZIEoOquPY0g08OP4kRSKpEcKJ83aBa3G/kVtAvfCnwcsKzlunlM7ZqbDKfx2bgR5aZ6n2frR/nFIyql9HqoK8/6+tV4fDuq/ab5lSjihhTIun48rc0//Pv2LZdf2Ed+vBwWKDM/FRe1P5KDXco8kAKN+NR8nD/Vw6Pi9nzvf/7b7TkAFQKGUgk6zOLN+QgCKlNGDVJQdaD+VcO1zD7TC1vkoAFU3TVY9GM5+CN7lQsSFVs6eiuIeaIHXTL7zr130APsdreV9YPS27hAk+kVt6a9M3OC4kLjEI+B3Oply9FagecXy8RPw8UEzd76AzvK3e4nDW8ch+olIlRs2ZlncWcnRpvaZ/wafA3ct7MhQoUycK2PNzaziVKcymkA+M9oAGCBCq07dgiJVKpg8ebcEASm7BtilGWjOlD/FpHZZ3phixw0gKq7Bot+LAd/ZK9yQaJiS0dvBTHPdgDgRGp+bN4kyU7sBAWqPLCsOC+3etlytFaQ8cT65iEBZL+HXC8tQcWU6t62C6Dl9WKBii07+izu/timcVTaTe0zfg2+Bt77F32oEESp9PHGZjZRilP5bACwTupWFLASzK3UAaQNN4YTyCoiey8Hfy37hFgtHwCsn16vYSzGpTyNuMd599aP1yNCi9M4x3rlsXYqh11fVnyMy/SNLyYogD4vLorUHha2fSJ1YitQeiuH/fL5hYXlUf5l9cDVMs5P9eP5rf1spOsUdjPyo/y2XdY6/z0pDywtn+oj+dgO0ivXT1E/oB3RCRcij+ybXhMDg4Vl1I8wWka/HQA4W+g/rSCHpswSCnCP8/0qDouJ1wsTKrW0ZiSzAuWJ5JZOtype7VVTa5m+4WOCAujz4ryk9rCw7ROpE1uB0ls57Lt0ktji1B4Wm+rBU8s4P9WP92/ttwMA8tjlZeN+BF/UD9gPvqADgDTP7WFoGBC1VNh6+q4/ZuRRggFZrI9/QIh7HC/YpdQGimheUbXli+Rz23m9j9fb1x2qPxD5/EVxwFumXw3Xxw1ridO6U3WrxfYWmuEivc9jz2u3JW6IJX6pQFNK5Tdi2rB4j8v04Ku4te29IYhLKVFkOAUae2youQChqn4UYOTY8GrLo3or79IMOiotTu0BqXovhx7lYly038EaccR+FvMLjzRHKqKaV9SPxUVy2LK+XAGowBKgIdCjXIa4Ynu+xhCI4U/54RFlNYz0WcdkenjJzqTUv21IJBfertLH4+2/eAPAVVddNV09+8dN/oQesf74k0/Kv08//QSfM+my4Tf7/PSISO/zaC1VD7ntRz2OdPIG9/ZjHo+zfF5vebx+SXtvCOJSCkuGU6Cxx4aaCxCq6kcBRo4Nr7Y8qrdy7R8wobQ4tbd6L4ceZeWJcNF+B+tNj2PCI82RiqjmFY3T4iI5bFm/4QAgVKiUUh1DbAPLOtDbj3kyXKRPO1DClQoCMKXyW1wkN8a0EcWh9rCw/D5/nb6ZZTxeb/2tpqcXS5HBtVdfM+297rrphuuun2689roi++DjD6f3P/xwunT5g+nyRx9On9BgwINC1H6JIg6gQLza5iHiz+zgP8tzxrO6Xjy39tn2qLbKPb8iGkEnqJvCmhI0fIBTsTAaf8vrYRbxdPJuE9ZaWoDGAUTVe7nVT+1Uxe9HGT94auntF8vFOg5QIFxRmI0LoEX67QCALM1LyaNU5lqpR4mN5GLYKvGO4ZBW4MJygoLXOGBucV5vccvoryLQ1VddPe2lg/3Ne2+gfzdOt9xw07Rv797pRhoEuI0f0EH/0uXL04UPLk0XP3h/uvThZRoQLtNg8NF0+eOPpo8+/nj6mK8M8DKmFkaUH4nSNofEVhDZ+3ZZO/B3dAN+QbaK5cn8eL3li+JHOzP72ZHBEEuUKUE1i+JQc2G0fkQslUAPcYTr5N0mrLW0AI0TiKr3cqv/qRsA0Pxa8hmdlWDHgzTTA4cfktJprWC6TdhFO14ehzBU+pX5Yd9K31AD0DjtlI03GweiuPX0yK8GZXmUHwirF6mIpVJU3r5acLv5jJ/P9o/sPzB96fCx6e5bD02Hb94/7bv+hukaGhjYls/2eRC4QAf/c5cuTm9deIf+vTu9dfGd6e33LkzvkIwHBMb1gwB7Uv82rhrF7uvhZxZIESEujFvYFnzrGC8HorYn0wvaNT+zb5axgwIQ2gyX6iVSVEypvxMjlg2ll4hEx5VQ7+BWoHaGbrZR8R63LE9kP3NR4rd8qk3sYSaHFwiUYV7L86z25gpgTsJ1T6SGVe8sekHdbmZqrbUC6DZB4v2LBpVqHthTCxbqY35DP9/zOkXdVB7pocDvOFDd8dbTf9YDALf32qv5rP96Otu/cTp08y104D88PXj7semuA7dNB2/aN91AOsZxizgrH33ycZkGeuf99+jA/+50hg7+p2kgOEv1cxcvTO/S1QEPAu/TQMGDBV8dsA1PF9GwUBPtG9rleb38Zflvzt1+ALvtAFAzhHzgdyd5axX9nfSaZe1h1/Vzt9n717hg35eVwOMssdeDJ7KHvpZx+xN7hCE/AwgsP7ZiPz6OPd/7n/5T0LodPCYcB+AT1HC2AC2VoaJhqt7zziiYJQFsqhdvG/sBU2s3Nlvp6aP2j+2RTqW1uIgfeK8XTamwnnPJ0z776cB/9Jbbpntuu3164PAd0zGq33rjvukmuhq47ppryrTQ3Duf3X9C0zwf0nTPB3Rw54P8Bx9dnt6jqSGeFuIrg9NtUHjrwnm6Mrg4XXi/Dgof80CAoyxFEvWnxj/3jDZoGdkDoTwiqRVH6wQFF9l7ueWP9cviajwhT6gAfy2Xz0/U/khu/cjvvxNrmGvyODMrUH44zvTA1TLPj+Wz1vH+C1zGDxz9EKQ6r6g401Ms2wEg7xBJrmZWRPNK1nFqnndM5a04tYO3sf1uDgB1rv+qMt3DZ/1H9t9aDv4nbjsynaBB4Labbi5XBVftuQpBLiz5rIOne/jgzgMCXwHwlBBfFeDK4DwNCjwI8CDBVwflyoDvGZANryrq/zRPQX6awfL9BA+Nz9E6QTHQOKy9ly+rXxZX4wn9hArw13L5/ETtj+TWz3YA6POxXP7FKuhPFef9sOfX6ApAYGopPrjidwix6HBmc7bR8LYI9TNFqcI/TgJ9mJXYyy0TeKzUb6W4wJGKl81PhIMcF2dR+4Brbeg2tWVWoXECkemn6Zo2138HHfgfuuPO6Tgd+I/dcrAc+Pddv3e6ns76OW910ge8i0sMAnxlwDeCP6CDe7kyoBVDF2nFEA8K5+hKgKeL+J7BKboyOFvuGbxXrh5G9wvYY9Z/uR5x27xAuvMDrfXj+weeKy7WV1zWPjnwWrdwImXGE+k1vsUOInsEkPGoXixQqaVzbwWRvZdbWuQvxlU/6+tb+DEBAH1gZjvLL4O3A4BJWd1IExd0jIrtjgYXqhcJKqZU/1d2AOCD+TU0138DLevcTyt7Du27Zbrn4OHpoSN3lpu9B2nK54a21NM0YMMNPrDzWT6vFnqHrgD4oM83jvnK4AzdM+Abxxf5nkG7X+DvGSwOQPM7xmk/jftxOwDUvEV5TPPX0h7Zo1cyHtWLBSq1dN1nBZG9l1van9wBAO1cmAE6LNg8worKqsj0+AF5mk7SbYIfDiM/+Y7liEFpyowH7ejjAklkr3EvjiPDqV48olJLR28Fam/lbMyxY67/2K23TffSGf8Dh4+Ws36e6+ez/uvoqoAf+tqNP57z52keHgj4hnC9Z/Dh9B4NCnzwr6uJ3i33DfjKgK8U3qUbzB+Qnu3YflH70MZR7LDzV5wtTz5djcYqwKM+VtPDzvNUTbR/YX+M7CQx9vwC7qSM+TP/QlEq6/L4+NfLn/5OEddqPD4OyxPp1223sEfEAKAMcF7s222vABJCVVsiyNMdDz3RzD1LJ+k2wQ9/voFVs2nild8FAFVzhM0xLopD4x7bCauopQJVKZUH4g7Xbcb5UyDW9ZezflrTf+SWA9PxQ3dMJw4dme6jQYDn+nl5J+OuxN9HdHDnwYAP9ryaiK8KMDV0nm8c0+DAD5zh6uDD8pwBDwj1OQMc8zj2rH+2A8DiPo7y1+8XGS7S+13MxpPpJQ5rxj0vKq5kPF4P88oT6aN2iXVk2ACZPXgGDSgqT+/bvefX/sf/ZH6qVA3B7BmgaQ4sYZ5YmEeJ6/ka3omtwIcZ8cM/yuVwYUdIGFIBsSlD+4bS+Mc8kb3aGXe00XgcnRMUQ+Wp6/pvvP766Y5bbqVlnTzXf/t0jJZ28oG/zvVfWw6cY6Y+jp3fLjeO6cj8Ed8v4H90v+D9tpqInzPgG8dvvcf3DHhgqM8ZXHz//XLPAFcGfVTafmhs61Rv5UAj3bItlYpXeyjGPIqzepXDHmXED30to/1H9hPArVtqVhN0coE7uRMAWkptxxi3rl7tjDvaaH7G7lTfzDxPNfTysZ8Yt5gn7p/qJ9NHA4CL0uWBeng7ANBu4hJjUxd2gNhJxRq2rdBe9DAb80T2cdyNx9E5QXHMPHigi5/iPUzr+utc/13TXTT9s1tz/Wj1JiVuJPNNZD7r5yuAM3zPgG4cn3q33jTmQYEHgUsf0pUBDRjlngENHnx1UJeXzq8LOBqbJ82zlUvcgRg8ag+LsYHirF7lsEdZcbG+4qL9B/GBrWs2bbY4bDgKd3InECxXNM4xbl292hl37LEKxu5U38w8TzX08mYgRYZbrI/7pzrI9LPESkSjim9HMgDgZ5EF4PU2494xwms4W0BJpeXpN3t95ifS+/hnIXAUkSFgid6ru3Y1nsyP8kT2EhAqtRzDi45/5OyX1/XfefBQWd3zJZrrv5PO+j+LuX4b6HpbGATkngFfGbQbxBfbKyjqaqJ6z4CvDvjG8rvv8xPIH5blqHxlkeUX0aU4ybdUaq7tJuiotArlByTTV1y2/8CP529+QkXjR5w2HASZ/k6UPiBwYVic2sOl1YvUiTtBt4m8LGufxeH1wlwqsb7ion6M5GCXMnEw51l4BbAdABZ3yPIJF2SruD2wyOcd01vwtvZrZA+rTt9tMqrM9fMKH3pil9/hw8s7T9ADXTzXz2v7V13XD8+fp5L337qaqN4zOENPHPOS0lP0rzyBXFYT1XcTYcAo9wz4JjL940EBv4F5u7J+wHEyP7CA1XaQ8i+rr7hs/0E8nr/5CRWNHw2z4SLI7QCQprEmLklzmMe8f9MACmDOUwcAdGEXmevnTg8zW/IZpZWkO163Yzlz6EHrAUUzbxigtqyGPr6Kyuwz/aDhxr33O26I4jI96C1O7cd6Tue1tG7/JnpfDx/4H6RlnTzXz2f9fOC/ac11/fD2eSrLaqL2nEFZTYQ3k9J0ED9rwNNDePiMn0Tm1UX88Nl8NVHUHs2zzb/gRSwVUXElsle5gbNFEWR6WGW4UB8qKrO0JsClv5MWYITztOIxaL/Vx+3vcN0m8rus/epxgrmWUfuB2lQ/28FAaUqOfxcGAN6x+8zWbSeWcBreFqLtO6YfDwD0fqFBuTiOzD7TL5NwRFLL1mArnNFkehhanM8z2q3r+m+5Yd90O73A7Z6Dt7d1/XXKZzfW9SPKz0tZnjOgQYEHhPIEMk0J4TUUPDUkq4loSSnuGfCVAe4ZsD3/aZ5t/qWdIpaKqBbZK6+B0wb6sZdj2/pZi4eMmIX39fKPtmpZ3+lUr4r0pX3jKyQbB6Lry+j35OO2fJkeflKcpeVWw7SUmf3qekNf8moldivKD1CZnhwAOixZvedXaRWQwDoDkffmHa5X121cCXgWb+4xzKG4Tt9tqn+rUHsgltN7O9jXMk084AGRim083izTiwUqpVR+iNuPmBQ381w/nemXdf2317n+g22Fz26u60ckn5eSrwz4H08RYfqHbyK/R1cFF+iGMV8J8ENnZanpRX43Ed0zuPReudFcDoJkq3ke91N3PKGmj3ERj8r7rFWeWF/x2X7q9ETIzPw6D/6wzzXlwz5Xl5I1fLDn+ywffvKRPGvBk2QYEF2U0lyp9JCy7eJoKG3f2D7Tw5niRFIrjtYJCi6y93Lwo6x8MW6xPsoL2FGmuCAAFu/iAMAHcG5gbSSC5dLH4zEW1+m7TeW2isxPpPdy9VDjsn6sdrYVEKl4zLO8Hr4sj9rXH/PVZa6fn+at7/Dhdf3Hy7p+vMNn5x/oqgdWet9/uRn7UQmUXxfBgwxPP/HBhfePeshBO65syQeyD2lA4LN+PIHMg8BpGgC4PEeDAL/NlJeb8kDBAwe/y2i0j5eW2G4Jcdpf1kDlfV4qLtZX/KIDA+v4PhA/6X3d1deWV3lcdw2V1D/oI14Zdi0988Hfe2A85wcDAL/Uj6+ILlPJ33S4TFNrnA/e5hVZ/OU3/enbdrnWBA1R8dg+08OP4kTSEoRtlJkfi/O80KPM+mmxflH/wQOXKS4IlMU0APzHNLC3QMAaGKi64rEdlT4waxe7yXBNb2GzMKoi44/1lQrx035f/iI8cLMAbDUwzOxUjwtt22BP6/V8sL2R5vqP0nt7eK6fb/AeO1Df4cNz/fxj5wOB+rKhr7PFBwo+QPK0Cr/Dhw+efPp4276by5LSW2+8qXwshl8pvezL49aJYx2bcs+AznLlCeS2oojbw9NFb757bnrhzKnptXNnptO0zPTi5ffJzbh/xL/tFhJbwTL9KFymshyP55/ooH5VWfrL+wDf97ntxv3TISoP0DLg/STjj/nwvlG/6aB+kB/+yhs/lV3e10RXRmff43c1tXsolCceFGgUKJlZdt+KcBq/xmHS0DYie2CVRySo1NLRW4G3h3nFRfosLuwPkf3m+hbnwMF2AEAfDkp03BdtAOC4+eDKH2op6/pprp+nfB5u7/C5tbyv/7pBi9cX8UGfDw58FshnyLzU8tVzb00n3zlX6nwkOLRvfznY8PcC+GqEDzJ8z2EvnXmWs0464PCBaacHpPVbpZZ8ZXCJrgy4XS+cfXN64a03p+feeoNuIJ8vN4x5wMAPVa1azR5HHM7/Lq2B18NDhrMHJr7a4jP+vddeS6/t3jvdQk9633rjzdNh6hfum0NUv5UGgJtpAOB+GQ3QPNRxX/MBngeACzQAnpsNAPKRH7pS4pvsPK02+tobWjAv8Xuby7iu7bft9bhM7yyswJlbgcZhzdDvkT5ql7JUP5F9xp/rm6eBgz2/+j/QFUCnsM0m40yPlnQ4iGvJZ5lWEgfugMUwshfWsRn5DRTNcFM9/Gc8gwTAtJSZvW+GbRfrmeOqPVeXA+xRmus/fuj28kTvne2BLpz17/Q7fHhqgA/+vKLmeTo4vkhnyS+fPUXLLd9pa+2n6fpr69fD+ODDA8BBOugcvmn/dDs9eMYPmx1ogwJPPVx1FR+ubPtMsj7jjXLmS9Ma/OQxn/W+8vZb0w9ff2l6/gwNAnRVwN808H9d/N2m4q0i6mcvB0O1j/V12S/vF7zkl7/edid9v+HeWw9Nt1Mf8NfbeDmwTNGVuf94io4HAX61Rn3ugr/xwM9dfFRe3ne+vaLj9XfOTi++fbrsD3yVxBj8Rfu5xm/zATuUEU7lgkTFlCkudB/l2Rp4friP7JfVL4eL8gtr/VnRL+yzGwDqwUmCKJUoITahsPGJ7XDdptoFigbIEpbpl/WzmwOArOunN3fyCp8j9CoHfmUzr+u/n9b379a6fj4I8Nngu7R0ks/+Xn37zPTM6ZN08D89vXn+bHkyl88Y6f9lcOKBhz8YwwPRATrj5Gmh2+kto4doIDh4E5190llpuTKgduy95jo6KNWrA7bjfljck+iJ3StxpcPvH3r8jVenJ958dXqK/vFHbPxfF223qXiriPZzLwdDtR/pOWe8b/AZ/S17b6LB9kB5kyt/uvOe8hGfm+jq69py5WWjAPdyJfLCb3B9mwaBN3iqjE4AXqN94NSFcxMPDDx48pVS9HvS+BdHEuFUjpjHPClubEakVZHZe72NZ339cjxRfmGtPyIMAKKplZAgiFzw/CvnvwxXUQyUGle8WaaHucV1tACFOx4AaEfSjKV5wCulhCkVUXElaz/AilOe8iqH9g6fh++4mw78d9BqH5rrL2d4672vH/6iknubf/D8UBUf8J+kAyKXPE3CN0t5LT3/4JFP5uGDEZ/d89wy35/gG488BcQHKH4uoVwZ0Fw0T0nwlUEZGOjqgAcFTA9F8XxWcj7Y8fQGv2ricTr4/4vnHp9eooNdXRGzfD/qfqr9yG3Q/kWLMr3Fze05Z9fSAf4I5fIherfTCVr2e5Se/eCnvG+knO/kPSDOC0/38I1g3i/4oP/6O29Pz9BU2cvnTpd88dUA4/gPvzdE35e5HhY2PyKVRLTjkia8QETdyWHvxdaP2sNiU73l8fzQ1zLKTyQX61mY9QpANIuJB3tmMRCH+KUHkQtO/M0iIZk3y/QgsjjfcRXn/cPe6pNmrL/jSphSMQFk7Qe44mj0Jho+8Jdv89KN1fIOH3qg6+E77pruufVw+zbvdWm84F2l5FUg/CPngz0f/J47/cb09JuvTW/QD/59OjjWOXEw2vb6dtabkjwY8CBwgNpyW5saOkxXB3z1sp+mLvieBs9fl3sGNHhw26/mJYtEmPUtItmpEu1/kgaAf/TEn01Pn3q9rAjiqSLfPtt+iUHEUimqzN7rwVh5WM/54NzwlRZPs91LB/6vHLmrnP3zPD8PuLv5x3ngN7eeoZvDz9P+wf9epHsnPEXIN9R5Sijrs1yPFtj8iVQStR0AkJNSztI1HAD0ANp2KGNNG5JYqxDeQN+jFSaWBaJyWFi9SJ24CZwcFigrwPvZKX3lyXbgMI8Sv1QQmJTlB05nd/yhFn5fPy/r5FU+8g4fmmev3+bdnff18zLJ186foQP/yenHr700vUJn/jwNxIMCv0ZhfCBE+D7/3B4+kNcrA5r2oQM8TwHxgYrP/rmdPF3EgxxPGfGNZP405U00d10GAsrFZ/lX7glQO/nA/7uP/6BMBWGKA3Ho/hX0YyCmH1ihELWvVH2T6wmLAOVmL3+r+WeO3Tvdf9sdJW88kPJZP18Z7OYfH3L5TJ9XC/GigNdpSuhp2lf4BvqrtIKKrxD1SgCRaPyQcBn9jpDfUfutPbYifuhRNtwYTiCrQBywzvVAVh5vv6y+4qL8CEvsoN0DABKltK8FCDnKgFDNpAaLYamBW7ynt3qQhbgxHGZUVoC3B2RTfeXR9oG3K4MAVOwbwgdJXpfNZ8N8plzm+mm65z6a569z/fvLGnvG7eYfL+3kg9+PX39p+vOXn5tO0lwvftA7l982KNDKFT6T5QfW+KtkPDXEVwU8jbGf7hncRFNfPJ1R7hfQVQSvXvmsnjPg+x2/QwPA42+8Mr33QT2zRd61C4K+CMSSPyFylSIA//wAyJS83/GNXc7T/YeOTt+468R0Ny0IuLEMlleD7DMpMRCcoxfvvUg3zp+lm+ZP8pXiu2/P7gkglHFCot/RqP1gmpfAIa9zHddVD02LYxwOWwBYytC+obwe5pVnfX3lifIjXmIHwQAglqg0R13D+8zZtJDNAsfMqIFbS5iNL9yKJf9H+sFaL1QUM/xH/UOCMuuYiovtl9Nn+ZFokBASYK7/KM3v81w/H/jLt3llrv+zeV8/L3987OQrNAC8PP341RemN2nqR/9sj8zCb5Dl9ZzjcmVwNd08prns69oUEA+AdTURTxfxwMDLGevAwAPjTXQTmQdKfs7AetMod6L2LA0A/5CmgHgA4FdR8+sl8OfbLRpUaukCtALPY/UgYxy3l6+ijtIigK8dOz49ePjYdA8d/Hl9/5W6h8K/Y14owFcCr9BV4w9P8uopng46X6aDsucoVmn/KKGZvde3jEIRHohsPwCO/sAByssVMY83wmXHmcwP7HGChm32PZ4CQny2ffRD6gV2224xu5OAuZQaiMXBLMw74mhm1pqpQ0Xg34jFHnH0Wmxr/JDYMtNn+QEb85QDPx30bmlz/ffSlM+Xj95Nc/2HypkwT5Wk/kC4A+WbdAP00ddfmh7jfzQFxEsh9c/2iM/jhnoi5IMZDwh8ZcBXAmV6iAYAfpipPGdAVwY30DTYDTRg8JUBL3HkHO70lcGzdIOT7wHwAMBTYPzkM/58u0WDSi1tOkhmBZ7H6kHGOL4/ws9+3EdXhX/h7i+Vr7jdQtM+nIMr+ce/ZT4AnaYrx6dOvz49/dbrZbUYv52VV5K1R8aGIa7S/kpg85PZe30LA4rwQLScH9AMG1eElSfC5b/r5eyHA8B3//v/SO5a2ebMwm0KDAAuH0Hkwhfoq4d6M3PmjapiacRKk+lhJoFD0JVVr7yduosjwmUdlOnVjW8X2/I//lHfSQd7mevndf10sNvtb/P2GcF2PwCcoge+ovygP9fVj/LHsnq2S6tc6OBeD/J0g5gGQh4U6j0DfsCJrgzoJmiZMqIc8v2E0QNOaNeqpQwAdDX07gfvtQHA9yPzavvHevHt1FWg9kBaIOv5eYr76XsOvOLnK0funu6gaaCdbC88r1PycYPvEb196cLEefv+y89OL9GzAu+TbL5oYNTfc3+b68Fm8ydSJ+4E3Sb272XtfT+KZanE+orbvP3agD1XfgDgH4YG1JqIjJhSYT0eiTFw2mi4MVz0yhvYN3GE8/FbnkyPMCVeMi9z/fw0L83b8sGfP9F4nKZ7ylw/nd3xGe+V/GFjAOAbwI/Tv1N0BRDlB+1aV5/mD+kmBzwo8Jn+vr10ZUADJK8mOky5qlcGN5enX3kQ4IECgwaXfGWwzt+ztPpJrgCu4ABQp8muLg94ffOe+8sAcDfdAOabvp+nP36AjFdQvUxPifMA8DRdDfArQ3hlEP6y/t5cL55QMaXfT7sDSLeJ/Rskmb3Xi2WpxPqK27z92oA6AFj/dDxSAFQ1MmxVvUMlkQt+IS6/IvDmjdkWFKx4rIF3m2hNj/P8QFaCSL9px2i4NOVDZ7U30pksv8PnYZrq4Ut6vMNnX7mkv6YMnGFfIeRdKtcZABCKz5/tGK+HZS3jPNerJdaXl5zNrgywmogHUx48+fkIvjLg+wb8KoSbaFBY588MAPzsA00Bafy2XT1/ihNzqRiKuT0Pejyw8dfcfum+r1B5R2kTr/j5PP3VZyU+LW9ZfYrunzxJA0B5kI6mhuo0kEYb93PFzNuvVvRrdulygjl8hq84bw94x9Nt5seRjN/6WTYOj1vWD0VcrgCs3ys8AHAH9pm1206NI2eDKVprpYndJpqddxyQlcD7r3ofN+yW03Mz6lw/PyVL6/rLO3xo/fbRe6a7Dx6mue66fjvzY73uztbndQAore36mfPFa+J5UMBqIp4S4gM/r49/hAZYHgjW+cMA8Fi5B1CngHT/6ALpHKQ4MZeKYZjb8w1xfsr3y7QU+NsnHi73hviq4POwr5ig2wa/Q+gNuo/E9wP+hK4EeGnox59+XJYPA5/FPm8/bLhUOaTj/IlW1LXi7QWJSi3FDmIr8DwZv+Xx9lYvW9YtiZf1Q0gzAAhjraRnly1C799JCqGTBi30He8sK5+IWwXb3U0KiJEYNBPjhmy3ivdvEZke6AzX63l7Px3k76KDPb+y+YEjx6a7aAUHH6z4rP+zWL+N2LPSDgAvlikg5BfdqssTe7baI8D12p5nXf28fzm3ZZqExZzgoAAAQABJREFUVsjwMwZ4BfJDdMD8y1/5Rjlz9n5yCQ8AWAX0Ll0BjG8C6x44YtQ8dLhuE3kBx9yOn5jmtnyZHgJ8hOb++R0//f4Fu89DyauC+GlqXhb6B88/Wd6pxPcH5vcCEGfWjlwvTKiYUvMIcbR/dh3SbcIaZRYX+jPyrzyo9WUUZ8Xl/imC7QDQJ5WS4nvEgDI9wBmO9fyPl+3dQMsW+cblHTTlc4I+1MJz/ffRSh8++PNVwU4/uFMut9tAmcWJ9szLL9oAMI8dJzacg0fo6uo3vvmXSjnHLFu/8gNAHdj4AcCfu/dLdAVAT/uWuf8bl22CwfHTu/xuf/4mAr/tkwe0+joPXitS91V+YrtMqdF9lHVfJYEnhfkm8B+++GS5F8Af3eFBoP/L9s9cD8bxEdv/3KMDa2ffbcILyiyuz+8AoC0otbCdoqgV2ezsZRMVlD7z0JTSJ9B5aDiYZfoANzYjcFX4MCM5+G3p26F6vK//2K0H6eztnvJh9vJtXpqn5umKdX9g6sHXeDkY/49/hPzH0yOLYvQME70Xn5aB0s1ffhDs8ddwBQCkTWiUP0FbOMRUZnnO9KBqDgZ+dm4AeNktAxXvzq8VaH6sHPbzK5kqU1z9ctfV5WThV770yPQwrf7h+xy8HHTVP94b3qNvJfNX0N6gVV2v0pr9M/TqBp6u4Y+81Cm0G8r7mY7R+4R4CfJt5GudExT2xfvhSXp+5E9ff3F68tRr9IbV0+X9QX3cy+6bEU7zC2bNH0syvViJmVSgsqWoa8XzAy7AIshwm+rF68zt+AqgQ87w0NRSFLUim0B1EWd6mKH0HeoYClTdZHphRqWWYzPSVYXywyySQ29L3w5d5cPr+nl55/23H5seoUf2+Ru9t9JbMfkMayf/+MfGB3y+Scnr1flMj1cRXU/r5Nd5QnQ7ANTemT8I1j8HgP6L9h+vD3ZEJ1YBH5R5X3mQ9p/vPfgz9ODX0bK6adUrRj7LL987oBU5/Brnl+kfz8vzu57qAPBJGQB42TGvrLqLHkS8n942y6+VPkxXqXwTnfdzXF2hbVnJg82TfDOYBoAn3nylvFG2txn9fnoMb0e45fMPVs0vJJUfW2M9tDpgV5z3D6TlyXCb6sXrzO2eX/nv/sNPo8T1Q+PMDly2bBE6XBC54AI9yH18YlkgsXmEg7zNgaDHIIbjVnr/AFSD2H/Fjeyxyocf6Pq5Ew+Wd/bzTbybb9iduf7y2mY6+PPLuPj1BXyJjzdu8isDVl0Fs8oAINmS/EoFqlLGeczynOmbm4GDza8A9Eng/h5AdgJhGk8bGt44P9hNwcv2vISVpw755u+vPvi18s6fq4lotM/1/ubb79JTuifp9Qz8tbPH6UD8Or3ag79xwCcMfLLAJxDMydOVfNLAH5Ph/ZUHga/RNBpfEayzLPk8nYy8QgMNDwA/ePU5envo2XlYpp7lJ2tzZg9nEU7lgkTFltJ9UjH6iMfLYWZ5PC7TW565/XYAKLlpCbR5RNYW/JiqwTyhYjSrjHbMffQDOkoPc3352D3TL97/cHl9M7/pkn9gO/nHZ3Y46+fXNvOHTJ568/Xyg+YHhvjBsrspDv5Br/K3HQBqtuwVgL0JjAO13z/GO5rixvrRAMBLP/kFeV+mG7+/fP9XaFXTYYUt0aFlMpAO7vw5x8fodd5P0YH4mbdO0mc83yn7CB/40Q7QcZx8H+Bmet8Qf2L05+/BE8c3rjz1VD8dSlcB5PcPX3iiPB8AP32Z5Wf0O5tzZPbARjiVCxIVW0r3ScXoIx4vh5nl8bhMb3nm9mUAEPVcA+GsRIK78+bZ/tEFMrM11c6PWHVyYyMbfHaDDakUgcrHevwyrBVjm8QrGlFVeP6xnwzHer7Z+zP33j999c7jtM7/rvLirnXm4hFBVPL71/m99fye/qfoB85v7eRv2fK7Yb55/IHyjAG/OprfrLnKnxsAaM4YafQ8Wf5gkeEW67F/gi0sZx20o1cA9GnE+hxAjTPyP3PfIBaf6ed55pfh8RQiP/X7C/c+UFaNRX5HcjyY9SLtF3/w/BNlWeY5uhn7/keXywBgbTT/5Slsmn7ibwvwO4ceoncOHaf9iL/qtsoff0mMv7DGA8DvP/Oj8o4gyYZPhKGO+lvNhMnYYUNxIkGllKof86geZg03hhOoKrxdZ982Pc4Se73lifXAUUQ8BYTNKKG9HgYSjq8UExGDAGUXmeA6OeB9qXGKZYF4c6vHD6eTkm2TeEVzXRWeH5FZwwzHen6q91e//K9MX6M3NfKLu/hTfTvxx2dsH9M/PhDxJTwf7Png/wI9ev8MnfnzS9vepxt9/IDZtx94pAxAfNbINw5X+ZMBoDwJ3G4C2zTM6LL8AZrhFut1vwBfUM466Is+ABygVz+coFc9f4WWf37zrvvKATlo9VDMT+XyWTivx//9p39E3zk+WZ7U5YHB//n8H6SvuvGV5MO0+uhnaCroyIrPU/AVKn83mAeA36V3KvHVR/VC3mf95GNhtSCNWsVjPcCKEwkqpVT9mEf1MGu4MZxAVeHtOvu26XGW2OstT6wHjiKaDwAqrrU4wTaQ3g7bkf26HQveFt2MZhyPT0DDdXDdHOvVb9V7XkUgNi5j3J5y1v9vfeNb09dpAOBX9/La9J344/laPvjzgZ8/0sIH/pfeOjWdogM/v4Od37vC7+u/6+ChHRoAXpytAtJMlrZ0m/gBoJ2L8sOY1fXOYQ3DiZuAit0YAOL2Vb++XS5AUHTxexy/D+pLdAP4K/RmWH7v/x00L7/KHy+7PENn/Pxpy//3ucfKx314sQDP/Pg4LTP/vnnfPUJXAbz89BfvfbC8dtqiFm/xQMMrjJ6gAeC36bXa/GqI/i88jjRgpNf4fd7YVPXwOMaJ1hsUlRc3npDOKry9eAz4l9NHeYE1l1/gAYA7EIlEOW/agg7u4LrZaiqwhOkIDnglkPAglnLP9Mid906/+Rd/efr63cfLvD9fUm/yx2dS/Cpi/lALL93jJXU81/8yfaD9jfNvTxdIzlcH/D/+u4fO+n+RrgC+dtfxMm+8+hXAuboMdH4FoOdutSkuj1awKD9MsLre8tcgRjwNR8UXfQDgV1rwh4B4AOCbsauegfMKH76a4wHgX9AUEK/+oYyV1MX5r5nl3x9/jY6vAh6mGL57/yPTcdqvVvmrV6yflCuA/+uxP6F7ENsBQPOX9cNivR4flbGvrTUA6C+zHkzCpV81PtqdWsV5H8tFmu2BhW+VewItAPC2uSxsangSuIoGtTzBlcfzT2Xq56/+wnfLAMA8YY4GfnsR/4j4Mp4/ys7TPU+cpG/z0moOfkXzOzwvTWd5H32MV+5W689kAECg0qFWMMpLRVgDj4O+7X8e0BzF+Uckj9BN+N/45nc2eBBstgqo3QMAN0oND3FDU8tN9DwAPERn33UA4CeAV3ulBb+jnz/gXgYAugnLiwQwACBKjQ8SlPVj8wdoAOBVSN+l5xD4m8Or/PG+y1ccfAVQB4DXnHn+O6smEU7jH+cfDjNcpk95xD0q7QAUDrjAoX3wYEu0m9JY/jRO4CqPl1NPrzMF9PkaAPgMD4lCGSWiJQT4JGHRuCVpBQ8ErowTz1M///a3fpUGgBPOahkBfjh8s+7C+++X9dp81v8CnfE//cZrZa7/UvtCleZHmXdyAHiMHgSr3wOw+RdvThznpdpYA59m6HdgAKCz5jIA0ECwzh9WAZV3AdEAMH8VBPg0fsQNTS030fOT4g+0K4CvH723fPzdsi/ewiocHgD+8Pn2cXtKa/tpFGONr+faU5YPHy7vILpr+k57B1GPWrTNB39eolymgPgKYI0pIPCP9nPWafzj/Ku91FAx5cY84h4VZLluKz/cAle3vR7yiltvAPhv/wP5HgDc9mWUWDlAtnakOIx03kEvKdu2+SQKMuD9WktvZvVoRydlhzaubhN6z9+ZDQCbDgD8o8FcPx+EXqD5/hfp4M9z/fxAEq/z/5imhfgHpu61ATs9AIy/B9D8qVubmC6/Gidg1tDrLS7WV5zfTzAFRFcAGwwAfPPy8ZPxk8ASZRKgqm271R41lHvKx3Duo5uwfAXws3fSggJ6geAqf/xOHn4GgG/C/hO6Cfw83YTlfYv3G/2z8WicU1lNdu9B+jgRXYV8kxc00P2AVf7Kfkwx8Gci/8ETPyjPqHS7haMb9SODInlPEOHm7ao2tt3gUdyK+jGcIy/UygtPKK1hjKv4qH3wI6xEu+dXtgOA5MWmmdPUSbpN6NfpkE0HAP78IM/tv0A3eJ+kN1Hyzd6Tb5+pc/3o4VZqfNqAnRoA+HUQ5VUQww/CNH/qto/MbGucEFtDr7e4WF9xox9GvQfwxR0A+N4NvymWBwBej38nre5a5Q8H4OfppWz//NnHyk1YPoHgkwv98/3AueRly/wwGOeQP0DzAH+nglYlrfKHl8I9QQPA7z31w+k5iqP/2fV8o35kTCRf3t4he0HZ1v3M5gXgUD+Gk1lVqB2YUFrDGFfxcR48z1IDgISReI4dN4bOXsLp5PCHcmmc4xHLQuXU0Z7WzNTaCdCggBeR92Xl4Tg2HQBeo6cnv//CU9MTr78yvUbztm/TQ16XaHknr6jADtV7xzb3024MAMovNVRqqQm18vQHALjmD5I5se9fi0Je5ridHQAwBTRuKPzi5Dr6vURytAY83B5+X9QRWkbMA8B3Tny5vJ8HuGVK3ITld/L8GU3l8ZXAy2dPTecuXVz4HACeCD5Oc/5/kVb/PEAfn+fpqBtXfIUJr0I6y6uQyO8/L6uQ6Cb0OH3SnDw/iwk0f6Ac43M/Y/tl+bWdkX/w92XFez8Vl8WNBLP9dgDoc8vbrT+0W5ygWVV51BGeWvGbDgDPnjo5/aPH/nR6lD7IfoZWcVziLypJwFLxIXDzKGA+a+TnADZdBTS/AoAzzUcXR7cJPAJXO9XYWiXwuEhurUd+vugDAH/Z7MBN+8oUzHcf+Op0H03HrPodAF4Zdo7uX/CbOZ+jK0l+GpgHBN6n+Aydp4N4oOD81W8x1y+u8TuB7qdnEH6Wpn7uPnCoPAW86pfV+CGw18gXTwF9/6Wnp9foFRS6H/f9V7ezA1yu73nHO+byPNY+2j97r9pOaw+c5xFNqUT6LG4kmO33/DJPAXV/OUE1iHCRXNxIe2tFNgEIWia4QA/zFt1w7pt13lyYe4qyrVqtdYpmV/WeH7Sq33QA4Ie6/sGjf1IGgPMX6clNOpOSPwlTKqJC5Z7bbt/BAeAFuvfAH4Uf+9N8NP0YJvaKR7S2jPcvSxzzVBzrd3QA6FYBxXHW9mh8Nm7bWt5fx3oW4wNC/C2A7z309elBOhNf5+2cfKDnFUEnaUXQM3Qj9gW6CuCrTH5F84ek46kijmPvNTTg0DTPMZpq4hfP8RUAvweIn0he5x1EfPb/DA06fOXx6Mn6aVFtf2t313zdHOvVHnlWi7lO0zrWA5vhIj3kesUnjC0wbPeljQc8PQq/N6+v9l7eM9Daw5/cAWD+w8kSavWSpiZWrdYKptuMOwSM1YA7hp8A/msbrAJ6ms6YfvtHf1wGgHffu0hLPWdzthKXVBCAlNsBgPePL/4AgG8g89O436WXwfHroPkdPdev+GAhnwXyWf55eljwVToL54P/q/TdXj5A8zLij+mBrT00589vjr21DQD305z/EX6RIMn4RXCr/rE//irYD+nA/yStQnrhzJvlg/HK0/bfbjfWzbFe7Wtt0QDaEL2J2dYDqXqeAyI95F+4AQCNixM3TgTs+hPBcI17RxPjOmBzJFJkWgKYV4hVgXNFKDcg2lB7aISwCvpNbwDDVu4pyz83HgB+2AYAmq81AwC8LYhDBgB6F9G9t63zKoj6IFidAsIVgDhGpZQ+jD5hgHdyiFupPBancmsQ7b+KogfyaPXPb/JzADuxCqi7AoCfLA6N37YL9ihHOObmQeBuerL7W7QMk1fj8Eqcm+newKp/PAjw2T7Py/PyUH6P1HuXL5dXNfATu3zTl98+egO9gI7fHss++IqAp4V42mmVv3rv4dPy8rd/+eJTZdrp9IXzxa/nadyBiyy/4MtwmT7j8SmwAXt9Y4QCczFiJpUCBAxx4IQT214vmsCeGEZXAGIWMKaJsnHTeNAJxAEqtYxxY3uRBnGCXeMVi6JSMyuHHUrFiQSVWnbm6s/CdGvzAeApvgKgAeDHdA/g3XUGALkHcGK9AYCmfPjgz/8ee+2F9hwAWmgTsnz+rB3YUCqPxakcyFou0w9f9AGAW8rt5Fd6f5VeysafhHyYXg3B8/M2SzY32RYfoHnu/0N+wpwGBd7mAYBv/vI3CNaZ7pn7xPcH6ichn5h4KTMPODwA+b/WkqBBeT9XxgyX6RFXhPP7oQ3Y6xsjFFdkAPhv/v35QnG0sZRRQw2INlKc9J9NiPAgAU3gUJ0edoIL9IJzerEsEKeGYSvj9jUeS0dWVjDi5wfA/tq3fm3tB8HqAPB9GgBejAeArh3zSxleBVRvAu/MAGCfA7DtRxiah07fbfb58/YiQaWUyg9xJfZy6GkKiN6fs9tXAOqt1qL9SeN0CSmGi/T76S2cx+hGLL8U7hdoVQ5/S5r9jJn6iMbbZRCgG8TlmQA6OLF/Zlz1JvOInT83eYZWrvGDX/+SVrO9/Pap9hK68HCkNJoIlVFN2hrpAzlIvFoYASll1H8AKY+1VzmQKC1OGxLomziKI/Izwu/55e0AMD8uIuOmHCWuAlrHdf032xULbNQhOzUAPNoGgMvzewAm+tnGLJDtAFDzolcA984StXyVz1z5QbDHXucHwbAMdLF9tD9p97gdqhAu0vPUzM30TAB/Gew79395+hKtzuEvhfHZ+ufpj09yeWDhm8vPnX2zrP7hm79v0s1nEpc/bWcQeQCQrEX6QA4vXi2MgLT4xnKAlMfiVA4kSov7TAeAX6IBQNwHEWZ6aYYCIbJl06fnJS0OoQNLF5/TBziIa0nexVAqRaVya5Ee0GNDQzT/4e/oAFBuAusqoLkfGwC26nMAO3MF8CJNAdHroMsqIPDXMorDp8v2Q/YDiOy93MaDfpzjdmQAePxPp8f4SeB2DyBqN6JZXt+OiF1CNH7NW70ZfHV5vuMXTjxE00B3lRu0/AnHz9MfX03wiiL+3vAfv/xsuQJ4g24689PI/Z+2s9e07QCwfH4DXqHX/I6QkZ8gLKKofND7Aa/zJ5uo2P0BPBobcFXi9UBWHOv3/PQNANRoycxqCZP0WTMmhGphqX7pQbAdmgLi5wD6VUBzPyYgCXM7ACAvmw4A/HnN36UBoLwK4goOAGjPYXoZ3FfoydyH77izfKSFt9e5SQu+nS753f/8xlp+3uD/o3X/L9BVAH+3os79yw5a3KY/qwAQ7v+tMZkebc5wkT4Ii2hr+6D//A4AdqBBPvQ8BC0QTa1ECelgcsC03T1DiaIlbKYy1S4ONZOagWPDx9nh3WYnEKJaUW2rqQBIU7L/KzIAzKKQVUC0HHWtVUByE3jRFQAcjhPSdR+BO1y3Cb23G/vxOBDWHZz7YVcGALQD7hBeV2p8i4F+f7VEcx7+RCS/IfQB+kLXz9MXwo7T8x7rLtO0Xjbf4qmfs7Rg4Tla7vk0vfb5sTdeLlM/eGdV7yFrd3bildo3h5vi5vnv28DbkV7lsFq8H2C3AnrZ34P3AwaaDRleAWwHAGSolOGUVesv7TYnMDzY4B3u8zAA1O8B1AGAPxG5yt+b2wGgpGt4BYBfqu4Yw9TqD3MxMDtAzXnKk7p0P+CuWw9N37j7/vKwFh7U2ombt8OGLCEsXx6jG7+v0dTPozRd9ixdAbx2/q3y4sLIPGv37Mg6pEjtm9WmuHn+R4FEepXDavF+gN0K6B0bAJSw1uSAF8Sj4lZTQSHYNKF9POjozs18aDUmgvMZNvHxGQknMYzXNU+Yqz+nRxhjHLRcfv3u+6a//oubrwJ69JV4GWjYLvLPVwA7NwDgOQDbbp/+1fSSL2tGYitY3Q+Y99DSSXoO4C/wcwD3QrhSORoAQLAo/8BwmeGy9oGLefgfH+j304B+5y23TQ/cfnT6Bl3lcZ1vFPMA8Vn/8a+svPKB5vp56odv+r5KD5rxswbzqR/fTkRa+zvUh4pqv3x+7X4F7ygjHu9+zJPbw647A4cYgUhZFd4/ANbQ42h/4SsAwFH+dA0A+AHaZJVcNJFqtDbWawZRm+PmMr4CqAPAfXPx0vWn6J3/v/3D79cngYPnAKIdjp1sBwDOQh0AfoMGgK/+hAwA3Cr+49dB8Ivi7qEPtfO7evip3UM0NcQ3hXkt/6oPblXW1f7LJ1iX+ZvD9JJCXuXDZ/38ts/nqeRVQKyvB5/6u/IHKPhL9LFhIVj0O2CAmne/b7hvZcSj9jAY8+T2sMMhuW1DDHopq8L7B8AaehwPAP81PwcAA1uGAQusM+w2AYt4oEcPBOb8Oy1/MjCJYav4ljV8B4xwTm4jcWoEBHqJrxMEmyz+LAYAuEc574edHAD4YbT6HIDNG/z25TyOuW7ZPKtN9eftgLDxjHB84N+tAQBRoIzaDT3KCKfx23bBDiXb8wH+ajrQ30LPBxzdf3C6jwaAR47ePd1JzwfwE7zX0QCxm398cOcVP/xW0RfpbbV8s/dZWvPPL5njdw7xh3NwmJMfeAtI29lHmPR3bFiI5PgRpM+bW6DqrdxFKWqpGIjyQGxxmV4PP9ZO2Jy4CjwvZX47APAZQJ8xu+3U2gM15w2uVlorgG6TZdsBoKZu/t9l86w2NbHeDgib+BHuJ3UAQAb4SoBvDPPL275CAwC/vI2fGj6w9yb6nu915R0+vP/bTMF69ZLfGfQRLfPklxPytA8f8PnM/8Wzp+n9Qm/RCqD3Zmf+4LfeR/1UkUl/x4bFXFpp3SEInIfKdjwwBQTNUsMY41QPVxaX6bWzrJ2wOXEVeN5sAIgZoSllllgDpg1/wK2ISC720rDWIFF0ldZSgUM9ygB0VHr/ceKqWeehbXZSZnbwnRwA3mnPAfj4q1v8d67fiSuAH5VXQdAqILkCgCeUPhOs8d1QcV7e8YzpmBHAUnqeWL+zA0B7J5MPoIvPxmOUtKHmY9zy+omuBK4qVwL87p6D9L7+ozQQnLjtSPluAA8Kt/BbPNd4l08fM2/zWf8H9CoHfGj+eVrtwx+ZP0lz//xSuUv0XqEPPxm96gFstb3aPshRZvqGiwkKYP47APOozHCRXt1n/QevK+LGcCKzCo1j7If1i68AxM4SQ4xyOwC0TLQ0+Wx5xeYDwKvlHsCPZs8BRDuk9NNsj7hbXge9/iqg7QAwlU8YlucA+ElgvhfDX9Ka5Rm5n5d5PwHt9yTWKH2mVx6eEuKrAX6V8920Qqj8o1dHHKb7AvwqZx4g9l57bbk/AKtlyjKPTwf+sr6fzvjP07MQZy9dmF6nr9U9T9M+fAVwng7+/LJCTPlo/L2H2p719Y0vJiiALP+IKsNFenW/fP/A57xUHkgb35iWQFYR2jc61tMA8LeoX2DYuqizhFZwKkBkpYwSYkC0keKa/8CNhIFKjLMau1UC6UMr2z4+a9mlh4kCnl7ccFTsxgAAbz5+aLTkK4BvP/jV8lpqfg5gnWWgZQCgV1Hwy+DGTwLDX5afFfVjODmziqif5vIduwKYDwDSbBsPxH0Z9Vckh722Y+xH9ZwZ+h8JruO3edLUDx/0eTC4g74mxtNC/O6go/R5x1WfHP6Epnt4iecpepPnU/RQ3MvnTtOLAc/Ta50vlikgngrilT789G/eP2hZLfP2j9utLE0fwEQ8T5QaS23TOJRePAo3VzbVd7s9Mwb8EKt+OwAgJ7PSd7gmjGHaYTCyepE6cRNQcaUHgKMHDk4/e/yB6QH6kMgxqvM75Bf+dY0+c+Hdib9J8Az9e5b+naUXe/V/auISUaYd+B3y19PBiOeo+ey0/wvtiY7PPMv3bOmMm7+PfPkjnlqwftQezFU/l5eXwe3EKqDP+QBQM6D54XcE7aX3+PM3ffn9QfzvIfqmAH/WcZU/vNXzRfqAzB/Rk73PnuYVPu/Syp/LpY+op2Z06p+F836YgaTqf4eiKpVML/uDdSskIk4CyfzkergUjxC0dmBzPX232xOZ5fHNU30bABAAygZQHBSldGLvoeICuSGjjTCB4qhWZBMEIpBK9Sv6QA49yiBOH5fli80tbkRfngP4Nj8HsO4y0DYFRM8B1HsAH4Y/KN+Oadp/I31MnK4Cbqd3xx+g+l46M1z41zWCV3LwWT//O01L/N4bvMsFfGqqebmepht4rfrt+w+U99fwx83xJyipOA3daPyYbjR+OJ0i38/RU6V2ALKG6t/z8BXAb/7cpstAfzA9XgaA97qPqXf+bFhQxvu/IGpl1I+s0faNHagehPVqgOf++SrgHroC4O8IfJP2RX5obJU/fEnsKeqDf/bso2Wd/+WPPi4fkOFBmv9G/kc+PK6ionYrR213ZC8HxHF6hCbzo/xjos3tJZRWsX4y/91xnzgie/ih/aBOAUGAshlaeyg7WhJrZILhSpYQgEOc+K8V2RRDVykCwXVxiRxmKDucinuLfrsivbnFeT1fAdCDYFdwAOAzbx4EeK04rwbhteEL/0qTtF38w+d3uPC/S/Rv/B73Pj9qfyP5PUwH/xO0PPHr9FGa2/ffIu4FJRVWmY1yxn+RHiR6gVaY/PHzT5UVJkLQYX3+leundQBArm6mqaA76Z4Af1T+W8cfpG/73gbVUiXf83iHrsAef+PV6fee/PPpeVrn3/fVovzPnXhc1YbHBzGu/RnZSzza7WI5r2R+lH9MtLn9PBquWz+Z/w6+wB5+aAD4zn/1tz5VYihQtgBsHFCqv4AgS4gQtUqIb/xBGLM8WYRsBfHBf4bTuAQJ01o2sdeOFSy90gPAVXT2x9MufODnM0Fto22abJWmaAvrWx0/LmfiH3/8Ca35rt+MFfygot2wZ+IDz1E68HyZlib+wgl6f/2t2YFHfTN1OfDQS8WePPnK9E/owPMCTT3oDgnn1kb9q35HBoDH6Apg9jZQsGvZ4rDhqLrVsj7Q+MdE6+jrAHBbGwAeWm8AoH4oA8BTf16uAKI4VN43vbYn08Mqw4X6UAHmWub9MM4/WNTNGLeuXu3EEyrjUtxLpeDmPNsBgFIi6ZlnZpZS3SEEOdMqgdc2SafgzSs9AMwboO2bSwf1ID9AZjxqXl9VcBfdfP4qnf1/50tfme6lD9Ss8sfTP7zi5MevvzT9w0f/ZHqGpiC0I8FkE6/+Vb9TAwBeB80POPm/8X7Q41bJX2/L29o+225gR/rtAIDsaJn3wzi/YBjlGTou19WrHdgWx6G/B4ub89AA8DdlFdBcUV1YQxB20nmLENmwjBIbyYVEHEqlqOyWoCUe0fuGzcAEx9ZCHM+bChAVWza9wJTZ4JjnsxwAjHPaiPIdycVeEyCiUUVhmgnGzfl5/n/HBwAEY92yZ2hKqfFN5RUQv/lzv7TZqyDoCgADAC93nPMbx10c4WZM0OK37bE+OM9OYgTzftjpAYBf89C3S53XwHx8QNjAI9w8fljWckl+68ZS0FbMb6EZbvf1iKdrULcJVN8xnN/tAMAdjgxFe1zTa4eKBSxr2cSq1docyG62A8BP2AAwuwkc70bd/hBtxgRlN9L9cL5Xad2bW0dz++0AoHlDbZ4fyEZlhtt9PaKy/asHNOhRWhzvJ2YAEJjFQUxlU3R62fR73syWrBM9wBvjNKBCKZvqADVTZjgfl7Oo/py4E9AmDwD/zo7eBF7ii2Cttb4dJg2yEeK65sh+IZa1EtnzblCvAG7f2Smgzj921z6++W5Yp4B24ArALAOtCZr76UMr2wkgyh+4cr0gUXFu6wCAm8A7cw/AOKMNbabdcVQOi0y/Gi7Lj+wX1i2czHafANCQmZ9Ir+3P+BGSxaX2Fg4SKlWxHQCGaWlCzXAR+I7URM5oZjs8pB2ONrcDAF8BbAcA7CGj0u9vFpXrgbf733y33g4AlCObHiRNxfOEiVYreT+MHSjtWA8PES6Sw04bIJJWUX97/tJ/+TcHq4AqQB0EBMpTAN3mfOjvCRq+WThDC183wZqA6sC56RqY6buoBgd6IJo/TwjA9PV7Nr8C+L///PvTj+R7AHoF0O/RXTMlBlSi/EZy2PX5FXmreL+akPocAm4CP7IDN4FfI6/KX0LoNjW+quD4ducKoHpK84d4wzgX82h+FxMsimM/vS1Ul4FuegXwZ2UVUN8PGqf2QGtZKTbVgzXiWdT+JABQN9g4zxm/xhXZGze0YXFqD5zVi9SJO4FsSmXaDgDInks7CzRRM5hU446vdt5c+eQKgAaCdf6eonXXdQB4vn6MnJ681D/1wzIfhyKr3uKhjdvXEGImFZiW0vtVHE8B3c2rgO7iVUCbDAAv6iqg7ofTb2pwNQ6O76d+AMBzALQc91vHtwOA7iO+Fv0eIjkY9Heg+z90XKoeUovL9GJlzZgZqlrKplTWHQDA24iUD4pS0rqZzrFRQzvKgAW2rTDR4r9WZBMsIpBK0ciWz7DVC49YQFJxgT06YKSuA8D3ypWAIVtyY/EA0JPUuEdxVORiPfKuT3aO8zDYk00g4GGhDAC8DPSBnRoA4C6Kz+u/eue901/ZiVVA5h4A/Nhy3v5OUzeDsIGN7YFoNEFHq1gd8TuByhXALg4ANrr5z13jmGM0Tkgrzsuhr2Wen4Qnc9DcZX6UxrYvkttWcH6sndc7iRGo+WIePgCveQUAf81B4Gc7ANTEaIcgb7gHsB0AynMAGw4Av0vPATzLzwHIX7hDNoTq+QqgDAA0EKzz98ypk9PvyjLQ9jbQgCj+Ybd4NKwhQ2xv4RFO90N1hHsA/LGY3boCsNFtBwDKQJ8Ssx31H0DajyJBpZSqX+xnwQAAPkugxGN93y4ZAPBCKE8Aoha49WeUtJElBv7Vb2MIaD3OAu1WCaAPyWz7+CzDvPk7eQXwznv0DprZFNDcTw0wjsM0oG34dlhUpo+uBOZx1SuAdhN4BwaAZ97UAWDuZ9R+7CesqwPAL9NqpE0HgJfqVNzwQbAWhQ+sKtx/W3/ZbhNUln91YwlGcgwA/CqIXzyx3hTQeXoS+InyKgjcA2ihqkOJnSuBmDUFt7o+amehc//J8oc45vuJIyFBxhPpI3nvI8L5/Nj2g0dxYz23L7gCEApUSqmEEHfEbhOC+lKoBT3f+IEHvy2jhAiqmfsDuyBMxeOsf7tFpj4Bls/pLcNcvbMDQPsQSYtm7qeK4jhMA8Te4ntM3g9j+3lcOzYAvPbixFcA5Ulgid9FbAWz8DYfAF4vVwA/bq+CGD8JXN2neZMoW4CzOEVFlYxH82wJRvKdGgD4VRC//+R2AFimn7L+A0eE034UJCqmVJzdDwREYhoA/oY8CQyFGkKCshJleoyccNsO/xC7A6nDxQ4QSCmjBOFADV5jxBuiqBXZBDDwL7hAD/Na0vAiBtA0f1Ts/ADgbwJ7/z4OSBDzfDu2n6MWHJACAhbzAMDLQL+26T2Az8EA8DvzKSB6Ehg7mG8+doj6i8j2X5tlvxXad9AIx/HpAHDPRlcA4wGgC0R/eEXh8wM88lS3PS7TW5617b1hjVvasbsntt69bbe0UsRSgarG68Qq2A4AlCJNR8ubz3xNZFMPjuzQmNL/8Konpt8OAD8ZA8CLZ05N//SZR6en6JsIF2kqpH6XoO4Gdjdye9mC3YiwHm72Ld5wV7BzxMx+iGv6ffQdCP4ozAOHj5XXQR9d8XXQ/FI+ngLaDgDz5Nu6Pw4sp7f7D9vMOnVGobhMDyPFtQHAK1iixNCjrASxvuECgLgP9Q0hQPi1pagDHjRAcNbc5dP9UAJe4Qv0cOM7XiynnynPAezMTWB8Exh+taz+4jAX6338yjyqhfhBAPgewc5dAQyeA2hBevfaD3UV0Pr3AN6k7xH8kK5CXn37zHSJ7sN8RF/Hwp/1qz6hj8pqtzx+yEPmbn+eAxs9fx3sIH0T4E76PvCX6IMwXF/lTweAV2gKqL4NNLSXhLg5gWIi6u5Ap/Ixc7jfLc1Tk5H5wfEEUUgPJYaqFgtQmDLD7YZ+OwDMusD9YDTjM9Rs3Aj0APsdU3cAHgD++re/VwYC4Fcp58tAv5ADQHkOgKaA+DmATW4CyxTQlRkA3nn/venVc2foK1gXJ/5GQv30YdtHkv0j6m+3H0bARXLa1XRvi4H8SnD+HjB/EvT2m28p9RjtNdsBgHKS9LOqF/dIhtsN/Z5v/72/sf6TwG1/0MCwg3QNXbwZJtAfQMFvy41xXQO6cF18md5Gx+awQDmVA//mA8AflSeB37nIN4HpHoDStxCqQNz3gXUGEU7jdwRFkOnFSuKrr4PmL5LtxADwO3wTmKZgNH5xJK65MtJvegXA38O99OEHdPD/uHwToX0Eq8usCeOz2RinwPm+as9V9E2I+m2I6+mrcFxf5c8OALgJnDgXtVSKS+0fRJDpLc7bL6uvuHQ/jh3AUSkjnkhujGkjw0V6H16WPzrV2A4AJeOmD2zaVtcbsmK+p3x05Ro62+Kvb/FXuPgJ2H/zZ781PXT0rh6+1PaLb705/bOnfkQfZH9pOn3+3PQOvRufV6DwGeinWHbbDkN+x4AL29IIF+1wwhIZAtBK5uFv0fLXyA7R2ebxw3fQB2Humb5BL8Y7SvPQq/zJ9wDoCuBKDgCrxPyTiJ0PAL9Hq4DK66Cz4U92O6mU1PjdKNMjoxXn7ZfVV1y2n8/OIEA8LCOeSN6TZLhI79uf5a8NAAhgHQLYcuntoW2B2HigpN1lrHfw2EHhihIzc1Rx8CeKrtL5kTgieWfeJ4Lj2nsdf4Jx33SEDnTH6TOID9OBnz8Mf2TFm25wxd/AfZYeQnqW1r/zGvhX335revvCO+XbvPzErg4CbCEtKOZdM0ApOK9fzn5R/lnHXyHbR0+elu8A09n/w/Tw0X2HjkzHaP755r3JR+lnUXJ1NAAAovFHcat80ysA+PxpLc0A8ES9AtD8Iyua7yKRTakAGKgtzvPDvOIyvaAtLcRShvtz7KDYhnaN2ZuPA8l5IjtpQlexeI6jXAEAlQW2ul6Ya8X6h/IncgDggx2f7fIZ/z46uN16083lG7h3Hjw0naCbbXfT5xCP0Ddx+Wpgnb/3acqH551Pnnu7nHW9evb09Oa5s+Xj6BdoXvoSfS+XV6TUKwLrwfcj9LWDvN52nNdX+36H5W3+5CR/AP5Gmmfmg/9t+/ZPx+jzj/wh8hN08C/zztdfXz5PiSiWKbcDwDJZ2n3MdgDwOe5/Bz3C/37s7wv4nCeyA0NfWjzHQQPAv0e35L3CmmZ6oCsubaClg3E4EACQJWRZHHjGaxGIReJr7QFxX7aGCrzo6XqG5NfRQW8fvWmRz/jvowP+PXTGe+zWg3QAvIXWwN9AN9v2lgNj+jH23mfb5gM7f4j90uXL0wX6KDtfEZx651y5EuAPpZ+kVSlnL7xbBoJ6RaBEvn9UV2ut3bZhAkL+RDCoMIa/NXwTDX788fc76WPjx2+js/0DB6dDlIMD8kH6awl39XRVHpTxUgeAi9OPaQoMU0AAeCrbkLmeX0XxV35u/VVA8PnTWo4GAORinucqs/2gvzOxQKWUqX1DK87yq9zQ0kbFxXrgI1zzY93BSMrsd6L+x0SqB6XFqd7KBe3ETrAdADhZLi0iqBXZRGZRth5gPT6yXub46Uz3wE37pttu3l9etHXf7Ufpo+eHpsM0771v797parrxlu0ccJGVPIjxAZ4HgnPvXZhOnn974gGAp4RO0dUBDwwXaJ22XBF8qssUY+7W7qDhUewslzN+urLhaR0+4z9KZ/x33Xq4vPL5yM0Hivy6a67ZKAc6AOAewPKvgtAfDr0KorwMjgeA43E6tpowA9sBIExNun/rfjj+oakePixO9VYuaCd2AgwAYoJKKSMHKjdw2rAOUpyFC5mIAwLRw58KhIMr0YFKQM1O7kGIolWEt1ZkE7gWH/vhFRQ301ntHTSffYIO+OWMn852+QDIB0KeAuGpED5ApnGBf8mSB4FyRUBTPrwW/SJdEbxNgwGuCJ4/jSuCd+oVAd8h4Os+16DeYWt3iFM9t4lXlPAZP8/xl6kunt+nM/9DNP3FT/7yckPOwbV8xr/iapM+Mh4Azl3iK4D2KojZu4B6rG+nxr0dAPpsrbb9Pj8IRgsQHn/jlen36DmAehPYcmj+gx3Jia1A7cGb6S3O2y+rXxbX4rFhwTj9vWt8AUFjyo4buR4hqZ82BeQVLIkCUznsUCqxtYceZcNZOJQ4rM8DEB1X1CzhiQOtfGKujGNHVT9H8bTFNXQWyzd399HZ7oEbb54O7b+FDnyHJ5zx8/w267hjss4xfjfcKFcE5QBJVwR8j+D0yancI6Crg7fLFcH7Zenih3KPAJNhvePW7nnDG4QHTW5TXdXDc/ztjJ/afJQO+ndRHk4cup3m+OmMn3LAZ/w7+cdXNGeoLY/SFNA//vEPpueojdGf3w20XdsBIMracnI+4ThLJxs8APw/tCrthTNvOkPN/2BHYrQTW4HagzrTW5y3X1a/LK7FY8OCcfrb1/gCgsaUHUNyPUJSP3u+/Vt0D0C3gYDLUmqAUI8NIpyXBzwdrW62mgpqXELTKSBvZZ6Yao/DYMQGHi6vx6qeA3WO/2464B2ls3+e9uF3rN9IBz2sq4ZdF9aubvIVAT+YVO8RXCoH/tPvni9TQ+WKgG4Yv23uEaD1o7BqRub9yHP2PAjKHD9N85yg1U18xn/bvnrGz4PfXl5bTjfDV53jH0Uxl1344NL0Bg1oPAD80yd+WKa9sjxr/NrDPAD81Z/fTgHNc7tKne8/vUn71eNvvDz9wbOPTy+dPRUe8Eb5N760W5rYCYpceWDt909oaml5InvYeL1oSiXWN1wCyPdTGy+8o1T6MW4V/XYAoKyiQ3AIHKW1zPHzGf+1vJqFV/Xsmw7TDV6e6ihn/AcO0dr2/eWMn6dCwIlOu1JlWRDK9wjoTO08rxrCPYKzb01v8hUBDQLv0sG03iOozxH4WGtGeMfCyiYe4Hig4wHvDjro8wDIq3qO0BUAr2y6jp552M0c8L2N5+hex6Ovvjj98fNPTa/RPY/M3+iHsR0AfG+vIuGpxufpoP/4yVemH7z8LO1fZ8N+GOXf+HI/PCcocOWBte6fkNjS8kT2sPF60ZRKrG+4BJDvpzZeeEep9GPcKvo6AAgzKiitAyVeTe/tYI+y+bHuZhcmY71Y5w4KNEs87bkVB+JZyQ8v3czr+Gle/z56gInn+O88SPPbdMCrc/x8xn/Nrszxz8JYq8qDQF019DGtn6dVQ3RTmH+4PADwO2xeoIfKTtLrDM7QmRwPBP6v3iXh/PHgxzngr0gdL3P8tKqHcsCvEuADfz3jv6rcD/A8OyPhKa7X6UDzg5efK/cAnj756nSGnoHo//r+9rvJnnITeHsF0GduuW3uh5P0LqQ/f/WFMgXE03A8MI/yPGdUffeDB8iJrUDtxwar68FTy36/UW07PthwVI2aDwAaU0Z+1Hyxo8geTpRHJKiUkvXbAWCekpYxTjsvYSxP7tJUDx/YDpR1/PWM/wQNALyq58gtB+iM/4YyvZF1xtzNla7XewQf0LRQWzVEb7TkewRv8LQQ/YD5JjIPFLzMlA/9PPjdwOv4KQ98lXOMVvTwGf+99E1ffpaBB8DraKpn8e66eav5Co3vW1y8/H4ZtP6IzvyforlnHsg45v6v75PRD2J7BdBnLd8u/UD7xkU6WXiJ9ps/efkZ+h7DyYmnGN+jvhnlec6q+mCPcWIrUHuwbqoHTy37/Ua11Y/3r4hSSwGL/ai5bVfnJbzSAk55RIJKKVlPA8C/S/3ZHDl/TiCGhkk2Kt47BiDTN1xAUM9DCTMOi8RNEegRBcphR5NvNt9LBzx+cvcOOtvlA3494z9UVvX8/+xd27NetXXfDpdigjHYYMzBFzA2NRBzSToFMqWh4aEvnT436Xua/gVN+1+Rad7bSdLOlNAJmNQQY8DH93MM+IaNCTZdvyX9lvaStj59V2zmfNtzLG2ti5ak/WlJS0sSOkJ0iPcsyKuH8i0yvHHzhm4UuyaLxehQ1WtIjpSA+yiOmTgrI+wLYjKCInxIFnIfExu/7trt2fjNq0dt/JOdITNp2dDpQHFBplXpdN6Tjv9/j3/QnZA4lNXwKZztDwGnkf7kpeUawLjtYe0gnj8nLpzv/ihXcb5z6qPulMwgr8u39JV8V3zSz3i4HRLcKBgJoZFZxMFLeoI9fonXgns+U9OXhGSsoUnRwkuIjp4vidwQCQr5JASXjpelAohV0h/x45IMHfHLCB/eLMGr52Fxb0xePUVNfosT8KPmzmJ0/NhHcDouEmPtA5vZdsuoX3fuSh3Qxr/oIkMubnhT05WM8rHwi/t/cQzGMQk/FdMP8PpP+t6HfxB9XCiAfxAFgHCah4vtUEBhvWUaLgukaVfBWJlD+d6UPxx+98VXX3brUu8fykABXj8fy/fy2bUr6lrcZ9ZqhwQnVSasvVqEiBqW9AR7/BKvBfd8pqYvCck4yM+3Fp6JaxFSBj6WbJEMPpwOJK8ASGb4FiHEhaXcAb9MJ5nnV8WrABJ1jKUEZuDCwRF+D4NwhDBz3LdZ/PhlxP/kIyti3tgh7ozeq4ceLT0WC4miI9EnBpRzIZlFpuzI0NFeljUCeNl8/gWm8zi5814x89yrJiDuZZi3V09eNhQ9mKpk8VpGm2cvYYPbuW5VzFWnPlvvzl++JHKGA/ASrf8g0mfk0xN+px3/LAoAi+twR4UJ6ivxvLr59c0++6niNpOdijojqhddEEcCe4zCGtJ1Mfvg21j//FK3JuYeDBbUrVhmkP4qTM+39v2m9mFWno6ppZger8VncrjlrJGa/Ky/kr+nH7CJBb5EazIIiDU5Ermvl5J9Cd+wCgCViT/s3MXlJNtkwxa8enbLGTVQALvEu+dhsXdjtDvPnbtslDzE6Eo7YdlYg84EP7avb34tZ+SIq6XIoOamb8TUIupHZMGI9rrY2/HJQDnimODaB5iXZZZ3jvjRsV4WBYTdzbAtw8SA0eYZnZnEDW0iJxRF7QdQS+/LN+sMAJ0/7iOGKyRMIDCtTfQUv8lK91/ghVwq2F6ECi07MCBXUQSGWuYAAR5j56XMMBnCqwzHkNuAxXL13GrfTWofEno6ppbCebwWn8nhlrNGavKz1kr+nr73gTqAlaLJIJDV5EjkxtHnY8kWMfimH/7bP8t9ACVAMYpkn1AjY8VYLjGS8MfkkwgcK08toAoeiexH0iOEq+Yd0qHukE7/afEF379zRez8cjhZXNQMfvzfnFdPOFf+Sx3ZHj+/pqNKLMLi3CB1rxS54IHzzSy2BiVwUxQQHpiBFj3iRz5QPNhZCju/uaviSAu4q16VIy1EMWJfQ9jABpOLf9J3TEho8PLzSB/CrAoAfu//efQPapbSKyGlzdKT8kGaf4tYRaJ9rYlNj7hAB9cyMaOtIzhIWVHGhyYg2PixvwQHDeL7vCmzHqttY2YRo9ciWLJFJoIbciYnX+Xz0Yfvhh8rqEwnRpCnBTfsQvwWfaSsZ6AIxraF14SbpIy4MP1O5NPZqApgs+xc3bZli9j3V7rvP/FU95Qcz4yDyuDbjgrqV5KrvTm9hBF/GGVfvX69w81SOLwNI1wswsKtEUoB5pd9D8uRCrIIu73vbhkXoLF28W198HvliJ82foz4YV44pe6pXIvgERajS5razLokJSh/L/ZTm9kEhEXQX737O72X4bIcTYGzcdKT8kHaKDkSTR+vRR+oUrn7XHrxMuMeMEVbfBIbLxc5LBrOfPKKZL5LBRBqiPVRGxn021kVgFVsjFQZFO3uExIdOc4Kz/h4dgSKfo+AMeGoACxsfk8uInlWzuR/emWP2vs3i8vnIs7qMUF7EYye0PGfl47++Cfrats+IfbtdTnR85J0JOgQoSRwhALs7/C1f1RcT3eL6yVnBEjH3oN+g/ayuK2j6KJp48eIXxefxcSDjn9N7P1wUXWH2PVNK+WH5sraqo9Evmn+CkDMQPwck1D+w0z5E6MF93gl/WTwUj7Sh7BVf8Su4SX5fLlIx7BGn+CMMYz8CrZFghIkOTx9mT4ufFy8IE81nyqA/EM4fv3Uyl9LT/lsOAVA0w9G/j965vnuObmbFz7tGGkv8kFnh9EuRohXxX/6onTyn1zGiP8TGfGviTvjWndazB2wq96QkT8XE/ERwASjF6mI0sIGLGxEg1umbsASV1U9cgF2el0jGG70RZZtEt4c8cPGD5MOOno9tE5cCjHzURu/2Ji/EFMP6qy0L0tujR/QJD+cWU1AxQxgqQB6zTP6Wxy/nfiFRX4F2yJBCcrPJOCV6Z5/HT4uXiOfdgZR/uFymRQGtghBI+n72TsF0AcETsOMyxGEx2vxKeGUO/Ap4Z5/nr9BS0IytgrB5i6Yf56RKxn/7sWXumclVLdGGUkv8sGiKk6wPH/lYvexjPRXpdNflRHvmvjeXxSzx+d6HAP82WXxVzu+JA1+KLxO8l65PIUzghVRBtifAIWAGQ3LYfWRWNwWMZQr2PivRK+esAENG7n6x1ZjdgRF0Xwq7Z2Sh2siwekF9NrUbqDjKQCWxMvTlyNgtOARqyRkBhq2OlZDnpFPIvdyk39LjjbcODHiwyJbn5DkI9mscM+n5E94CFvls6miF8szkbcWnxo8yVfPYMMpgD+Ts3zg4//83ie7v//+K93Bld0L2cmbe/XAxv/ZFey8DTZ+uDPqiF9GwFxMs2ZKLec+BjQ0/mxGoMcuP9w9KRfOYEaAc3m2iivrd0VJwLsJ5qxbvUaAjhwLhjBp6YYzjPjl+AAcQfFx9OqBLz+OoFDFJ0qCT+3DJrw31LQkRFL1WY1W4EsF4Come2nVf7ueh+uf2czKPx8IWocaM0jyWY6MaDg5nOShXCU94SFslc/kHV1Ni1YAP5df3LAEqYAZPHtNxQ6ARJcgsUo0qMOJX+OTZRxfs1RhUgXoLV07ZeT8wt793d8e+kG3X1w+2w1FucYPg1eP2PjFX/24mDaOS4ePEBe4w38drp7o9ND5s+MryjFQUZT1LpnJwD1TZwRyHAUWiFe2hTUCnNGDu4bvF68hnEhKmvGlnw8mygVTD8w88OOHiQc7jc+K2etTSYMpDIrBLrPvdf59CZryW8VZpE9eLT+qN5iAZpwBHJZF4NPHO10ElvLY90cpCrF8Qmpmn27kw8nVcuX5J/7GMUaisi0RFM5sqZJr7ZDIScF8QtiGj6bjZ1HwGSaTTD0g0VGuyeBG5cmY3GyHMv9ISoBVsLF0kVq9E6kFH4UnM4CNpQBwvMNu8aqBAnj92RfVfMIKmiXEiB8ucbDxfw6vHrHxo5ODjR87a2HywXk7MPeo6xy/6l6mxffFD6SH04+y4e0iFjmaGjdvPSHlw1oB1gge1KsXN9uxFYucEcBef0NcR6HU6NWDzv+cdP5Y3IUCOC31wUPnKH+/TEPxJp5VnEUcmxo9qhc3gf3kpTkoALmYJnkBZXJkr/UOqkDUctQ+g1q56vxZLcxnqQBQI2X9sn5YXyEs8Zg+jM92qNFZxrdSAbzyrz+XfQAsqEU0IaUPw5lqYUkwkk8FXWgmlMOjJ+qBDLbKMc67xWauCuCZF/ScH5N/ygg6PrPxy4ifO1ZPyqgfC5wX4cMer2WED7u294ACsA8iymHFGigHRWUnENYI5GIW2TR2/z3fDcc0i1kIC9wwEeHQNlxHuagZgS7XSplwttDFq1e7M5fkSAm5iUyvpoQfvyzsog4w6ueIn2Vge48opqKyrIkuxlJFFaB+whD9IVkDml0BvDnaDdTkozRFggJS+T08pZPeh0PlyjAy/h5qb42MWvm04MynhldmX6sHn06+6YdvKTES8Fv8SZXwfPPBryIAABI3SURBVD4pnZgMa/wJD2Gt3Pz+DdtnK8WKCVk68Uu5KoiRIOEL542oAPZIh/jC4/u7Hz/9/NQKAOYNevXAtn1JjiuAjR8jXHR8sPHjYnaM+P8kswJ49VhDsuXyMLWMQqwZs/SSzDB1OsqLWvSGMpkRcI0AJ3lulRkBTjDFzmLsMsbsYZZHbfwy4reLZ6S865dw8QxmPmfMq+eazIrU1BXUX5ZlkL9RTC1bRhherfgWGUYbyAAmIFUAogimeXQR+PCbejk9ZgCDRyIUYhUJmnUSz8NT+rCE9Y6F+IFfi08+ACE1w1Y+LXiLTylfrR58Ovmyn7R3i9TKP8wnyeHhKd0Yx0iNv8er14/PJy+H9RsZGrmXclUQKa2BCwVgLBlxYcrIODh4Lniu2RI9yQKfMp1wH5YVmMmRvZLakiUjzADmoQA44l+HVw9s/PJ3Qsw86tUjB2NhV2hu40/1E8tNARlmFUG5bYaYwUnGkPWDEDMCjPYxI4DXEBaIsZlsN7yG5OYuHGWNY5yBM+2DDh2eTTgI7IxcPamX0YuZSy+akRE/zo3p2/jR96MstWJQ/po8LXiVcWRY5hv2AcxTAeA4iJQPW5AC1ErG9PhdZGSEtn5PzfqJH2CSL3F2sQZCK5/Z4ZSmWhGKkMSs4FmyRTI65sOwhTcePMlFvnkY+FTxqoDAp60QvJxF7gbeiApA1gD2yKXt084A6N2Dkf1JuVULI31csahePfJ+QWzeN2RETD9+V/m9ike6vRIpa3jCJ1UAZIcc8GO0NQLp9PUGs4celctcduimsm3iEQUlMOnaAOz8WOvARjYcyYxFbsx8sOaBHc3m1eNG/KFEWTFN3Fk7jl7Pazz7kTLfpQLo14/Fy4oyECKztlObntnxF8B3HyYxK3iWbBFlkOg8v/wXWeK1+AR4STecTxWvCgh85q4ACvGsnBZxKKV8GV72Oq+KpRBl/gYJkSL/lLxVOjybAchGMJz1P8kD7x7YsY+dO939+v3D3VG5jQoLvmbjFzhGxmGsW+Ec5bOGzNGyAhbFyeA5eXhH549YCOESGryGwuXtKPdf7Ptz9YJ6SA7Cu1fuN5jkwUY27GA+KvXwB1kAPSVKQOtAvGBmuWxeJW6Ur9WBTKIIggnobzqsBUzz5CYgzAD4lMXIWjJ7JR1/Ly36Ek4OgfGs8HKEQv4hbLXD7HDmV60oRUjlrOBZskXIeCR94uvQ5SXwKeEt/uPyiXhlBo6B5VbBa9U/mOkagOOKxMQ5B+l7ghNsBCEhe2WFGfbc4ca5kn9KDgpAFoEfP9D9eAoFAC+fS9eudYdPfNj98q3/6o7IpeT9nbvIqVnxsfyLVQBDckAZYEawqXt8x87uNVkDOSTHYewS0xDOQJrkwQmduAf2nRMfdb//WO6ClZE/bfzN8ld/QEGCFn0L3vuAB4vU/36XCmCoiuwDHQJaWqsdpoXjd4E2Aj3+8L3iHx4dWskAi04HYXZsc2STzUVicfJ+iDjIKzwW0deUTjjDgFfCPb1hDycLuMYnUpYZkKWGxraC16p/MFmMAqCYSUKmaFiRF+I08BoVZtSRj2en3KEA1AtIFMDrUygA2Lwx+n37+DFRAL/t3ju1ah2fZR8jzQYw+WK5yCCrIEMjnGGGx2Qfhh9Tv24h117ZK/DXTz/XPScKAFc7YgPZJM858W56Ry5kPywK4B25mxd2f/wow+MlLsUcD17SeQmb9Uv0CiMk31IFYPIxwjDUD8XWCaWA+M62TO+ky0PPJ4eSD9MLfkUCMX3Yaoc2nPxCRw98dPowS+LEXux5wZHseGBaxYmkcD7A0dswyYaBB3kMhP5zE4QiQYlScT08pee8W/Ub8Nvl9/mlXGJ6DRwR2/zJsWS0VAATmoCwqInDy34v1xG+8bvfdu+fXmXtFmGrYdJ3GBrGmif74iw9zyHDy8F8D3J4LlAAf3XwUPe8nIX0uByD/YB4B03y4Gaut9H5yx9mQzjALT0+r1LM8eAlXcoBsWb9Er3CCMlLBcBKQn2muMaKhAweX1vtUIOju0cnf9edYp6Udajwd7eEd3Z3S6d/l4To/FUBCB4eVQBiZoUpFutQejQ1QnGvxuwcf0jH5TzBFCtEebnKBOWdiusJUrqi9f4LeHV4QK2Vn4zq8CiHF4dkFtbpmT9RS0aiAP6JwzbBKhFAmgrYglcyKsh8QuI/TF/CA16r4FaeXnZ9E9B0MwDsbMUMAArgN917ogBaclThPbliiTSw5FrBYzVV+UY4gxIvzAAWpwAsZ43UixFKWocHPpS/HAkzH4/nU3tvAxnB9v/Tl+a5BlDuBB7INgoVW9oavCerRocBiZ+Hp3TyacE9Xknv4ZXuYYzvn3wYppH+ZtnNDtfk7fdt6R6574Fuu8zQMRvdIq7KOJ0XiuA735EZQcwcnRWUABQA1luuwAVbvM0+lb02a+KQ8IncVobLarBOh1mCKQFk7aujSCjL7wlKOJjiCXiLg4dceh1xTPABfyc+Nb0NwZcKYIoZABQAZgC/XCqAygyAH92sP4zAhx/u7awADstC+GWZGYZ9AJN1HGXH5OuPbwxTR9PKpwU3jhpJfJnOMPLx7AicSAHgHCuM6DfLmVzo5DHzfOi+rXL73tZup/ypApCNjOGEW9mrIs4LbH9miE5d9+DcwMm6cmUo7tKQTn9NXLJxVzEOXMQsHedvhY2Hcrjg1+UFQuy4ybcsvy9wCTdKjSwOHvOpZxDz9/JSOoZ5PSJ90yu/kBmAMeZkYJiRoVW+2Ba8JJssn8TfisSIhiU8gnuAec0A+grACSEvQxXdF3C41EroWBV4vXIAsYCTOsNjcgjDmkAwAT03PxOQmITsqQhWrZdIOCuc+bf4pO9dTEBzmgEclvWQcBbQiH0AVk5Kmoex4or6Cwkjm1VZtfBa8CDPJPWXl6D/nvPBO+6Uxgj/0a3bun3b5VhzuYRp271b9NwqzAZgBsIGRR5kWLuJTpWAzASgCDAbgCkI63OYEegd0pdlX4q4Jp++KEePiFKAIggLxyJhUb+U2gPK+m7VXwvu86nxNywvDpNTWDJIMInl9e+AEb5UAHOYAQxVbJ6m77HBqu2aNWiB14Iz0wyPyQzxYSwVQKiNmRWAuMH+SnYC6wxAnANGbgSLDVBvntjiZcMrZZ3OWraBFxi3+LQ6jr4CZc5DIfkgV4z6sSnxQdmHg5v39uCIEtmQuHPLg7oh8R7p+IFfFH2IcSUNSuFPsjCMWQEurv9Y7thY/Wxd75PGfhVsTMQMTRXBIA+fe1lPrfprwZlpDa+VP+ljWAroEFj/LrH3ovWtM4BeokabjEngBbbUIjkmFOlGwYiGZfaBsEwnmWc8Ck9nAOICCTfQWdYAppoBmLixPHyvhNUGrBTQ8Bu2EuDNVwEc03t7i6GVbxYrpclpKT5CeKMYY41wPOf4ZnLJRrBZZwAjFQBztwyZoGHZjBFvGF1oPKCkD+xZfy6zkKNLqtETqc4nYrQYCBp4wH4PO78eVCjOBwfkKJYVub8CO9Qx6oeZB6YhXzpKMVnIjZq4dwJHtMAktCqXDX0kR48fWzujawSYNQDPHsvYIgoqizcrnDm2+Hi8Ug4Pr1VcoU59tqGMG08BcCfwxlYAe+SH+OrBeZmANrICOBVnADwOum8Cyn6ofI1h+cOOv9CBH2og8YCSPmLVAFlPUUUz+Xx+MTkFDQaghskHHf3K1u3dgR2PyblUO7vHZfS/TWYC6t/f4JEymzyGGQFMQmdlzwpmA0fOnuhOyHHkWCROO9WFrxXTIppZKdqscJahxcfjlXJ4eJKf6SGcXgGQTz1nxUjgyQpE9klwT0944m8pjGg4ObyTs4BkJ3A8CuL1KU4DhRtovgjshOq9tEdQAbloKPKwagkRezV4kaIQSy0riJQ6A3hVNoLNxw2UCoDsowQmCNPzMCDUxZwVHvIb1Q6Hdj3R/fTlGbyAzpUKgKUsy+UrhHAORvne65FiAYwjI4NhKidHt7PWX4s+ipEEN7lACXm2yy7zA3L96oGHV/RQwp1bHtALi+Ddk+Q1srlHsGcAawNYJD4pmxU/kAMKD58+LkeUX7B9BKkfyrOP5WdyeJU3iyiExU/tOAwnmzKM+XgyQ2vXUyScgj6sAVhWWYQly5L5msA+55ROTIYeL9Vjlh7RSz4eb3I4FQBNQJMfB71UAKFx/D6Ab7MCEDdQVQBP8COdKPzjUgGgpy/qDB08bP6w9b+wa1/3lCgBNfuI50+7QyvYzZwAJXBB1mg+FFPQWyeOaXhRDjFEetrAmGcTymWlKyNKwOJ/KxXAy7/42dfVESjro1FwouWakemsoBp86AMiLcJEz1QTSBMmgTsvoGdnVABvhn0ASZFRvhCO+6E38XxxJbs8wb/7N5GlrKAwAzgYZwBiDpp+I9iHuhEMO4GLfJlSAlxF1csfCAfEH5O+3Q66BjCjAvj33nHQ/bOAnJDyUpbDV0yC+3RWY+KXwSMg0RPT480fzny8AMj1fvH0Qef/1COPdc/Lkdu7Htiurp/w8LkVD72F4Cp6dP1M9/76qe59Ud5YHIapCH+tem7VH8tVwyvTjYIRDXO8+u/DkQ19YIFfRLN5YS+DTUsFMNlhcP0ZwBuiAHQnsP+dWauM23BNvIz/7aQA3pZdwO/K34ZXACfjGoAsPtae3u8uoviGTXCf3uqYmF+itxRGNJw/3LHXDgh2fXj8wM0TyvXpR3aptw9s/s3vPGO3iFesCZyTNYGj66d1JrD66Xo8tv3GBlUA//Iz2QfAqraIJvg3SSq/IBIG/JJgZLoj7r8YH4uMxacUr6Sf5wzgjTd/HXYCm+wxP59tgpYCGqxfwAq5faBUAKbRyaXC3/j14PACenUOMwBVAKtBAdTFGF0vLFhPPLKKoZVA32t4rQ5mCD63GYApAOwE5tOS28ONqkiOCUy3hmcCKUNYq59x67lGP1R/Pue46Cuj//3i6fPDfQc13CqLwPDvvx0ergnAM+gtGbgcXTvdnbn4aXfl+rVSvKJ6Q0JZPx6xhJN1jX5ceMBrtkNdAGXQp9/08lIBsPbHCv0MYKkAlgrgVAcTEDeCDd4IFr+s8nfpOw5+gFU8ot/GCgCbvHDp0DM7d3d/ufeAnjSLg9z6nQ7LeatCmHvOy4VFR9ZOde+dPdn9n3gHrV++EExBfaFY35ZW68A9Ytl+ZFCjHxce8Jp1WRdAGfTpgwJg/jHsI2Sg8GrltYhDS/lPB08zErL1fBL/ceEJj/sAXsQ+gBnXADgDSNyjnF5cgsf/ERibGiOyDPACq6wgEmgI/L2yCce8gGZYAwgKIJwGyhEm2y/JlWImgJOILx6vXoyAV4O3vt8+fF4zACqA/hpAks+Xy0pbJPuEFj3rmfxY/4kuQUKsxp94LTjxIrcsI9Qr3D1/sHd/98yje2Sn7w7d+NWvb8/h1r1hZ/B5OT8I6wC/OXZE3ETP6b3ebn8AxbNqsQghGqZq8PCU7tDlpYUX4NPTx/zqDEygDasAdCOYKIB9M+wE/nYrADEBqRvok3I72PSLwEsF4GcAG1UB6Kmed9yl143+6KnvdQd37lJff2z0uh0fPUtI1ms+OH+2+48P3u1wsc9lOTsIp4oWj/XXFnEoqZ/18JTu0OWlhRfg09PH/OoMTKBBBUBoU3M3MmjRJ3JfIVn9FBWW5LMYIy5M/JmMO4GxDyC6gc5ZATAXhu3yZ+UmIcMIps2fyUUYC1pwKytASYGnawALVgD59QBJvhQzgYpCyc+kIj9RW/Bx8LAP4B9fwT6AJ4g+UQg30L4JqK8AyCgVIyt3REhwo2BEwwTP6LPXRBQApEvuiQkjxDxeDmVHRT6j4LhtDp4/B8Xr57UDh8T2v1M3geFMn9vxgRnohvxhb8D/rB6VTWIn5ciI86oEWG6Tu6hnn1Crn/b3OV79U45aPpS3hEc5vbhkp+EGVAC9ncBLBRA2gukM4D73YbReuA8AM4DDciHMmh4Gl31wZqsO3NJ3mGLhKxzOrfUDasHJdRTerAoAO0v/+8P39D7kq9e/0OswmW+/bKHEWbmJWEk2sMIbSERmpoJOiqwZepgRo4fbA6YoGaUUiaVExKgA9orZ50VRpiv3P6gKfFTdO3bxhUc54Fx/HOUAP/0v5dRPjNihyMJpond099x5t15jeo/sNIZrKS+MGeJZS0O94KiII+fCOsARueFuXdxEiycVNYJ8QtnxBrR22QOfGn2/jsGxhVfCo5xe3FiGEPw/AAAA//8HdxFEAABAAElEQVTsvYfbZkdWJ3ZbnXPOQWp1K2cxWgaGWS8zYBbwLms/Nt4AzBrsdc7pb/LjZYeBXcPzMMBOBM2Mcmi11DnnnNQK49+vqs6pe6ru+ep9v6CW1O8rfV1VJ9e5dStX3Xlf/b//1c9/3sXfvBRWwbyI8fHCMUyR2EFk8Rku/BJauoJNiFRellPwJcqM77rVy1d2uzZt7Z5/6JHum0893z28cUtPXjt656O73eWbN7vXjx7ovvPTH3TvnTrWZJrXN2CAuoXvEv9w7iBQETGiSdFV6Cf+wQ2bu68/8Vz33K6Hu4cQX7NshVCPFJ65erl7/fjh7s1jh7q3jh3sziKd1VQWBJkZLyoKuiIpVJJBj7+GZ85+bMjPz+zY3f2LX/rVjuF0frfufthdvHm9u/nhne6TTz/pPv1U3qYkzc1TxDfQPZNGpwxMY5L3FJmoL8ZiHnjggW7h/PndskVLurXLlndLFixEebA0RrCT+OiTT7pbH33YnbtxtTty8Vx3+trl7hL8ext+ZkW1CHJXQ/7mlWu6B9dt7LYgXL10WdDniJwSfO3O7e7k1UvdvjMnur87sr87ceUC9BTPUCRU2akAgTJn2+IzXARKOB6dJ2dkf/cEzJs0AJMGYDoNwLlrV7q3Tx7t3kQj8AYawzNXLoUX5+cdXx5boLWYV+ACUCSFT+T1ym1CRYYanjn7saEXZKYNQF/+JD59D3yKSveTTz/trt651Z1GhXz08vnu4IUz3SnEYwNwN5SvxWgAVqEB2LJqbbd73abQCOxauwGNzopu0fwF3Xw0ROP87nz8UXfl9k00ACe7v3n/ze7QxbPdpz//dLgRqMpnBQiqc3m0+AwvLRyPzpMzVL5LTYWB3bxf/L/+K23uXAHJvnnOi61KNB8aKfUl0vHwvtoox3OIVBxiH+nyCGAvRgAvzHwEgEqw1/UVVSZ0/WqoKMb6RdEF3KFScrGnouvJ4Qjg789gBMCX8oOzp7q3Txzpfnbo/e7EpfPdx598HF6ebIjErCXZDIFLEUxpAQt7Cl3/pAKS5RaMU/BPGoBhX33W0NDzRy//GCr+V44f6g6h8mcZu/Hh7e4uyhUbB/YtHnhgXqjol2KksXrJstAAPL8Do9j1m8LIY+nCRWOZ/jFGbR+iEXjv7MnuL/a93n1w7mT3kZZjryCKimF8Loct/KhyhumyHouv4YKXMNmF4D5tALakKaAZNABHPshTQA2P+xWXPJAYunSF/OFi1ZOV6Cu6npyZNgA3MHQ+jWmfQ+dOd++cPNIdv3i+u4qeFOGcJvvo44/dEUE2QyycNAC9p3dfRm9gCo3TPftREf8E79axy+e6Dz/6qGMFXf74njyAvwUPzO+2rl7XPYfpu8e37OgeXr85jASkVJV8Q2lO93yCHv/7KMd/se/Vbt/ZE90dNERRryNJwRoxouvybdDSP+sBW3KE1NJlPRZfwwUvYZKDYLQGoODLSWvQQM6E1IRuRZeocgYK+SJFwRoRTAgzv4AjHeFhBIB5/+d3cw1gZg3An6Q1gGxFimWAGGDCdv6nFiD8RbWJpylqNBIANhVpHoQPZjIC+BhztazoWemfu3a1O3n5Qnfo/Nnu+KVz3SnEr9662X0CGg6ne4ZF5cmg2i4XEfmaPX0rsS4HSUxPzmQEID65t+HZ61e6NzGafvfMcYwsT3YXbl5D2cGEojMfL43AKsz/b1uzvntiy87ulx56tNuxZkMYSduSMHXeqOPgxTPdX+5/M+i/hjLNxqcuP4XUIlmW85pf7IiM9w4vdtzPDUBYBEYDsGmaawDopXyhGwCZAnpwz7QWgaUIsad0By/LhetYtLtwrjuKhTtOB53HGgFfpJt37nS3OSLAsJovWnih04tTvT/SgtWIpG60F0dsG+UFmzQA4q17Gx5BmfnegXe6d7Gp4ixGApz6kY6OZxmfLxeFVyxZGhqAX3/s+e6RjVvDOgBHCOP8DqPj8jcfvB0agIs3roVF51pEIbNIfuEbgNJh7gMoPFP5QQQVdAKWMKOHJWS8ckjEhjVhwNfgeWEE8CAq/bgLaBYagJPYBZTMr3MxjFC62kCbr5TynoMHL4UM0ekU0AwbAFboHEKzx8SdMNxVceXWje40FoWPXMCIAFNDjF8FLMythiF9wy++Q8UjIWy7L+rx6eZ1z+6c2S6g0teT9PQ88P65U92/e/uV7t3Tx1CO4ry/SBoqv4KT3UePbd7R/dZTv9A9jpALxQvGXAzmovP3D+4LDcA5NEAsy+UvlyN9gy1JBW6XPwrIcq04qVh8fKT3/dPSDw39ReBKvae5gFf5FkEFnYAlzOhhCRmvHBKxYU0Y8DWYDcCK7kHdBnp/NwC/EhaB93S7N8a5U+vU8VNsDD7GYh2nhi7euB628R3jiACNwHkM8dkIcI3g9t00Igg7hrKeXApSLAMyUYhFRP18C7LeVE+JiWk0AJg//ufYBsqGYPK7dx7gNsxvv/633TtoALggHKcO01NqPGhWgI9u2tb99tMvdU9t3dVxIZhbUsf5HcO05Q8PvxcagDPYecRyWv6yGU7BrMCtcjpTfLRwzhuAMGyHLk+RB5eOnLRkpUMlnR2rkBDx4EKl4RiO5xrAXDUAYk9tTgWJ+VOGYXxGO3h1UFwNcHdpJfY+fhemgH75sWdwDmBPtwcN4jo0jLPx47ztp2gEPsQi8K27d7BGcKu7hMaALxWnh46hMTiJ4T4bA44cQtlKixmaHTVEDVfIUMQtf0oc5dTyu9QAfGPSAKiv7k1kH+b+/w0bAEwBcVqR5aj8TfWcH920HQ3AV0IDsGzR4mk1AD86vD80AKevXpzVBkDyMVT+Is4rn6n8JwEt/paeIf+NNAKYNADi2i70bsNBMFkD6E0BCZV9bIA6T07pHLzK8/AKH78B2LZ2Q/eVPY93z2EK6Mltu7qNK1eLulkNZXsf51WPXbqABgCNAKaGuEZwHXu+OdTWEUF46fsvfvKQOmrYtKGCbSmjAHVXDxlHAJMGoOeSexLl7p8/e+snYQTANSNuMih/Q8+Zc/3c+88G4LfQAHAxeOlCTgGNNwI4ihHADw7FKaCz6KzM5hSQ5GOo/EWcVz5twW/xt/QM+W/e3/s//8ufDyFEWD9s0bXwrRFBzqDNuNgwG/LlHMALs7UIPMo5AMn4cLYE6zYUzfyLXO1JC0A4U6jged3GVWu6x7c/1D2PBuCl3Y9229euL4hnJykHfO5irzVPzV7DiODyzRthRHAYh27CGsHli2HXkOy/VjPVhAJSJGWEmcuPMprIUPmZNADGRfcscQidgr/CLhxOAV3EDiCe/PV+/efIqZ6lCxeHbaC/+eSL3aObt4fKf9xF4CNcBOYiNEYiF7GhgaNXKVelHXU5qwpkZFGwRgK85hcNka6FV2orVsDuTI0SpBqHeiYNwEx3AX1BG4BVS5d323F45hnMfX/9safDgbiF0zhJmQvVaDHdNYQRwVE0AJwSYiPAEQG3lN4c4RxBbjFFZ+vFiXT9ikM4Jw2AeOLehjzx+zNcKfLu6ePdYRwCu3zretw1NmCWPEdOaS5fvKTbhM7Mk+j5f33vk91DuB6C+P5054AIA+LpdTZA38VJYDYAnJ7kOtakATBuygl5ABkSYx5c6bTF0oii+hFPTt0yFnKKZJYZEeSfkxFAWSMVdhRJlCsL0VQBz/bbmOcfoWrhqZ/b51ZiD/VjmP75xpPPd08gXLMMd7iMeZJSdI4acjox7BrCiODmh3lEwOP/YdcQ1gfOpBEBTxaTVv0jsQxIaiNgRPeBJ9NPGoBRn9zc0l3ByJA7cd5DA/DKsQPdCUzJTLUWEKp4PPBNmLrkFCYbgCdwGGzjilV4ulUBcY1n5c8y+cH5092fv/saroQ4Hnr/d7GG1XqPcnlz9ClYI8aOzC9gS1fjLd308VEO8zfWCEDVO5pbDsvPxWZU5EroyanVFnKKpMjrv/CTBgBegSPDSUr0+Hes39i99PDj3RPbd3W7MCJYv2IlttEt6hZgaO26Mzt2RjG+fJzrvR3OEWBEgGH48XCO4IKOCOLJYpzM/PiT3COsDIuAunx45mX6SQPg+eizhfNOHm4Y4LTgK7hbiiHv6OG0IcuI7AqKc/7zQ0dlBXr/O9duDCeB9+BgIy+GI2ycH6+Y4FUT+3EFxF+gAdiPk8C8GoJwrx4S+bm8VQUykihYI8IawswvYEtX4y3d9PFRjjYAIlZCNcPXEEhdBxV8Kq9S4AKmlC/iZaOAb0ctP+wC2ry1m9U1AFGjYcpxkXFNSgaUfjji5qsg9+g8ONmJ498KjAI24zj9ns3bumdxMyh3BHFIvWLx0khT6JrtZH+N4CZe9uvcNYQ1gjwi4Mnii921EU4WZ9uip303Z/ykAcheu5cxjvS4YYD3/xxGJ4B3AR1Ar/wMD4VhWpBrSFziCnP+2OWzYcXqbjeufnh4w5ZuLyp/3g66ZBqLv9ytdh3nDt5Dxf/d997oDlw4nU6w9zcjRM9471MuZ/KGC6+kk2c1qZGAyPyJruh61XhLN3086gEuAos4CdU8X3Ig9RyCmkNERTqTQsKihwCRr5AjYgQ8aQCiR7zn4MHFj3wO87FbYhGmfbagEeAo4GE0ANuxQ4gvGE9YLlu8KB2swYhAHK8CZj/CSoC7QC5cjyMCOUfAnRmsHLhGwOF5uBxM1DvlyTc3MhAfTwJPfxcQ54qlp0qbZMecmDb7YZXZqMIBj6p/huy4pC1eB80F2ZUoNzyMNR2ZfPaX0dhzTeAgKmPeNxWuZmADgJpq4YIFcd4/NQDcvMCe/3I0CtMpn7yD6AwWfTn186OD72Ia6lwcaVa1Yuw0DfkzlzPJsTBLOnFpUiMBkflFegtv6Wr+UfFOA6DsvmQhCWHT8UmOzVZPhCI00kP6jjdESGRzh+WQIIwAUMm9IHcBzWAR+Ns/wfcAsAic9YpFnv6Ir7C1ABEUQs+/HlyZC0VDc6OUwZd3yaJFuFd9ebd2+apuA0YAO7CYxsZgx7r1YYsoRwQcfjd1qvLpRcoRAXcN8WQxG4K3cPMoF44vo3GIu0SqDBqlbVvlJPD0GwD2UF/D7ZUnsMX1Nu6xZwMWuqq0RM3TiLFPEo3HL2RJnCPLAStzPzKg0LAP4A17P5Hii9H7XoXbObfjXh6exg1z8SwvA7RTgWRKhg3BdTT2N7Ebh8/6LvzKxpVTkzzotRy3gXK6h3v+p9PzFxsuYrTJ+f93zxzr3jhxuDt7/XJoaAQ/FGb3DOcu44U70Q2Tw0cRoc2G0mkkCHLlJjU1XvTHcOh9GBwBCNsQg+D6YZMuWWaz05OgCI30kLPdAMSTwLkB2Gp0tRK894YXnb1+5ED3bV4GhwYg9vrk8VHCcD4EXGEbT87zrwfXPBSKpKApXiKJjvjFeLlW4m71MC2ExnHXhk3dVrzUG7C4xp7dMrx04aj9/AdAXSgQebMU0qNxjeDD7iBua/z++7ir5dTR7jx6hbdwx1Dl58Kcpn9gf7wKYvoNAKcq/mrfG917OMnKcw2cqrANQGHUgG/s4x+mD9D8z4AU644pnw3kuHhVrxGjq4Im41kJswHYi7t4fglrSg/hrn5O14x7P78o47PneyUNgoyu2FlZjFEAr3rg83XzIYKcUBZ/T6Es8fpp7v45gmd55fYNcFS5NFLy8xqmy3hhS3TD5JoHqUEyv2XI8EJuStZ4oYvh0Psw76X/44/ccwDqXGuHlcpU0twmcygqcAUIOocy0DcmO2CYn8+1HgGM1wDwzptrt293b2DLGi+D23fiKAopFqkw/Jefa4dvVmTNjCIqhK18C3GTLunX5yqMEkI/X9gFWBzmbiBOAa3FojDPDHBEsBtzrTswPbRxFaaH0BBQnytLZM4wDBUApnzex0Ghv8QiHa+e5giAV/bmn2Ysg0LMOnzIvbEB+Oa0TwJ/gDts/r+3fga7job1i7sfc/tg/2dtCJgBUOaARx18AHvILCDUX63n4pYV1a2RvuTa/GQPpxJZMe9BA/APHn22ewz78eNU0IKKf1SANAIcFcrUGtU9MI+V/xSN2AgKuKjMXUbc/vnvsf+fV1FcwRQjRx7ZxcM+GB0vhiQ5w+JAZBFZfsEvyRRmuha/MEa6zAfNkwZgvAYgnGzF9sUDqJC+h57f+6eOhwXKeMcNpwDirZexG2gfTPGc5alkcP/JKBYPyYH3SEK0SZfMcSuHQg/lcWpoFUYEXCNgA7ATDcE2zLtuWLkqLBTzE4Ac/kuPrLRppmnO93MqgNsD//LdV/EJzuNhHeAj9rT1pxlTSIxY/xfZCyQzbQDCCdY3Xg7TU9exa+UuOgjN35AhPSbvOdZsNn8iItONia/IK0BQkeWrxlBGOUW4C+Xjq3ue6J7cuqvbiZHjqqXYTJBLuDDc8zDuOrqJ3T+nuu/hFlB+fYydO3bmcv5a+W/hJZuJbpgcRBaR9Rf8kkxhpmvxC2Oky3ypAVB0HyPAXqgP0urrUcSoV4CFsIXvPQFhGQw9OTkbtaG6C0jXAMZrAGSOmvPSJy5e6I6iB3EQhego7sI/hT3sVzCn+AkaAdm2Zg1P9tRmBTIF5wwY9hZeiDO7cggqhgmsz9NiE00k4oiAC28cEfDQzZplGBGsTmsE6O1xwXhTf0SQlQ9JHRvGNQDuCef8/w/3v9UdgZ/D/vCwTa8QN6LufrmZ1QYAU4Mfogcpv74egYVQH4tGLLoCW4CfTUsnQj07ajkFf5GcuqJCaYLAdbhraw8uZnsKe/Nf3Plwt2312gCfsqyJoZ9heBnv70GsJ72Lnv8bmALiojPfWRlp0JTsN52cMRZm/1WOCnQZL2zDdEX9T80O/7CcrMfKz3DhkzDThRGAgn2OQKIPMfMLqwmz4wxYEy3857kBkExwbprrAbzl8tC5M6iYznTH0Rjw4+jXULjKEUEsWMlxjv8U7DyHFl5sy+zKIagYJrA+T4vNqSSoL4VrBKuW45usq9eHEQHPDoQRAdYIuKWUi3JxjnZmu4Zk+M+74d9E5f8WP0B/NH58XgzM+UyQCiCUNuyXv9lrAA5310MDkEcAfT3GAnWoRiy6AluAn01LJ0I9O2o5BX+RlIopy5WYhPO6pXj+61EWeCXDL2Mt4GGMGrlDh9/r/Tz8OKXIUTo/BP86phO5dsONBdzJVf6y377kDUB+zjkWnFEkxUHZMQIZDl26JHfUCmhYOltowWhEACEcws90BCAKZIGKh0ZY2fMQy2XcennqykU0CKdw4Rn2r2NnSLgHHzT9NQJ9kQqzNSmGD5e73GEQOjEqha7fCzpxoOqt8AKIFPw3bvfDiABTQ9wZtAY9Po4ItnPXEF52jgg2YnqIo4X5Ya7WlS7CB8M40sIcLRrWv3nvzfDt4dM4D3ADfq5+SUXWVAEqFgLop3vSAJTWOM9RyFrPM7NnDwgvw9HxwlXIKZJSfrNc4YvbitlJ2LV2Y/cLD+0Nd/TsRJng93s/Dz9u272Myp5nDF4+8n44b8DFe77Hki/PzvZzqBxlRGV/OXQK1ojDL+BIl+UKXEIrp6ZDDRzWAIQ+Vy0RYvkzVS1Jcf2I67Ak9141ALvSNtBfe5rfAxhvCqifP4mzMeC0BG+1PI89xYdRaXFq6DgagXMYEYR78FFx8VSjfCs38Bb+1aT493PYAEieGfL5yq6hLWvWogHY2u3EyeKta9aFXiB3hbAh4K6h+WOeLOZuGs797+Pc/zv9uf+P+ybEuJYnQVUAQZiQ9k8agH4DIe7RkhgBRVIqSimmwiXE9Ot6bCd+BIcLn9i6I1zRvAVTQYvnoxxgSvFe/GTq9hJG5zxlzLWbN08eDt8h5ry/GaE7Brr1WaJv40Vw5dCIULBGhCGEtb8jXQ0XNiunpksNgJBLqGw1h5CY0Mu4B1fmJF/1KaKINOzIaCspw0Ve/CDMTlRU/Cbwrz/zYjj5KtiZhFLA2JMIX8bCdAA/isJTrIfR22CDcAINwlXsNIhb2rBrqDbQmKANpM2W0mRwimVAoGn6P0kalU7s7avh7o8FaY1gxRKsEXBEgF1DHBHweD53D/GqaTYE1NPn1YwMROq5/zO9KwEKKSlZQCG1gBRJqn0W89S/98vT3wWki8CYouIiMBcSy1/Tv2qXRkoRIZ2LyzCdh89wEWv5W3jhKt1Z+jfLweYBbAzguRKOCl/Ct3r3oqO1HmVjGQ6K3Ytf2LyBcxpHcfHgT45+gL3/J0Nnje9q3BLK19H6pbSzRg/Te3Iy/zBfy79iT5ajkBDx4Eo1oNasASihRgY4BNcL/Qw3+JPFDap2RakCNBKsG3II56m3oFLiOYDffO6l7pEt25sPvpfVkaOyW4gjAl5yxgbgKBqCc1cuh4qCJxB5wEVGBCyE5U+rS5stJcvgFMuAQOM9FxWQIqPSDTUASVEMUIIXh11Dy7vNGAXw5Q9rBNgNwnnhcLIY0wNx15C/RsDeGA9Yvcl5f/y9dexQWFspNtjnbAxnH/jSIZlFYhwBxAbgYQGNFe4/g3vswy6gSQPQf99Yptjb37JqLU5bPxTu638Q60UbMDLghoJxv9g11kPpEcuc/1WMJs/gxtkD5091rx4/GDYWyJ0/Qt56D/r5izxF+UqCPDmZf5ivLK5V+VX5YrGEUV6Wb+GaGlA776X//Y9+XiuOLFoBqQSJDIdexoV6pnipgESehHXGFSOREJJuCRak1uAY+fOYn/wnL30N1x88OCcnXHVEgB4hTzOGe/DTiOAQDjXxoyj8MhZ3DfHWy7BGMPCAaLjnt0yeYzGj4d/qH0+OEiZHFtIULeWkKheBAlz4X88R6BrBinCymGsDnCLagS2k8RzB8MliVv7cjXEQjeV333k9LP6exTeF+Z3Y+ldYmpIZmmNiYinjs2gASp2jPoeST9K5vBf5SwRN+Q26LF81SiSGldoIKPloBzcFrMXOMVb+3BnEu3u2YkvxyjQitIJnPxXm/DEa502jb+FrY7xq+hw2bvCj83xH49TPsF7PjzmflSOMoDa/kDtyKrAFeHZkuMiXMPL38fddA8DpiqWLlnZP79rd/aOv/HK4D385FjMXAT6Xv7xrKK4RcDvjMRRGVm686CzsGuJVAtj3zkLZHxG4BUkNtgVDKmpFp4gnR+lSySikKVrkDjcAIOuXLCbx3yKeEMU10zxZzAZgF9YI5BzBSqwRcNeIfMSb9vFmRg7LeeL3z9/8GU5aH+tu49wFd24U4oOGbFxOZvtzLNAVScImDUDwjPlnVD9npujYmo+HtjgSmB/uluKaAA+KPYRL3DanrcNhfWgGmwWyDTEW3hy8P7w6gmtuvFiQWzx54IvXPZzBmtzdT+JtnyVvmfbel5zPgQLVE9LmF2JHTgW2AM+ODBf5Ekb+Ph4NwB9i7iEJtvKFK7zIIeHghdDLsOAldOlUfoxoUhglVIRGBBPCnEGLJ5y7WLgguQfb1H716Re75zAS4MIl5yvn8sdKncNRWSPgdRK88IxrBNxCyrtuTuI65KthRJCvv6VNmoucsUFTtWJWhkEyBXrPwYNnxhhTfYroR2AE/pcRAe9v4RRQ3DW0FmsDG8I20rBrCNNDXCNgZcGbGcO+f0z9fB+7f45giy39xt6an/0iwylZQGFcjZjNBoANOc8BtPzXwqsX/QwHkoy2Oc1wkWTxCq3AEVDzK0eMVHwFPiUph6TML68YX4Xp1024uO1BfI/6IfztQUPAO4M4JchGwhUr4kcI5YQvL5Q7hneL36Fm5X/62qVwpxQbBdnv33oO2Q/Dlo2OF8OtnBZ/7RCPX+RLGOmyfAvXFMjuuwaAmeeD5xz1Mw/uDSOBpzBHuRVTE7zJkHOTrYIhDpxJyB4tP4jCNYKjWBzmlFAYEYRzBGlE0FsjCPPf9RM1JmiFbMuJoeknvHx6cOVN8lWfIopIsjcVx1gR6MnitXqyWHYNcRGZO3/ex7w6r1aI+/4vQWiS4OarQKRkAVU5/Rdr5g3AibAG8CYuEpNzAC3/tfDqxdbz1gxqJLDWbBYv8j26Gq4cMTIsDjiL6MthWWG+2QnYjHUBnijfE6aD1obOFzsAXDhejPMCvPBtlC3E7O1/+mncgcc1N3auWMFzfe3cDay9ofI/jq3YJ65gOzYW6MOVLehIyK/1HLL9Nl+ZX2MSMWHmF7CVk/EWLtSFOwG2dJlfOVIk0tX4mj81AIWAmjMQKHsLL4YqQyk/pt0KJPG5eBGn8jUimBBmMy2e8KW4wmAd9qvvwSLwL+x5LHwZi73R1eilsGC0CodRNI1EXCNAoQ1rBPgyFnosvO6YIwLufWeDcAoFOK4RxBFBzkWKZYCxYFTbm3TJgY6aXnmMFD6d4OPNo+Zk8fIVWBNYG6aFOE/MKaB3MVfLdZLTOAFs9/1bDfn5SvYtXqEVOAEQzEUDkPVWigVlwlGfg2FCIud/aj0tumnjXbUWIfL5PrNy59Zh3iW1BqPuDdghxmtGuE2U1zqvQ3lYiSlZNgZTNQIy1cP7/DlleBnbrM+j0j+LhV5+S4JxntZnh4L3+8gVLbn6L71Jf1q7hcKDZ7zGJGLCWqzV08JLdZqFtviFMtJNJf++bADoHpkK2oyC9yR2gjyC/coPokfCND+VuHwx5qZRCBdwaFp7UDw8ayF7MLxO+MK1a2GhildLxJPFl8Lto1wj4AVoXCNg4xF+thyoLaPa26RL+XbUjN0AiIEqD/LDyWLcNbQJjQDXB/hi8xzFOewC4t3/zG/+KWcA1Y/F4oXPpQP5pAFoNyTZf4V/i6T4u1cw3OfE6T5+g5rvGj9AtBl/3DHEraKreOss1oaI5/v3wANsOqIyqfg5LShnbzhtyCkf9vrPoQHgDjL2+OVun15LmU0ciHnvgwcXEa5/EkHGK4dEQtjCz2kD8JX/7Q9xG6ixJydcRCZhzHOQB7fcPr/SJfukEJTwssApPkWG7CCMf9ySthpXG6xDT2QTeiI7MTfJxoDrAty/zp4K57GHZJR6ZpKOI4K0RoCrjvkRjMtpRMCrkMOIAMNZ3TWEnTLVY3Oe16i2u3SqKEY0KRlWgEYCRlOFXQoHlZ4sxnNYhp4fp7o4hOdcer7zp89B0WWaMJajGOZ/LaDGp3MAX+M5gOluA01TQFiziGsAHw3YES1y/ZsMbuFdwSPy5/xbv4i/RscrR4wMiwPOIrJ8YuL7x0qeHS2+h/Fu/0Wh999P8/vVfAf5ky+H8aAgt1Hz8CXLym2kueNH/tihkrn+wBj+SfZYsxTd9H+i9Ohy/oYVZLyotHQtfOFOCBmPf0j+vPu1AdBHAB/ygeqJVqwFPIKPSz+4cXParbI6LF7FOcr4rVzhnauQC8as/O7c/QgLxVfDlBB7xUfQEJzCtMh59HLYO/55cXmVV0F4Bba036XTchYjmhQBCtBIwGiqKHkKF/5ELfrZy+v/BJ5hjoQKbAGFGUFcOAg2aQCCL7J/rN/E7xmvkBgZJgfOIlx+UgLJP077zMe3Jljpc+MA30vu0JMGgB0lTufwltjwoRhU/HxXOCKYakunMdSaFVHJBk1MEanLYyTO+RtWkPEi3NK18IU7IWQ8/iH5aAD+C/d7AKWCQp/kIjw4TfQi6iidsrAG90hDVOkrRASw1zD4q8AVILB58ukY7Yli6Mlh6VrsTtiI6aCd+CDKXmxf24n56c2480a+lTtoxywCWdB5NkB2DfFUMe/C2X/6RPfK4f24ifRcuHo4XF8reusnPGW+ha0MPT9JAzPsXUhRhEaiflHg2Ed05MC/llU4Q5jtcogSuMYOIwj9QjUA4o0p/EiS7CdhsGFmrz0V+YV+evj6GVo5Wb/VQ7tJyZB3/rMhYIPAd1MkhCkg0PDdiLvDYsXPLkO7mklSRJioL8J77r9kT/aTZ/fUGan4K7nw9aQByE9fHMYCsBgNAS+O24IRwR58RJ5b13itARetwolW4DlM5aJWq8BkDdOPhQMtN29ih8yJ7sfvv9Ptx0LpOSx23cJIQH+SAQXEyLj2ufRJvlvsFKGRYICmHPvE3BZdtksphTVl1AQ9XKIv2JicNAA9N6VofkyFw0bEa22toq2cLF8ILF6hCpZIHBnmciCUEka6Wr7F1/YJPoa+fMELvdgl6dnBi7Scj6SnUlcBhDWEFX/CZnhqABA4jAaMxLAh2jO3YkpmcA/zC2HL8cKu9CVAEcOG9DMeSWs6oeG+5LBbBdsWeVCMX8bahK2j2zES2IN7TbiNLS4Y80Tr3K8RsLfDoe8ZXCXx7sljOCF7qHv98Pvdadw+OkLXRzwTQs/PHlyZ1V0xokklKCLJmUonzi3IJDkaHUpRJhRWGya8kjnlhHI+ywbAGom3KWfEoDy4Ejl8ik+RTJY9QVRLfuYTiSW/wCW0eIHWbrd04+uJkn37W/LFMktX2qnY2kAREELfDrHTkCOhkmeFvxCn8lWLRobtYPbCCKA2rGSQdJJYCG5V7Jl7mF/xDYeXGVa9IkBCR04NLjKS+Ifowm4VbFHjiOBhfPCCawQ8zMSLz3jAhWsEn8WuIW5r41bRN3A3/nff+ml3AHvmw8lhjn9rw8UjJvQKrgdXZnVXjGhSCYpIskfpGvaNTKdylMMqTuCMzbE+IcVMGoC+R2Jc3aso678W3mEDeDw5tR6xz8pRfU35Qlnwe0nPgCSm9b7U7FbRTPmL7MKqKF+1aETyLWGiQzDYAChZJSABKnjkaGZILHb4s94GQSYMsYq6AcgPpiIUyVGuonv71zH1wymgtZge4oiAawR7uEaAEQG3s/Ew01yOCOQA2Zv4JjE/Sv/O8SNhZMA50Wyuxkx+JNF6TrNGp2bEiCazAomZsEVX219xBHn5OYv4gg5JNgC/P6uLwCN8ESyZU+dD7LShS1dkRyoAyw1o7YhAksGVICPCo8twIXfkKFgjhX7hlzDS1fItXlNWrIARtuQkUl9RIPD8J4raeKWUSJJrkki4GSnoC7oi6cnJ2cwMkwagfAa9dOWw5DeOPLhGsAojgq1r14VP4O3CGsF2jAi4RpBHBFgjmOUtpOztc4GYX8j6f/7u32MkcKD7ENvheNeQPtZseC83OdoqsEI5Y7psUBCpyaxAYiZs0dV2VRxRXwUuAEhOGgC6qvCLeRrAKlojo/lX5CibRhx+y5D1ClzC2ZKT5PmKAkFd3sSOGLbxQt+y2+KFS8JsZkFXJL3nOcQ/7xf+V+4CEhUSRkANF3wKCwIRI5v4Wo4RaS26meJ7JVhUmjBnQ3Jg0IM9KLkHfylvveQdN1gj4InWHWHX0PZwDXLcNZTuwc9KrPBppNgI8KqEf/3y97vX0QDcxClI7ouWX5WLhm6dSqsYRWIMp/0cVG6MaFLEF/a18MKWrJri8SZ9tUAV8eyumY8A/vT1l8O11fF7AHkEUL6IRTbVBol4/vXgwpfr7yqjgaTW26KbZfywONgWEbV9mrMU8eisYE9O03/iQCuuNGKwHiBR1ju1gJYdLTktvBqsZmgkoDK/UnaTBmCEB9h+cBwRLOpW4kQr7xTilBBPFW9ft15HBMu4RoC9zbJryD6a/EBGje3DQvAfYwrotSMHcAfNjXAYRngr2UNPXogRfrEbAL6AVY5T7iK8Rmd6HQGgIZjObz92ZcUG4BC+84BPC+IwUv5lPYTVdmTKiLf0gvXzlyiUTSPCGsJab4tulvHD4mBbRNT2GfOnoLOCPTlN/00agNLhkm452OLFjzV3oivIlc57ckKQwuaDVDWuokJiTNbqh/ldOpDrrZdpjYC3Xm7AOYIdOFG8FzeP8mRxXCNYGmh5FH4mv9gA/LB7HQ3AtVvXMQ2EiscR2arglW1Em9znkAWFrGlSMqoAjVg6R7+lBotH58DFMUPo2AD8WseRwHR+UzcApcSYkyE7IuXUePG7HHiSdKnF84/QeXzZrsrjwhrCTCdgz25HjoI1IoKmlC9EtX7FOPyCj6GXfykn3nskUnx+oZhaT7a/lf8WXvQVdJrUiBCakHY4IwChswKy4cP40nGZO8UyQASEcKYOVWGqxlWkpP1IM1+J2KUr1DE/3DW0ApddbcYaARsAXn+7Lewa4hrB8nDFhJwj6Nsyatw0ALgyIvQ8CztE1qQBiI6pn5+sAUwaAJaV7B+nIKUClelyCbP8Fi4pDVW8RhTFiCdfiGq8YkLEx0c6v75J9gybJUpgX4MgUXp0mX1Yzuh4MamQo0mNCKEJqQcNwL/k/sGAyIoNnSa8DPUINMpIrT5BakTga8uP4rVCi8nq36Yc4SgyXCRBZQ1t4fvkMiLgF8jCriGcLN4URgRx1xA/lbgVH1Inbjq/wQZABFmzYZYA0upMnRHhDGHLfy28qMt6k3gxw2ijlwtEYV+BBUMFMRJr+yx9n302RwDXbtkpoL6eaKBvh8lAStT5sFQtvOen2i6RG+3LeGuvUlXgChBIsxzllEgMKzYLaPInaZku8ue0VSeppt+EUMqlNStjG4oy2grw4Co4RTy6DBcOK1+gGtYMAUXwpAFQLw3VK9axtR8tXspLT2RyNEcEcddQPEewtXsSn6J8AR+j4V340/lNGgDfa/ULbp9T/znObgNgPwrf1xOt9e0Yyk2dD0vVwk8aAOsvSTX9JoTyQtvHlrH1A1YcIxltBXhwwzwSv3BY+QLVMCtUECMEpwZA4FZQzRfxNVz4JUxyrDhBwq0zw4sg90GqeMeALEBiJqzzZ+W08Cqsxya7hpagIeBZgWd37en+k1/8evgmsdKPEZEGICwChymgD3vc6oAAEzN0d5ZQFhmp6Aq8sJWh/xyiRJFb8kkxQDEMqIrO0a90Dt7qQWlTBsEkfQhmvwGoF4Fr/bUdAomhNdjnL7g8QgeewVafldqvyAST/SeQGFo5Wb5QWXx+/oKX0NK15NR4K6fGi/z4RrTKr0jzQpe/YPDosn1iV8GYktPmr8RmwKQBGPB1fiCCzA4jpIUXrrqAZzkv7H6k+8Nf/a2O4XR+vA7ij3/KReAPuuuyBqCCkh4b6B2bakWREYFrQ1HgVXwR8QqmOErkFmxS7wMcKSo6R7/SOfhST21f0odgpg0AP97zl+++1r13+nj4eA3voM+/ocYnY0MMedD8FKiIF+8MIfswT1eUjivTwuVpPC/Cb+IyDCfIQ6mY0gJ5jD1lkb52v5XTwvsZH09OrUdMbdk5aQDGbADEsRI2HGyfozChQDkIpYiRadNV4pOdhXxNKr1GAqo2s4UXiYnOkgOZAbPTAPwg7AKqG4CWHRGvVU82SxhD2MILsU9n/eCo6bvF6lUFw5wKrR+UcEZ5FV45u+fCOYDpLwKfxic8X8Op7OOXzofPEX788SdGtzzyrNGiB2pXJQg8LqOSpUhNGLKNOo7VHO/H54WC1+7cCt+Z4AeGeHaEd0zJr/W+ZTfWuihjdLxqlEgMK7EWkOVbNilALbxw1XRRTw0XjhQ6BNZK0LboHLxo855DZqs0BtYWXuRn+/Cd7bgILCgrOAsUfBl6jktyrDhl9jKoBCkybbpKb7KzVCBppddIwNT5b+ELgZYcyAyYNADiK+OWANQGRUjqB5HoEoGDz+zZ7xGW02wAfu9rvxYaAqEfJ7yKvf+s/C/dvBHuqOf13OaXVRlwTgwTBOgwKrNWMcsQ3BIaAN6hHxsA2nsBX866eP1a+NYEGwRpCFrvW3az1SNmjI5XDonEsBJrAVm+ZZP3qoUXrpou6qnhwpFCh8BaCdoWnYMXbd5zyGyVxsDawov8bB8bgP/lX+JfRRURi8gKhCzia7jFl/JFahyA8fEliCASe04O41WLb4CQhNBzrKjPxFlzhvWfq8XX6i1eZfTAsQH47RlOAcURwDVOAeEcQNOOnn7aVCT7GVSTA10t2OAl4fpXCFLo0hV6Wva18IVa+Ec4JOxCxT+TBoAVKz9Ezg+U1F+gggVZVWmOeGMQ3mQb5PKB8sW5Ox/f7dj758fS3z51tDt68WxoDPhxFXWPY3TGi55hKzPdmPhhciiziCxf7JAw0tV4Dy58Mczlw8JzKtlhzcnoFGvJyfYNC5prvBoM9ZMGgN6onkMFCD7zHkyGi2uH+ft6Jg2A+KoXFo6svDgmvic5RPOLmSXPdARQ6vi8pznlw48McerqnVNHu/fPngzfYOaX5wiPI5jsn35+CvcD1aIbEz9MXump7RAro4Aa78GFL4a5fFh4TiUDXTtHk5PtGxY013jND9SjAfgWOuKtjEV8NkxFpEgLL2RJT8GeoSmWAYbSGykIkTzAPLIQTBGmjDhq4I5hTA326Ibh4mZaMxcNgOSytlMxMeKalxAFvki6/lEtvgFGvz5PYSzDQo7a4cEb/KK8zx4bgF+f9hRQqfLznpbLBDlquYQrRI5cONu9hm9LHDx3Ch8YutzdxPeYxT+4cir85L2SvAle0lp/ZEDiE4A+uSnhQq2hsmlEUYy07Kjxwh7l+fhIV+ZbuAcUK6ofcfn7RIh7dLV91g8Zb+EiPuMVIpEYgm3SAFiXJMdM06FJlvdA56QBOIyrIIpdQPWDl0ymfA1nD+YN4ytyX0FQ5Oa/MqOSLBQxLPQotQe33EM1RKDo2xcvg7t/GgBxkUwJnb12GVNBxzpeafEBRgP83rSMBCYNgJY4cVsMi/JnkTnVL2cZWsc8ulqNtSfjLVw0ZLxCJBJDsNkGQNDD8oCNiFqwZWzhpZ4RLgmz2hTLgEBSJEd6wUW2CdXA2MXRis8QIaF0JSKmM7qyLBBMhQ8jgG/MwhqANgD1OYCsX+wv7CySmSohPHwtWFhN6BVsIRK8O2JT/TGiSREgYbKnwjt2ql7UcM/hPMbv/8r91wDQ5xwNcO6fIwFuZ30VN8sePHe6O3/9SncLIwF9LupYjQTP1+6dKV4faIxYcYJEaBHZDgsXhoxXSIjUcMHbUMqLhTKV9A2rVXKfX0lCpEXn4et8WIOmwk8agPAYrcP0sdSeUxQjGT3MPxV+0gDQf9FvWtEY79LBAogRTQpYwiSnwucHIJQhVL2hAcB10KEB2GNo7pcERwIfY+fSWUz/cCTw3ukT3SFOB6ER4JkG4rIbrYczXLw1U3whx4oTJEKLyHZYuDBkvEJCpIYL3oZSXiyUqaRvWK2S+/xKEiItOg9f58MaNBU+NQBiiGWU/AlWM5wAtWChjHJa+Fp+5FcrfAGiKISeY4Ropvhsp1qW9IoGCUfHfxYNgFplzRIwwoRw8Ap2noPiW3IcfjVEzcgSFceIgmNEk0LkyFc6B0/2cA7gPm4A+iOBy2EkcLZ79diB7gAaAU4H9dcEeg9CPB/C7F71uMFLItMppOC3cEnl56+QFEnlwVVrEZ5+kVrjBRPDVj3SaykNY5MvUbfosn02X6JsOvhJAwDvtRyfC6B1fHa4PgKJhHAq/KQB6LkqudWfihPaSGifAnC1o6P/la3iEMx93wCII/KawJXurZNHwpqANAKyJjBpAPxyFAvcML5Zv6SH0KLLxdzTI09zdPy8F//nbw18EcwRVMm1gGyg5a/hFi+pXNFGSJaeYhmgLIwo2FcU6F0HK1+cjPArItVk9VfgCpD0C9u8uAtoFtYAXpM1AMzlyk+zI4DkoRouBIW9bjIhPLyvIChy/Z/MELw7JVTQifUaOvrV3AH8/T4CEN/1RwI81HbowplwwplrAuewUMyRgPyyG9WzggqhPEcD7CU8/gwX4mH5+YUfpvPlpPe7IrB6KrSoSWErf16HRMS0+LN+a1fm15hEBkNPT1/+pAGg69QjX8QG4IO4C4gfhEk/zY4AJg1A9ETtmMkIQMtIjOiaAKZ/3glrAsexOwjTQWlNgOcEshu9CmoYLqo8/gxXSonYsBJvAb6cSQNAR2b/oKvLEYB4NyMUIpEYWj/3cBHR4q/xPREhmhQUejTpCGjhRYvXIgo+9yyiRJUrBArQiGBM2NLDbLyw+9HuD2dlBDAbDYCYn/JVZC8nh/HK7TwfwUvY8o+U0KxXOFOoiBjRZEEmcgSsdD07JyMA8U4MWRnI7iCuCRzE7qCfYXcQp4Mu4rAYdwfJr/kcE2FJ13O/UIjIENZ4QesTjIAi2ZsLKORYQl++1ePTRXk+PslpEJR+Ee0StvFKKRET1uprP0wagL7L1D/pAfdxjBf4Ei3pUR5cXgN4VNjGCt/FR+HDN4F1CmgmIwBRnTKo+YzwnBzGK3dd4gRlwpZ/pOLOeg179Rx8OovRVM/OSQNQ+DYlZU3gDKZ/3jxxpHsP5wQOYTrogtkdpB4dFpKg5fPuuV8oDH+NF3Shr0j2CkZgyHIsYYaL3DKM9D5dC5/k+QKSfdauyoomv3AMy6nZLR3xaAD+AI1+RAgDdoYlAx0FVo4QIbRyeogUtYyiz6Wz5Ln+lViBFzllgRN4GTbpkoGOGmR3GFODazo2AH/0TZ4DmEED8JP4Ufh4F1BeAxj1OdR2Fh5yCHSNpM5WENDCF1rgRk9QhDvYLCbxV3SO3D5dOAfwdZ4DuD+3gWYn2lh/JBDPCeDEMG49DSeGR1wTyO7ve9zq6afKclDzp4pJ3n9hrsRbQJYzzFDjx6Mr7RZueQ9LczM+xnx+S9mi8/A5f9YvlD5pAKyPbSp5rnZbIsueNXw1uJYwaw2AjAA+mjQAlZfrBxGeU59upg2A3K0T7tfH0SnpPJkC8RkmYpbndfwk6aIFC7oFD8wPDWw/z+OYIyOBs1gT4OVxPCdw4Fw6MVycEwgNPwx4gH/QvwB/DB+Y9wDqwGgBPIRL8/CHO4noO16gx/TQL+aFGLFe6CSduIpkpo/4LCfRqzwPPx6dV/GqHZV9Il/0NwgSua9najk5/7WeeS/8T3/Q2wVkCTKjGGzxhR+FCGGkq/mFZDS8J1+t8BUERS2HqTWenKwoyhOGMizoBF2LVcKwC2hWRgAzaAB8OxOmzkBA5FykWAaISBO2nkMLLyOthhoUu0ihdE37eQ4AJ4FnMALgnToXcLXyDcyNc4GUFdr4P7V4fNaCg77k3zJ8i3rd8hXd8sVLQiPASnk6v3okgBPDaSTAcwK37uLEMIioUyv++QvwCdSF3VLYsHjBwtAQsRHg7xP45yPcnMqtpTyFzFtU2XgO3qSaDK5NL/JSJKX+SewatOTUeGGNCqaN9xlFQQhb70Ebb8QhYR0zxI8G4PfRAAihhFGQglWuxRfylUoU1/xCEuW08J58tcIXEBTlfIne4dCly4qivGF2yS6wyhDpbdLgPw8jAMmO60YHkbOVYhkgIk3o+jdRtfBVxW6k9xLJXjWnaf/MG4ALN651+9ErPoOTtB/iqmVWZqP8WjZWMpy8kE5lBSb2vud1K5cs7bauXtdtWrWmW798ZaiM6WdLW2lxAeylxxPDcSTAu4MOnT/dcaGY/fuFqPSXLloU9CxdmEI0PkvQEBDHEQl/7PXf/QQNAD5Oc+vDD7vbCPmhGv7dxk42hsTxmm35Ylmd9SIXRbL0iGSqJafGK2eITBvvM4qCJL/KyJh4Q46ElTf0nhUNgAiIjLXdInC2hmJR35BhASMGFOrECrFWM1ojMglirp5E5eKTXPf1Eb1qpwCMeqnHaMkcjwBEb9sOoWQo7u7DQtxBVNIdOpGn/qsYI4Xr/ySghbflPSvR2IB9HAH8wQxGAIexX/6v973RvY9GgPfsf4Se7Vi/AZsG+UGn+agIMiaKm9etWrqs27ZuQ/fI5m3ds9sf6ragMWAlPBsjgcu3bnaHcYvoGycOYXvotW7hgvndqiXLui0r0disWNWthm72/lnxL5iP5iHYHm2UKaBPUMGzIeAI6ho+UnMRFxqewYiCV1LwgjrCZGRQZje7LOfb0FRgC8j8wmXxClWwRgKq5o8c7fJp5YieMmzJyfqH5Y2DnzQAPe+7jk9+dl9BeQ73pAFI20DRa6p/YpjFeAUkwy291zJU0l0BUZ76r2JM+BZ/A1/XkFGRqhvgn2kDwDnx77z2t92buFL5OipG9l7zTzVnEGMJnLE5FgiLpDC75VMEJkJmcxl63xvQ+9+LBuArDz7S7dm4pVuLkQCnhijHUSGq3FDWBM5jS+g+jAIu3boeKnpW+pvRAKxbtqJbuXRpt2TBotDYeDazd8/poDtYR7iOhvNSagBOo/I/feVi+FrZ1ds30ajeCaMCjj7Iw19+jE4uKrAFZH7JpsUrVMEaCaiaP3J4eRV5PcMVNBRpycn6rV0iaxx8aACEMYYoHCpXIwGV4ZZjoEQXBC05Ed+UL1KtuF5hTogCr2y+AiGJYaIrxbQeTDak5KzFc/fP7KwBfNBdTV8EEy11Nq094+NVcvKPpG2o1YpVp0QtvBC2/NzC9wpwEFmZ03PAbDYA127aBqCnJmUtWWIDyTZCF2H4a7k9EZQCgvlY/OU8/MbUCDy+dWf3NEYCW1evnZU1Ac7h8/OS/MA85/cXobfP6R6GC+bP7+Zz4bdhqDQC7Ol/iLWAO5DJE8es+DmldhBTTMfwuc0zVy+FRiJMCaERqMVWTzg6pAJbQEtOjRc/RzkzxcvjFqll2PKf0Ht02T6bb+FjONAAxAIUiSxjFtgXEcQMkfeIWnJGc6gKtOJ6fkyIAi98nqMEr2HKaCmmya8MGlGR/QjFTxqAvkdsvOXnFr6sIaqn0SvIX9YGQDzKkUBoBDZt6158KI4E1s3CSIB98dwjjx6u/CxGjBhSpuyq4toKr6PgVNMRhJwa4rQQ1wg4jWR/juYKbAG9YpDEtfCiNdLV/OPhexWXMJqwWc4TtUeX7bP56isxDYAIig92nJFAoaBIZoXTdZwIlAef0jaAmgqQVWdshmUPZVgvJv7ogUJU4IU1JRlb0hqWIC8+PPMRwL9+mecA5CQwt4FafbX6Fl7MjXQt/kJdTtaMIjiE4j8DHEi06Fp4MUhGHvq8evZ9tg2AZDI9BxsIEqGLCDSS7zQjMlDM8vOTkQAXg/du3t49vm1X98z2B7stq9bOaE2Ahqg/g1Wz808cFfw87BLiaIDXUh+9eA5bT0/jgrrjSF/tuH7AqajeY0zKk9/ElCIpYPWvcFV0FlDriYzyHLJcG2vhldpTkAhacjK7tVvkT8U/RQPA+ksEShhFKlg0SIGVtCUXKMKIqPmFxMOLwKLIJbBgRX5pjpUuKZqTOXtQjeb8KyhEBF5YY4mYmkL+i7wKAgfB2BBM58eTwKEBOCxrAJMGoPKjlo8Y0efVey5f9gZAfMLtoJsw/bMHawIv7trbPYw1gdnYHSTy5yJkY8DttTyDwNEAbyk9wo/Y37je3Qa8ORJwX2+L6BWHlI0WPpJJPeDlvYVXvtoARTHSkpPZrd0iZCp+0wAIg4SZ0RMslBIWdEVSK+hEng0X/jKMAny6pKDQk5MNvC/YGJL9YMCaaOGHGoK5aQDEpJhvP3stfEtO9nCgHHYzUC4isvkGigEmbPnZxasZMdJvCGarAXgDe+O9RWA/m2pY9IfJLRMJL/AiWeI9PfQLD4RxTYALww9v2to9gTWB53bsnvHuIDFtrkKuD3Bt4OLNa2E9YD8+W/nGsUNYKL6Uzl3I04Q3Gv4p3en7rxIUslfLj7l2y12hsOYXPSkPNUHUm5wrOfX0ZXaRmxhTMISfNADWR4Mpz+FC3MIPlMxu0gDwhR0uqOLXMmzRu/ikZmgqaOYNwPGwC4iV0ue5ARBfLlu8uFu/cnW3d9P27iWMQvds3BoOjHEPP/0nPhL6z0vIuX9uPz1w/lT38qH9YUroCs4g3ME20lwxltYW5atIThoAeOCF//H3xH98I0sPIo0ioWCNDND12Qu6IpmZIyLLz5gYs4wunYPQwmzFlEpGrohaFYwIVr0ZkGLZkFlvAPAi6M/zR1Zv7HHIQWMZajqLL8hzsmZUUxlRKS26Br5XUIN8lSvaEqD/fJ57kOcA/sNp3wX03ul2A6DqK4MUE+2t8BUgMlRgC6jdFPGExzWBBd3GlWu7R7ZgTYC7g7ZhTWD1mrB7R07simWfl5CLwx/h3ADPCuyDz+PfsbBdlFNFrMTqfIv1yT/WTeQQAhNmORaftfwhNgAAQABJREFU4YZcE279kClCrCVniowkfmuXik+Rth2RMDT47QaAjhWFEpYqRaDAC7oiKVTyAFR8RqSYZXTpHIS+6FZMrcXhLwmzHwpMIV/1CpniNTL7I4BJA1DVANnb6UEkQP/5xBEAGgA0BNP5fdEaAMkj1wQ2YiGY5wRewGE4jgTWr5j5iWGRP1chzwycwrZQ+v0nh98PawIcHXCqyH+N9cEXZlUlJOCzHIvP8EJMSrr1g5JHeS05U2Qk2WftUvEj2xEJR24AEvmAXdaQOmMW7zS4ED+aY5oOrg0IpqsVDj7mr9/QCcSGTf1CnvSoXoFLCPzcjgBEkYTWktoNo/lfpVUCrHzvOStVxR8la8WshKLRhu5zUL4Y0aRll+IG6LzQ8/8WRwCz0ABcw5e0eBCsts9a4mQ/2BNMTeSWi5gCUiRL/FR6uFef+/a5RXQPpoO4JvDMDp4YnvnuoJCHOfqHV0TcxsWH3B7644PvhU9Xll8sE9U5/4WjiqTQ5zASZP6MiTEroKSrn/8wf8lXUg1UuIakpWcU/AhTQFlnLXBqR5QFsiy/Pckh2nJIrT9LmEqAWtlQ0JLfwqs1SY/qVUSKAD97DcD71RfBaj9bS2o3RHwNLw2P6doPVn6tP/GJOEfRpAFIfrSBeA1hy88W77hZ5RAfzwlgOghbRL/CcwKbtoTTvLzK4fP645QPp4Jex1UUb2M3HO8luoDtoYT3fzn/1i+lG/s8MR7pM39JYeWVdPX7Mcxf8pVUn0kD8DzWAGx2YEbTMpqK11UZNWLykPECTnTD5EEmKWs+y9/CC3X5oLPaqe1oP8CowaVLBmZ9apFGuP3zD7/5H81wG+j3u9dkG2iYAio0FsmyAqn9aBnGx0v2khwrTpD5sdQKAk2rIRA2ed+95+DB+4ZwCuhbX/+NWR0BqHzJTeWHCJB8WHqmrP8qdsELY00QMM38Qw5HAtwdtBl3BT2GUcCTOCfwNP42Y2TQ5hcDPvuQU0GnMRXEz1b+4IO3w1kB3sYaGwHrkNrPFl+6M+cm0rX4a7xI8PjHw/v2RTmt5zQVft70GwBW1OJICSVjYphNlwW7xApexVYEozlU2QqzcjLFMkBZGMn5MuAq4dKlDDjig5xJAxAcXfmUgC9XAzBUnmLJaJVzefHrclRAiqQ41S2fQpAU0A7eE/QwRgHPYGvoV9E52bl2w8jvgYorInFxFnf+fMpFWhzcAp42he8DIHTMLqQMJ7kgfBO3ifJLZd/d91q3/+wJnA34MCwUswT1f7WfLb4g77FGuhZ/jRcRHv94eN++KKf1nKfCDzcAal/hKIGnsBZs6VuOqTPW4rcOzT3AwjBJ+gYEitr+yFgVTWuWSG+/IEn/EPtn0gCIpWqARlL+haAMW3QRX7q39Kc8n/I5W+nQXQpK5pTySisl3aKbCs+5/7kdAaiVKZtV7geyX9NQSnZTgS+SonGcinD9ylXdo1wH2Lm7ewlTQdvXrC8fWxY7QixU/igAH6FXznuDuIuHz4HnEWbrQzVc+OUBse998E737qmj3Xn9Upl1SPabGG7xAq0zHOmEX8qzpMW/Oa2SioiVUyCRtPZU8ipALYGQqcq5h580AAO+/MI1ADgZ+WH4IpgtSJo1BWskoPxy1aKDh8DM64U5hbAIUwhLcAc8/wj/EDc8cn8273tnT60o32WSJVdN7UdaBVpoW3RT4T+7BkBe0DqvdfZrGuY10xX4Iil+KR2f+YUiMtI/m7H4S19wBPA0rorYhLMCrlhhHwhZKfOOf17zfP3OrXC5G+NcvKUeVv7LFi3pVixZEq6Q5u2kvEBOvhcwINIFsZE5iWmgnx39IKwFHMQhMd4qOmq+K8FVhsU/kfLL2QD8D/9CV07cF6UuOcZ3NZ/1ZM1u8XVJE7yYZh9EVu7BhSLJEXEJnJM5FlBFUqRIWOczYjz4VHwzHgGcONr9vy/bNYDp+1nyIRZLaB3Slx/3ky/qVixbjoNFq8KWwq1r1oUrgHlV8OnLF7sT2KlxDYd19IW04vJj7wsW1b1QGmQ5+u/524OLqCH87DUAB7EYb28DFb0S1vqtQ3w3tOgS3pKJWoQRMSSfNs3DzZ0Pbdjcff2xZ8JOoB2Y/uH1zuP+WCHz6gbOzfMWz0PncYkbeuW3cKUz7/6nFYtx4Gw1roxmWXkUu4+2r10fr6RA52E6P54Qfv/sKTQAR7pXjh4IJ4S9W4qG8h91jua/0r4szzo+w4Wjhbd0Nb/F5xdH4DGsy1eJt2mWi3nPTxqA7BX7nDI8xTwHe3ARMIR/IVwGN/1F4H0nj3V/zI/CYxH4Cipc9rjrglNkqEhKxZDtlJiEsacfvu/KxUJ83k8+9cfdIyvwEZC12DvO6wV4zwxfalYCp1D5f4C52Tdg21nc7a56Cv2arA0XA0L4hWgAjqIBqL4HYLIResAFxCR9N6inoj9sErAEqOAiPiKG5HM+fj6eLXcB/cNnvxKujF6LRp2juXF+0vPnNc68ruHAuVPhi2HnsFuHZZN4FtBFKEP8XsBWTDE9Cp17cUvpwxu2dBvwIZmFsGPckYAsBnM30Pfef6s7ik6HdBTULykjQ/mPqNH8V/ojy7OOz3DhaOEtXc1v8fK4BSrhUD0jOIa1XGkAakzgs2b3RHn0FXxYQkVW5kjZNBLtscmeQRKNBKPLj3xZbIplgAgOYcvBQtykg4EcAfzRDHYB7T+FE6iv/Lh7FZXsRbx0t7ArQn45/15GhFLCmi7KiLtEFuKlXYEeIa8Q2IQTo9vw8jLcsGI1enPL0RAsxXbCxag0FofPIrISeOvY4e5v3n61O4JbHLVHlg0TxSaUir4sDkKkVjbkKL1Hl+CUNxsjgD959W9xPw3uAkrnAET/wBunKFZOtXkxhx68xxyiTTp1mOXsl0+O5Dgt8ySmff7xC7/UPbV9V2joOVc/zk8qYvbGX0NP/Bhu8OQUEA9pcf6fHQP+pDPBaaC1+Gbxno3b9EqKNaHhWTiO2iCf3w94Gx2iv3j7lfDBet4USn3ZP8OOyPhSZaKv2CLA5xM5LboWPsrpPyeRbMK2IYHck0N4HAE4gqr8i3aPvoIPS6jIyjde2TSSMiIGeGGkH11+lJO1pFgGGEWeIw0REk06GDjTBuDYhXPdD/e/jYr2UHf8PG5IxLW5sgsi59/LSGVxsJl2L8B8LHv57AHyfpjQ00flvwa7RNjT51xxaABWrQ47R3iidBE+CSg7O/hd18uYh2WF+G9f+dvuPbyYcXsePpaeDSsNCOn7qwEYKifxedVuGn6OTbphNlM+F3JOfvHSMPXzO2gAeCCMn41sluHeE2Rly2uaeVvn25ia5HTMOXQCCM+98R4DorEhWNDtXLcRDcBjoeHZvX5zx0ZgnB9HFmxkuB30T994OVwRIdtBs3+GHZHxpcZEX7FFgM8nclp0LXyU03wGbUOCIE8O4WYKSMz3XlT1R0Oxp5C9Hv5qdpUcTSiSERg4Q7TmzxSByiVIgh35AtaVB0dOq6ISa3w/dLEB+LV/NO1zANfxcYyTmGo5cOZU99bxw91BfJrwJHtd6A1Jb6s238//A+jx8RuuK5Yu7zaidy9TOuzpb0TPfw3mbWNPnx/65oIvPvaNyoM9xX6FIS/k2yeOdH/ysx91b2MkcPvD25gCwGKw/nw7SKL+RfURfnVGElieWCQr/53K/yL3+VnYBSQjgOokMCpA0VPaxnRtn81Pne0WXrRYurJ/pVRQsASLsGzcufvnt595CdMy2wbsEo46DJU88sndOH/93pvdW3jurPxv4pnz8bEBqPMZ8074OkwhPoxRwNM4hfyLuJyOu4/G+cknKt9FA/Dt134cGgJuPPg07DoqJRV+SWjXz8Pk4LKImj8KHsp3wiTNQmeSVcKXk0g9AwpJQ3ImDUDPSfJYvwgNAL+Ryt02Z65gzhWV/we4G+XQmZPdGTQKHBJz3lV6QjmLsWcXel+ovDn057dbl7Cnj4pgeZrT34hDQZvXrA1XBW9CT58v6Ur0Elnht+ZoWSF8im+90qZ/+9rL3RuYG7+IhUDe355/ydPi8IwIsc+6AfgDHARjQzCdH++k+SI3AOEkMEZ1z6IB+I2nXgx3Ao3jBz5r7vDh5Wx/9vrLqICPhpFov8EfqnjSgw47gji1+Aw+Vxn046rqcX8sc/vwsZhv49vM7HjwveD7UdeLwwXOpRsmh3kWUfPHHLj5HpFf/ODLSRSeASJAyazdBA83AMLoCFYxDj6zK2UClekIzmIKfJHMjo9VtO8Yy5jli2USJjpLXjwe0DoCfP0iP4ZDdGEKaAYjABb68FHtu/ioNkYD3G1xFLsuDqAReBfD8FOXLnS376LnjW+t5h+2bnIxF5U95/TXYeGNX4ri4u0WVPibcDnYGszLLsW0Dq8CWIqePqeDZN92v6efZdYx2nYEi3HfxxTV60cOdIexIHwZn/irfy3/tx5MlDjk376uqfDPP7i3+4O/P7sNgOhW653yI3QpF71ippwBVbNbvMhx6YbJA9tKlIMt2PXDBuCbTzwXFmRF3ihhvJvnbpj2+VNUwPuwNlV3PKKkoefAKUeWNW4//Y9fjFNQo+gtaXgg7Dtv/F2YgrqFzkbYfpyIXL8UeBTb8Mv0heM0qZEkwQY5n9qVLORaeqnXst5x8YneF5D013ZPGgC6pvBLkZyTBoDfBJYvgrHA5EKTHuYYASvc8Pk87Lg4fA5fTsKU0GEsxp3DdrybWBxmwV4w/4GwSMs5e27dlDn9uKiLHj96gZzqWY4FXfbyg01j2FCSciH4daxPsAF4Hfe3c2RSzwcnTxcOz8kcC/KLpOhs+W4qPHv+sQHYK+LGCodGACJAzW28mEqvdMoZUAoWwrLAJrhLZ8WpFEbYAGxfvxENwMPdrz72bLcb20HH+XF7J0/kvnXicPedV38cbun0+IeeA9eO2AjwIrrffenrWAt40GOfEs6dR1wD4PoDy/zdXsfH9UuSKPj7sgF47r//5z8fejCD3k6e0vIknhskLoF+JVeLUQ1RSJHMkiOi5heK0fDO+wRwUuzqT+b5BghBCPtinsNpy2/96m+GNQBuf+O0zEx+nHvnicur2Ip4/trV7ghGA/uwNY7b8DgfyoqdNz1ybn8D5/TR05fdO+zpc16f2zw5QmB56Ns6Hbv4sY4jWJx+HVNA33vntbAbiA1V3QhAeuG/SneBL+1RayvGSDlV+Z6NBuDbWOyOXwSLt4GKfZU5rXwo3nIK2PYnRQvDRG+DHoGLCA3ANizEsgH4xuPjNwDhSgZMN3Lu/09e+dHYDQA7GwvnLwwNwH/KBgD3EE3ntx8jXzYAXIjm+sNHvQaglCf+zPBhf6tfhdCSAVoBAuXo8ocFj88vclJYCzAE/fdh3mfXAPA9p8Nqp9X2FjRFMucmImp+oRgNP2BSENCqWFSLb0AkSfh+Np7atbv73a99s+N5gFXohbHynY2frA2cRQ/8fczD81DWp7iLZTlOXm7B3P5Gzulj0Y9p7skOvf3ZUFzI4OlPfrv1TTQAf/7a33Xctsp5Yc4ZV7/Cf30/BdoCX/K3nlO/wJe893sDwLMcW3AYiw3Ar3EKCN8KHufH8nYHc+7voLPxnTAFdCzs+R96zkPPgWWQnRNOAf3O87/YPbZlxzjqAy0bxvewBvAdlDOeB7h9l1NAOHfg/OriZEtcxlt4XU8U+KQv84sBlm728aLHNcAQ9J9DaAAE2zJsxj21WoFYLCaEMJNZx7UeQOYz4pCIclr4Un6hnS1YKXgw3XfwEAHxe7fu6H7jxa+GEcAO9MDYCMzGT9YGuBDGtQGOCuIUEO9/T3P6GHLzCodR5/SnY5fuBjqedgMdPxQWgtkzc93oICqvN+kSR8UYc9J/PrPaAGD7K78H4GVQzXHsT9YNsCuneRRZTAsvbImuRy7XQYdF4Kd/AQezxluE5S4cNgLsgf+7N3+KhuBIdwPl7i7Knffr+5+jUDZAbAC+MY0pKFb+LPP7Th/r/g2moNgAUDfXIfKvl2EAs9+EwuIVWoETQOA6JBOAcMaw1iP4SD9dfN9/InEwdBT0+ScNQPBc8WCTN6vH6ji0dH7fwSWOaeK3rtvQfWXvE93zux/pntn1MBZh14XeOCvlL8OPLyUrB/b8426gA9gNdAX3A90ZeAFTjp28Vx5p0g0/T/Fr//l8/hqAWD7E1hhWHgjg7IYWXqTVfmGnYDVGhGwAfvu5v9c9htO5ff8IpxdKBXwUW5B/cODd7h1MBZ3ANRA8Fe1N+VE+/zj63LhyTffoNnyWEruAXoANW7ARYZyf7EKK20D/NoxEWPnbEYj1T/abaLJ4hVbgwn9ftgYgZ7zKuaBiWHiwoi7wlllSLASMV9x+BSG0FYsF+OpHpHMEZO4UywDJVAj1BUIFmAAGz8RKLMRuW7+pexaLkP/gqefxfdYd2H2zOByHr4i/oABWAEdxYO17772FxeAPsE1VdgNZx9XubvjXLQfRUeNMCc1OA/DjaZwE7pX82gG9Jy7vSQ8k+U+gmt36L3s7xwIrkjz7wV1fPAfwT9JBMNkE0Nc4VZylnJewHcCpb04FvYpnffLyBXcqiLK48Mvtx7txDcRX0RF6cuuubivWp1ZiRDDOT9Yg3jl5rPszrAHsx3ZU7o5j2ZNf9k+R/0SQ8cohkRBm/DB/8TjAE+kynxGneIHWdFZPjRfOGGp9Y8FIJTlWnKEyIwDB+AITRWFRJb/Ai9wyjHoq7vuiAeD1CstQ2Pfgw9xfe/yZ7okdD4btmKuxOBsWY2e4KFz6+l6lT1+5hKsBDnavH8ZuoMPYDdS/GygZVReXqQtus4JvFPx++Q5XQYRtoNPfBfRtXMkx/lUQ+noiUr8D/efVtzfCLX3Nbv2XqXMsyEEyLMKiLD6JD8P/4xe+GnriPOTHKcJxfrwBlI3AQexCewUNwGFsQrh6+0YY8d3FfLwczIpXT+A+IJR97v/nXUAvYUfcQ+gMLQ8doAXjqMV8/93uIvRy8fcv33kV+k9XI4/snyL/SVPGi2pLl/EWLtRS3DT9RW8AJCN1wRNMCrNnAqByT4EvuEUIyn/FGeVV4AoQZShYItL6x3Qt3oOLhSJHTRRECBVbC7Z0U+DlEq41OGS1Ewtvj2EY/PxDe/FRjm3hdk0ezPoy/C5hIfgDbNF7DQ3AD/e90R3DidFe1Rey6LrJQaj/5c3LgEGXeeWLxDwH8K3/gOcAZt4A6Eng0opmPhKDR1fBhzOcyRJeyOzrIF6DUo4u4tmQR9AR+Yc4CcztmLyjhzvDxvnxvh9uCeXCP6eD2AAcPH8at3Ne7LgjjGtSLPNcc1iH22N54+gjqPx5CylP/65ZtgyNUVyXGkfvVaw3HMeUExuAH+G7AMcunh/eacbcij96HujryniBKkMAZLyFO+Ko0fDJoCTLsXpq+Ozih+wcHAGoWt+iSFLgC7f0PS4iB0IZ4lbcvQcmbDVNwChYIrbEF2aCJdLVcEePiE1oTfoColkNPIk4EliOBeAdGzaFtYBHsTi8E3F+rJu9pMV4EedysTZlacYB51w//oSnQj8OC8984dk7u4QDYJwT3o+j+q/iPACviRb/i1LXTQ5C/S8lOgNEpAknDUByR/JTdld893gd9IOoiH8F10FzLWAXNiVM5zpoauGOoCuY/+eV0IfR2DO8wkvysDDLcsxL4Njz531Se9Dx4XcHptPzpy5uKeYut3ewzsQG4E2cO+GBSO+Xi1P2QJ824wVq6TLewqUYClcOI53wfX4bAN+ykBfJQPniakYzQaRXRIoUeEH7L6Z1sMMOMYnOkot4xfv8QmoflEA1dAS0piKEfyq6eCnW/NAz4j3p27A4vBd7oR/dtqN7FOsCPKgl2zVF3uct5HxrmIvFgSC+/PxAN7ehcvrnDP7OotK/gBeTl8TdxvbQ+tfwv/Oc9bE7z6fUM1TeZncEkHYBJXvVPjGksLOFFzYJa/srCYE0q2nhSR4bgU3YIvwsNiM8g+2gz2IUEL4JLIrHCDkS4BZMXtDGw4mcGmLZ4BQQ3RK/CLYwjDB4KJHTTdPp+YcTJSh3x3Di/ceH9oUTwMdw+pyjjdpPNgOefzy4cGe8QiRiw8rtFtCSU+NFfJQzfbyVw+cRRwCTBiB4xnWsg5iqYhdXM2zR9QssT+juwla8PRgJ8IreBzduDnv3V+GStkUL4+VrfdmfZZzjKlb28SX/OLzkd3AVxR18jewGTl/yENpF9Ph5+EwagAs4lHYFMN5NxD7b8G+0gs0C2/9p0nk+fVr2PmNjyzuQ4ncNuAOGl5D9zle+1j0+zQNIPAkc1gCwznHt1hexAaCX5oVrvXdiFMDF4K898mSYk5+PkUG/bPb9ea/jLIMcVXyAOf+/3v8GrqA4hutGYgejZXMuLlqCQnY8uOQ14xUiERtascBZQEtOjRfxUc708VYOzZr33H/3z/Jb6UsOnC3HypyNza4o7YWOnizfShDyup1KdJa8r6gXR2YbdC188Rx7yantULW+ArWTldMyHNJay3t6OEzesi3cWb8bjQK/vMW1gewnZZvziFT+0rtjZc9KPlf0V8J9P9z+x62ePAjGXiCngrj3v78v23dD9JSLdxAt/9JfstgZvmuA7xhwio33H+3Fmstzu/aEU9LTcaI0ADzxfB0jnHAOQAQle9W+Ai5JCZXOyafSVXjlDCQVWhh7JZagTDcvTDWuxDw8Ox2/gfMAj2P0yXugxv0ugKqa40iYasKlh9z++Vf7Xg/rTCxrw+XM84+Flyb3/dPH1XCpQpO8SmwFCOJqOX0t/edj4cAU/OPiEz0MmDQA0ZUjObR4f3pJ78FHR+vjz088PYHhgBWW7BLazq2iGJo/gimhnYjzquZVOL3JoTPp5roxCAd9MKRnhc5Kn3/X8OJxcZeVP6d4+MeePz//KF9/+rk58aseGMnPrpschEqnP/jfA/AfthmyMaWf4m2nS8KJU46wWPlzao0no3k9Bu9BWoHpiOn8ePlZ3gX0xW0AZCpyDxrEbzz5fNgNFOfnp+eX6fhyVB6OQjnVeBiLzTz49XcH94V1JsL7V43k4qIlJKjw4KV+j66G3ycNQO0g69hel8KQFlRTNW3gY6Vm2AOsD2nhezVzYrMCa36RHulaeKEWPVY6sQlSIwJrq9ImXnYJcdcE7+3Zhgu79m7d2T2CqaHH0RjwFk9Wcnxx5/LHS7U4l3sCc6085MM7hi5gioeVPT/6zgqfvTEOx3nVA4fm4UXEy1j7seXfmJOWfwYER7/i3/BdA1T8vOSMH7Bhg7mFFT7juAaD3zVYjquteeaCU0Dxb/o93cEGQJ+7RtS+mMPi38JRylXAC66U7L8vyhlwNbvF94spfc6/zboWwI/DYy0Ai7TN5zFs2JxAWbbYKTmBcwYvH34/NACHsduIC839yp/KR7U7+8n6J8MlKxavUAVrJKKKpNBL/VDLzxR9AT5dVODhR8n/WCOAyrxSc5lODJUfHDqRXxtuJdTsFi8FW+SJwyVd8ysmRFp4oRY9hXagE6RGJPkOIgnu559x/rHnyu2ie7du757EmQHu2uClbqzoFs3hUJ0NwA1crnX0/Dkc8DmAL3wdDRe7XcJC70effBQX9yS/6pgYqf0Y813DLWM//xaTUskn8SZJftIw9fRRobPB5N0y9BcvvuPfZjQC7M2ux7Qae/qz2XDe+wagX9HZclX72eLlsfWhK7HWxNtBn8CayFcffrzbjTWopfjUJy8s/Dz82NG4hq2fH+Cbwz/84F18EP5EqPw53Vj+muUoMWQ/9T1Bv1YSS0BIZ7qCoUhm5ojIfBljYy26qfGj5N82AFa71mO9SKCoDXdymggdbNZWC0x6Ss4yHUVk9gJfJHsKcxSxzC9gy9jCy4sk3BKqlFpAIBnpAYGXdOHTfdhCx3MDm3FtxMNYG+ApYq4NbAhrA0sCneierZCnKjnvz8Xcg7hi+h18a4Cneo/jhK9+6UtHwJpjo77OvqWr8cIe6Uo8/TH/AUzxoOGT7xrInP5mXCUQbztdHnr6XDNhL5/z2YvTF8zIP4rvxYqpwtgA/Gj4IFjB6OosMzgqn6FjngSgEQGEMOMFnOh65CxnHCHtRmfjq3ueCA3BNpS3cU/oiobZDNn7v4SRJ88XcO6fBwx54ljXmOoMGvUZ3ctwj2L28CK00FMk2/WqlZPtE7iEUXCNrxQGhj7dpAGAS/oOiS61jmvh57IBoD39iiM0BOjhspf2DBYv9dwA1wbQe9O1Ac+omMGR/5XFX04DncfUzyF+bwD7rQ9j9wW/N3AVQ29OA83O7YulWbGi5g4enkzlmQj+xW8VLw3XWbNB3ID7ZDinvzXddroeMFZi4Zpt8Pb9V2qYaZq7T/4NPn0p10HfxXSY93PtqAuYEeHyGap+ObHlV8hqNYmuRw5vhTUUNqRPYYcUF4WfxGiAd/Tww0BcTL8XP24l5bmS46jwX8fFglx852EzbvvEnGM0qc6gMTWjexnuUcweXoQWeork56IBePa//Wf4HoAY3AgdwmYBLfgqdQW+tMKXHyXV7JWGKFLBGgnwml8saNFZvFfn+vYns3wDkn1RD3tAsljHD3mvRUXHu9y5ZZTnBh7HaWLOdcebPmfvReXr9QlGARx+cxGY2zx51z+/PHYIo4JTl/AtYsDja5hexmh5sj8EA/9Y/5VuoN/iNA+/VRzn9Llgyy+YMZ88ULQadypxGqzs6cve8pbvB4waC/Qu7qD545/+AN89OIAPkcRbMFmJDv4S2McP8ym0dJCjJJMpZ6DM8IJREHx0YKF9XCNZu3wV7qja3v3Snse7R3BJHK8RZ+P7Wf9Y7q9jm/FJnCrmraO8auLIxbPpwy+9Blfy0TCwVSayGOs/EevhM1wpJWLDSmwE1PzCZhlqOsHHd8/PX61n3qQBYM9JHF2GFlHTWbz73teMRpH/wCKZ4Pki8Mc0/9gY8CbHnZin3Ytte0/tfCisDfCofThFjLnxce90iRr9f+V7A/lbxCfw9TF8ixgvJxsHHvTiVrxoa13grOTsP+aHvUvaG/fpS09/Meb185y+NAD8etla5J3fNbgXdydxIZL5fBuN4B//5Afdm8cPph1QuO7aLQgx9z4++6PvJ4U2ypHwSHkJtbkAEbrsgkhtN5M8HcyPA23DVc0v7NrbPY4NCA/ihPoGrKOwEeBlbmpXT8dsRlmG4hfH7uBE8WVs9TzV7cecP2+Y5QngWMaS0VQs+WgYkf0zTJjFDOfQw2e4yB3mrx0X6Wr+YTk1nejJ9YNw2rDWgwbgn4KrRljGlKo1G7KWY5U4yRGzS7imi0gt30qozbN4FadgjQRUzS8cLbqEt2TCnJ+3ryDpdwSopBgRPzAMU0JhpxAWPddibQA9NW4b5doAK8ll6MkJfSFmWkm+dP1vEZ8L3yI+G75FzA9yn8IQ/Q6mi+JHwYfzU7sh3kfD6R325sMZCE7poKfPCp+9fe7e4QIvvx8rc/qLUAnF0U5sEKeVoWkyycnnt44d7r79sx927+IqAv3gjVakw/nvFYigvaKqHTQeXcVvNVTobFD0BsjZSLHcsPxw8fwh3Nr5NA6J8XsBbBS4FZl4K3mazhxgYzljI3sZh+sO44QvK39Ot3HOn4vA3HnmHiysM2g0ZPTU1rfoRseL+qTPVWsRWX7Bn5I13tL5+EgXnt+kARCnTdWBGPHBWDIVrODGExm1oh6iY0OwVNcGcG4g9dg2Yu6WH5vRtYGGDWr0CBG+pHFt4CrWBk6Hu1i4NnCeawNpNMAPw8SeWhSYT+Sip889+guwFRM9Ss7Zc5qHW165fTPM6eMgHK8k4KLuCvT0ZVpnBNPmlIT54ZTEKZx/4P0z333rFeT/ZMhn2Ir4JWgA6ECWW5Y1+p2L7I+iTD2CcwJcIOb5iZV4ZmyM+b1pTtXN9Eff8et1bFx57uQaptTo4/cxwuQtn9yCzDn/fnka1Nko4xmtb2ZDzDBdS07Gi/gkZ1gciCzC5U/iarzV4+MjXdUAKLu1Q8A5dCQPVUyZCTGPzxD5dEJW64kGO+IpUFhjWCQrfKKu5VnGjLfwUp1VTm2JvmTLAkuWwXTfD6xYOWRnL5k9aN4pxLUBNgSPIeRWyNnc/igG9b9FzLWBo1wbwFbRw9imd+oie2v8MAjPBsTHz8pkESqNcCIXU1Wb0EBJT5+7mXgfEqd1eGkYpxpYwXBKiD39UGBF8T0KWfmwZxqvuT6EBuBg9zamf85hiqKsmPrPZ9Dc4nlrcSjgJe/IdJUc5QwiK7SUy55C0jAfHJ1xkwFHY7uwBZmNAEcDXBzmKIGjsWZ+e3LLKCt/+o89e97weQpTitzqyZtFOaq8eP1a6GywcWBZ6v/qfCSsZlcjfTaNe3bXcoflZLox8cPksCsislw1tYh4dB68YGdN1B8BCLqp2CHwHClyJw1A9MRcNADiYz4Drg1wH/wOvKh7cG6AuzkewjoBF03jDaPxAi7hmY1Q1gZ4Ong/vkV8AB9/OXTmFHYOXQ7rAnxpWZmzgWLlz/n79WiUOMXDbYb6rWLguduEPcpmeZoNw0eUIXP+3InCKQiOeH6Kg0icjz6DCuoGeqvlr2l/8R5pfVDAK7kCaNFVeNUQJFTogQYgEsZOC/PDxpmjgZ3rNoXRQLjKGc+S5YoNNtdjuPuKV0iwHLJjUv5Yf7NTIBfHsVJnxX8bd0pdvXWru3Djajh4yAaADcFV9PrvwO/5Z2UOqIikSqaRLKIX855TLXdYTqYbEz9MDssiIsvtGWuiHp0HN8xBT2oASkRMe45R6oaFGe3kNBMEkRVVgVe9JoLqVOmka2AlKbos4JYMUitAtEvBGingxqBajmWDlgQo4K6UnIGSJKRz/iOa6XCVBCpTbpPcunZDODfwDD5E/xB6bnFtYHaP+LP3pmsDqAzZEHDIfhIniBnnj73HcA0DT+RyARf2sUHQOX1U/KHigP1lnmLO7t2/Mud/Bnn5ADtR3sdHyPefPBauweDCN+f/PZs9uOZGy0GMaFIInOevdA5e2GNInwpEIwGQ4cP4SBQbgfmY7uHz4rPjiIDrA/Gw3dowGuAobg3g8aZPTA+hEejnP1b+cZqHjSmn0i6jgr+Aq0ROY+qQZeU8zpzw5tjrKEdsFD76uPzEo9gZw758i0kpza5GhslqRxi6jLZyMtyQI2HpBJvpE36YTPkzvUiwoZ9/K3hIzpegAYCbq5x5Gbfw+vkU+OTnLN7iM9w+kOrBW7Y5bwDUGhjI6RN+b4DnBp7CIt4jGBFwCM/KmB/k5svMXlrtQ5UydoSNwQ0sBPNl5h+nhvhj5c/Gh5XGSvQk52JKamxjCwZ+1yD0TFHpcNsrT5jy78adO2Fdg9MRnJPm1cNncM01e/4y9eP50IOrai0fMaJJIXAKmtI5eGGXMNuhnAFVs1u88Mv7QixlcTqPazfcdcbyFA/hoQHg1lyOCFC25BmLRI6keDX0hzhhznl+VvKXcZbkPBoANq7s/V9B5c8eP/3K/+SX7RdIDD24UolyyYAibKQlJ/tJBQYBGW7lVfVAQmf6JMeK6wmJiEzfQ/Wivt1W8JCcec/8N/+0eQ7AVyA5EmusQoUqWCOCsmFhoVIXcMskKb+HoxQqRwpV0qCKhFLCiFA2AVdhSecI9MANBU3/J3uG6OTcAL/7yl53+N4A1gX28uwA9nhzsXUutlFybSBWnrwnKA7fF2PBlydyOcWzEJUH7R2yuXLvZwRghSMLkJyK4FZDNl6c7+chOF5/wUVIrmtw8ZuV1FQ9fzW7eO7ItaJMpAD7dAVhEqLQKcuT/55kNpVkzJOE0PHZhfv9UdGzDHExn2F8xuk5Y22AGxTYyYB7Q+XPrZ30M0/w3kUjy8aAN3myvLDRJY6NRL/yj7qjXaJf7JGwWZY8RhGQwkw27IfR8SLYysn8w/hcPCyfUEuY5Vi6DBfKGA7550vUAPRHAtYh4obsgPunAejnnXu72Qjw3MAenBt4Yseu+L0B9Mq5U2gu7xQSOz4PIZ8+K3tWMqxsOP/MyofTDTfZ00+3nXIqgl+YYgNwEZV/OPUMmtAzZW2WfrlcCaQIi+LoV+yWz6crBIodwu7VAEKneCtHwbkGEokmzHQCTnKAYIy3sfJbAtyUwFHCwgX81OMDsQEIV4vg0kB0EDja4ogg+lNk8T3OcRuLCA/ffg6uYKMmyx+mHx0vYq2czD+Mz+63fEItYZZj6TJcKGM45B80AP85RgBWgGVjKuLbZFPLaeopFFTSCnxpZ5ZfcQbSmr2gK5JZfkTU/EJhGWu6hLdkwqxhtl9BIaIVQYNf3hyPjPLjuYF4ingz1wawrY9rA7s3bQnbLe/V9wZsjucuJZU/RyjsfV5BZc9pKk4/6PwzpiOup14+5/fZOPCKB153wUqLFdZUP+85Ko8WB+dJFQWooirwIlfpHLzSVXjlDCQVWhhTOJy/JAMByytlkI6djhCmOiRM6kiln6Z3an9GWZ4dw/qzkS28UnoKpsznUAOV8q6CYySLHxNfkVeAoCDLF8WWzsP34ZMGQHzH0Pqvh4mIvuN6yIqxpkuCXflRmldwZ6sBEJupR75FHNYGsEuI10yHtQFMCcWdQrO/NiD6P8tQdu9wIZHTC/xEISt1frSGXzG7hPnm8E2D1ADwuwa81uL23Tupl5ore+/5lPlp0mlxcApEUYAqqgIv+pXOwStdhVfOQFKhhTGFfv6SHCsOXBbQki/0Hp2vPxrYwmt2PAWNfNZsNn8iP9ONia/IK0BQkeWrRolMie/zhQYgc1lFfcJMwxbQ0vVxjmZDktkdOZkgijPcvURBFzGx99Gj6kWtvsxu4cpQgSMg8wllRRgQLt0wuQhr+nfUBmGq5xTXBhaEPdzmW8RcG8AfF/U4WrhXl3+pM2YQYc+SvXZW+PyACOf0pbcvc/qczyeef5yH5qhA56DZUx3Qr4+vfsCGOqOVw+ClXtTnabE5lQRVUrKCQFvhRUJBJ+AY9t8XK8Fna9D5jEb1VOVTbGPoi4t2+PgkxSPQbGgkMqR/azZLV+OF3dIp1GGowQV/kZQGMsuVmISRoZYreAnx7DkFJMm24EjZfHANzRld5UwUZJMQc6jckuHbZyW17TBmqCWZT/BWrkIrcAJUcOGIoW9/wotHZionZYT6uDYQvkWMheEnwreIce8Lzw1gbeDz/GlAekSmFcrdO6zUuVjLSv4ivmB27iq+VYw5fd5jdPH6lXCP/G3gwxx0r6pXt9YPOjyAFj4+pX7xVA5BxTCB720DQDvFPgmTeTbZs90ilF0oKoAgbJj1WnhORT2+uBY+SnL1aDY0klUjVuu1dDVe2C2dQh2GGlzwF0lYJiJD6PHXcMOGRNUAWALPcR7ccgf5CWQNFrqmHCcHlTSProJbzgothhUOzknLL+S1HEvn4i1ZVtOLBR0FXdbrIIQgha6fwS6VD7eLck9+/N7A+m43vjcQ1wb4vYHV3fJ79C3iIitVUir/2NO/G7ZqSk//NA4RsafPbYXXsKuH0z5sFMKcPnv62H0SvmDWq/ypQL0qD066SIqIZmhS6ArrXL8XdFLTqLwKL4BI4dNZjKYc+1RqhVfOSFIlC4AKKskTnUOubJV+xYSIi05kLT+38KJNnoOmi0hLTrZzOMOj40VxIadISknNcoVPQstQ000aAPFUEVrH9WqEgi4mhxzbJ3TxnpqsMCnoS8vxVoEUSpcu6ZdGgPT5W8Qbu6exOMxbRmVtINwphIaC8lyZonSOQvbW4wnSfHqUlTr36V/HCV1+q5gX1HGqh7t3LmDahwu63LLJnSeD3yr2noM8uEkDYJ5mv7wUiJDM7tQCZsjKhF+WIr88hpJP0j5/pGjhRc792QD8170poPzkkk8swHsQroOVXSPqa0ayvGG8EmdCBQV+STn4jBb5Egomhj57QV8k2y2wyK8YBWENKVLK5RtoOLzn4MGVOcmnPm7Xi3cKLdZzA3u27QwXgfFOobA2gO19XEO4F794vgC7d7AfX+bzZZ/+ZRwiusYFXHyrmI0CF3zjnD5276RvFQ/eINnwr1Z4+kBszjM4xTIgEDb9n8SNSicvTqGm/0IZA5XOyafojbtxpmjcq+yp5KivwosZw3SClVDskHQZzjU+97sKewtDshuH6Tx8hotAy9/CC1e2UyDjyenrmffMpAGQ90m82QutYz3H9x3aY9aoW3AbjKq9QSeKPD0eXPjEAaoPCPLwL54b2BLuFOLXoTga4HH/uV4b4HbLjz+J+/S5e4cLtLw6gNM4vIvnUjo5Kjt44j59niCtv0cg+XTd6CIi5/3VAMRnL50b8V0IUwHJ5STHhvHCPUwnWAlb5XSu8fn9LuwVA1OYi8swnYfPcBFo+Vt44cp2CmQ8OX09aAB+FwPcJMDKgXQBxDHwTB+AmCsVjqZTpCXf5asFlRCkWaGV4AoQCFy6itwCaj7R16JLeEsmzLRc49FAmyxTLT+OiiddODeAmzlX404h3vnCcwPhW8Sb525tgD1Rnha9hZ48d+9wGkemdOLunSuxp8/5fDQKPMgVTpBiTv/Tn9vrp6NvrP+az8mSq3s9v2XyHAtMRVIEeXIELwXVYdfXsioXIsDJYCXPo6vglrNCO+Uzc+XYVH7J5hf0gkih77/IV9tXCGjKUYJhxgo9bK9vpxXr0dX5KPQUSSkYNZ/oswyku48aAGS28ox1iLqpAieAB68KhEiS0DJWZsgLZMmE+Z41AGoAIguwJZTXSWxfvwmLww+nbxHjTiGcG1iFe194XfC4dwqxW2Hn9FGZ3423QnKPPr8pwJ4+r2OQBuAC4lfDXTH9E7nWca5/U4ZqvOQ0ybHiBDlQfiIqk+dYwBRJEVSXQ8GkMBnosMt7XpcLEeNksJLn0VVwy1mhpfyq/hjJXDkWMEVS2CRs+cfHR8G1fSLZhr6cRNcQlNHDGWrKVzUev7VXH7yAK7ZW/i0D7bcNgCvYInLGBT4cug5oCMhoa7BqyQQBVFEVeOUzkf6IwEqo2S2+LO/lg6n5RbGVU9MlvCUT5vzCO3ghdP0uBCl06VR+jPBf0lbfG8ACMQ+QPbZN1gZGPzcglb/cGcTKnqdxw1+6e+cKKn/O6XMrZ5jTR28/zOljSogLwfV8frJX7S8ynB5c7XehS4wOv4J9AUGQ9syVQeQPh95z8OAqRc1tKEr2VlStfFT4KKEClwZJWu0TgIQuIhG09ESyln9mihdrZUSm6SKS/ZHylfAZLgwWr9AK3Mp/Yqj4VKJEQjiVHfdxAxArtegp68mpHBY9avyLRItf6Ft0CW/JhPmeNgBiBF8qLgCHbxHzewM4N/Ak7hSKawPp3AB2CrGx6GdDTuTe7V38xUqdlXvcvYPbILE//zRP5Ka7d7h/P35eklcwxGlIsYOh95xquHBFi1p4Y7iwUp/EfQGBYtIAJEclh6nfxH/iyRphGBtudkdkombSAERP1H7Mjp/3NNYAJCmvWLsAR45asLheFItkC9dUQ0DrAQ7UAEG0ah1bvnJGOTYJWAWIWVGwRkbib5g3VMNFuVFrGy/2WrOEW7OjzztjYizxlXg+F1kb4LmBTfigC9cGnk7fIuYiMe+DJx1FcK9+2KePOX3e/X6WB7JSRa8ncgHnnD/36HNen3P6vGkz7NMPJ3KldNI0m6Haj7OFTzoLBVl6imVA9Fv6t1l+R6VL+h01PXdECp/OYmyKbq0gwcI6H5auZrP4lM0B8YlumJwGCWuywyQ1UdunqMRn5VhsTrXkDGQgyRcZU+vJfhqmmzZ+WByMsogsP9s7aQDEFyFsO8yQS0LZNBKl2SRgFlA/EBGYQodApbTwok8ZSvkxXVbwSpX4XDwI5dzAtvS9gYf5mUA0CDwzsCB8JrBLH4rBxz+we4d37ZxFT5+9/bP4AAh37/Cglp7IHejpSzbUrgJQu8FmePr4SQNAn9cV43j+lefmPgcrTsipuRenHSapido+RYVICy/UTTrHgAx2DEwKWnTTxrtqLSLL1xx3857+V9gFlOgsOYhqDuE0oec4D26YmZihnpJ/evlANaeMGjGmuvhhcmYs8Gc+I07xAnXpXIRwxtDztwe33HwMbkaSAgkyHaeDON2zFCeFuWU0/OGDL6vwUZAwCsDVwB+iV38Ti7rX0Mu/gUbgJvfp449w2b3zyaefJHMGevpZXWGyRdTmt/ApPzXjsB4rTmkqsCOv6d8k0aVTRTGiSbFEARoJGE0Vdilc+CUs6DK45CjTkbJmt3Q1PmnwEWJCCF0yqcga4lz/Kp+11yhnwjcgkLbli8RhPVl8C1/IGSanwUIYwiwfmEkDkH2TH5x1mFBkxxX4Iin04vjMlzExZhldOhdh5WX7R4NbKpZra0+Jl3JUjQjARhjvgV+Ij74sw1eiluGLXzINxIr+Fm7XvHn7Nq5VxolcPZRlNdTqkz2uWRbh8ic1NT4imvnOGbcGi9wS6ihq62nYo9mNEU2KfgVoJGA0VdilcOGXsKDL4JKjTEfKmt3S1fikwUeICSF0yeQ5NcS1nkML/yVrAP4zdLnSA7LPSaBw5zBenorvMBEYe3U+XeOJKVrkieYiLEpGRV3gC+5eBWg5G2wQk+gtW0+8RXjyfP9YflHXUxCiHr/CZXrFMyAJVPpKQQRUDQDBMDE2Ag9g6id+CIRfiyKcp3D50fj4ERCsCIgdpfyUzuaNlu8sJtJnfsF4cIvXVKFW4K3nrGy1AUGE69eswMRc+iRf9RkuJBShkUChKcc+EdOiy3YppbDGMIFr7DAi0+VYYXCSP2I9khzw/7f3ZQmS5Lix07fRchit7/dpv/8RRiQBAwiYWyAys2amJcV8NEjYAhD0CM+saqnVMbP/2jZ2Ew7e7+dF0OaGBildE3s+6zeAzwsg5hVPDA8KnOfo/Cq7qBWIMhdjL/WDV/X5Aa8GSh95fPGqBtwu+NU+vlgeXwCb29p8SBxH6e/1sr1m2LZOv4IRUg9I5SseO1nHAYFHmhs41tO5UR9R8t0/6kGAGEAsDhI70R/LQwHIfEL/jOM5YNQzDchtrlrDXv/zArgvIq4BA7/BvW7j7Imtry+AZpAFALgjGVecdcAtygcbtMnAedKn6andhqOsd/fwYq8OKa/56rN2BFsi9V1RBSOv0lc5T7Q8V3nNk3OFUfOPusARxQE43QxdL3lEp8RxkHrpH42/pZfj5sIwLlHNWeVDHMe1RWyD0BbeT/CG/t7jrVtPYivoW8eDhoE1dvq8DRQi660i54ssNmreKn8JY/lqkX3kJDZ/8k8d3LseecSKI8tjT97nBRBTygVfTA5ss/Jiaj4dfEWwJVLfFVUw8ip93bMnWp6rvObx+ZtD84+6jXYNqiB8rmbobMkjOiWOg9RLf7RpfpNejpuFMC5RzVnlQxzH9T4DEAvvJ2WxehQEOpwj+wxF9fN0orm6ibKMBm75w2NmdaS8qPUXcZ6vCbB9s0DS6vkn/9RFQSxOnPAg17IrnYn2ArBfsYKQPCvYHRsOHTcWwrYwA8mXgNkkTI0UgkD3zbd+6pYvqPK13HmVvsxrgvUVRzeS90xfxxKAG8YX9mva6IP+MEeyGxLZJhHDei+IJ+nPQOphW3lfx5tPtctbZmMIT5zuCeSZZw3IctGf82CMKIQhEzzuixRHyfaN59uWzYtvX0toB5H7AGLxpzjcpE80HgtISlT6nM+kh13lpf4ZR/Z6MDNV/g4g/sMYXqDWST1WDccXHDcU9drCDCRfAmaTMDVSCALNB6x1hS1fWHXK+lAgOq/SF1gTrK94uFHaE5Q3BfcNJ8fRh9CDPfmAh29oshsSeX4ihvVeEE/Sn4HUw7byvo43n2qH6d6NQ1Diu/OdedYAn8PLRX/OK12sjRCGDPzG475IcZRNtgvC0aJvWzb7+rwA2hzrpMb5Ytohi8Uffvvb//p/f5QGyYOFNYIdhOKC+AGBsMaRhzpVFruv6sWx8oELZ1uwf3Xg9iren3f6AHg95cN5arAkUD2uZTRQ5yy263sCzjWP3YSrL5rUxwqLEmf/Ql8b61e3/Xwe5r/p0+zaVj5f6PpX/WYm5xQN+XlQGLEdPOgCR9ri6p4EYHg9wltCbh1oONwzGoH7qELG02Gv1PxUPtRRJhYBmW/Zrs3E+8X4g93nBXDfiXgy+OLrJFlWcb7nhnsPyofzd9P7Oap+2H1eADaJNp5reJjUleJx7swhjD7Nrm3pnmrVXcUVJKxMfh7fxMPXFrGFvB1wwiFD1H15PTaE1GLDc+urTFRd7IzQjrHQKmQ8DM5CnUPlQx1lYhHQXnDdifeL8Qe78wJAl2ODzSC3uTpebTtdwDhYNIjIjQKx8gpv+Wiz5YsZbe6fdMxhlnulKNhNJ58q5HoVb8/7tXVeo6Obd+9h5EUZWQglSxzP5WzJE+WyiBFYD4bCVR46RG/AA7KI0xd8yHSDsDpR3kMaGa+o1qbhgDMdK0AnUlb0KfvywkJ21bJKzPMOqBFIlQ444sR7jeN8+L9nwR7uEfkAAe2F0qVMHvT4JA+2qm/hs9KfF4DdBCb4VsyLUwPvNn4B4h7wieQLhU8VMq/i+QE3faK+ygQKnJjnKmnajLwoIwuR506M53KV5IlyWcwIrAdD4SoPHaI34AFZxM8L4Gtz5Ht6Pd/5c5Q3sVfs/x6O5/9/yQvgn9efFNQnVg6mAVV1RmoTZACTPREDLMm1UfnOe3FzL/2VD7Xbztl13Kc5aBlVMEtKTz4u04VAKC1TGdw3A0fH5yt28bjEF1qDsR19kojViXy82uiE43jF1JyFP5jT/H/WR87L/3COD4JGvM9ar4BrM87X5VnXHYQt8yqx7k4DvaWy5/6qgz6+82q4vKsP33fFuc6EX6XWks/xNVx9X3Ff8LX+Eq/9BovSlDjU9AklFvs3gM8LgMbGE4uB7QU/EOagZVTB/Cg9+bhMFwLBov+TyuATw8BR8PmK3ecFgLnS/FqCtkh8XgB7hPox9jnVcD2EmCMu4oLOsuJcZ8Kr3/R5mHB1UO4Lda2/xGu/waI0JWwalM6EvwDCEovXwtRXfuycIHj4BskDhrAsxsGCLYxGvdLBF1HxKF8PTDC+eOGLWGUrWxPKh/MwRHSfagdwVfkZDiM557AXDaQBViXy+arPhIdZla10TUw+jMPZfCYc5VA1/nI+bIBYArvg6QJwOFHfg/dZ2NcGBb3R2IIi6gdP4JBbXE9bCIBYQuXB6vOLvAaSclaqDmgKrw1zn9DXON1DZd8vwlpP84B8t++s83kBYJZXzPF4Utw8X3RVsqziUZLSNaF8OB+OaNxitQvS5wXg46H51ISes/EmvH9PxRc7bqIZoHrwGg5Zj/w8OsP18O069IcXI/FE/eAJvNfh/syB5eFsFr5t2YVJoJU2HtcBTeG1otbDxyKf03FhkOlar7reLwog3+076/z2t/+5/ggo9+gUFU7MBkt6bVzY9LGVwmC85S9t0M5ASLjWhTyiE4mVBkG9F3zh5jDIloVX4oK3/cNPTgUOH66n/E3PfXffH/LEuSiNsgHE4iDyXK5jvBlWuwXWxKSf8KhWbZHOegKf7mF6UaOQ9GkHEG30sawpObPpUQ8x/CYe4aE8VgSjvhdinDqwRLVdOUtovcsGgpwv2vAoeYM/bJSe5fWgE57+sVp/B/Af/gIoXmXz4gvIeZWe18YdYUTo4ERJe/PiXjTY/FujpYu18UaIpRt0/66w/SDbBa2DLkfeULTlu6eg6il/Lzs3eIjqgeydEE+ci9IwCiAWXh8ExAlvvEpfYE3oMRhvwqNatUU66wmc5nYp9zK/iBvQttKnHUC00cdy1ZWK00GgrU5rbz3HwXSo7gn+4j1FvWq70pZg/1CcBff3NRxs6TM14AZKz/J60AnP/mLlL4C9317VjxJcYAv3/1xYg0E3joyoo/1NqAbzxjekdTEXQIfGL7u1GfTZHx3Q/CjdEm2b5SvAbRjOec9u0PMAABtaSURBVDi4vtrg1q7/ByCvef2e4Y6Y50fmOUpe6y/qNZs8ZxVkHoKKIxsHFwnlw3kY1DrMq3iv31D5nMm5oQ2PP+a1A0z9TXhr73oRkLJQWxsLc36T5TZXx6htoWdflK0CxZvmO+GohuOgL+Szbu2H8chgUeI7PvYbwJbtWlSvJtKw1Emh06tqc1umbYFrf6snBzsJTX49eJ7ooflwm5QpDtnfM6/ZL23jtW2aV0D5cB4Orq82UT3+rBkZwYt+Gx5VdAOgnJhzKumwz+xzoSxT8czDoeLI4pixbwnlw3k41DrMq3gr17drDo3vZeTc0Mav4rX61M0X8dbe9Tkk50JtZRbm/CbLba6OUdtCz74oWwWKN93DhKMajoO+kM+6tR/GI4NFie/4rBfAP63P/yq0az3XIyCNS73kNZ/c+ioT3eDs3x0g8dDY8B8+AU0eOAnWT++y4RVev7DT+SzB+aqMfkgP3uQz4e4jGsmyvsoEGjhx+iMJ3Eu+WIo8N96HKLPG8YxwWvGe899/zqvf1AfjOLr7VDuAq71nnOi6wPHCPYRxX0QZcq7MVifYKl/V4h6fPicQWoVmD3DFaPzkoh/kL2YjOJKKnZjqMP6efpy/d6MaQN38OpvqVpztK7798wVwJrGnAdkdaxKN3QxbO6/SL8tnvPu8OzjiobGcWLc+e9DEYemJaMchvBehvnwCWbcrsJ/mY7j2mXCvIwzynK/7UF9QcQr3/7wAMJEevzffvJ/X94hq/BwCgd5i3GeDY9uel+hD5UPoi8YDrPuzCkK25HV+0Q/yKICYBM/UxFSH8ff0+nxoDO1UP6Com19nlQcc/JhLJs4qeayvL4BNvzn32qya4dle/3BB07Xt+AUKw2mAE/7dNyvqQ0/9g5CTRaZE7q86sbzi5S6q89mxHiTzmXDln134KhNWF2UQRSE+PwQeQ2evCvlFFLym7zbiQClvB4EdpWsi9c8CxiuP8eov2l5p5zV6uLMxoBKnewAuX9hR3xaxLVXWxvshXPQZdf0bDvv6JRS2V7VWwbeZzdURte3sf5W6DMQx1rGpQDcwl4k34AnXeplH2fdxfgHAY8ftU7xswwUhcnLRNIvj2wiQtzgNdsLxQDbbSKs3a/D9oLJbPYhjwf1VJ5ZXvM4+uloL47EenPdw5Z9d+CoTdi6UQRSN8Pkh8Bi6zwugTeZsPy8Am0o8JjGk5wcys7nyQYbSHcue/Qu8NuaneONz7nYjTxUIPfqq52PZ+7i/AJ6NT3Z7VT9KcAPuJ4C081UmXIhggLABaX4DDwZfvRjdrkRWr+vjLPrgdPNp234hrMdoTDjhfL+mj7LaAIVOVOcD6ad49hmdeV1UQPwanr7QIyoflYcO8Yu8SodJtifuIWW+ykR47MU0fxSKF09RbwMkbBHbSFPmIJEV/accTMTn30nSBjxzyDwcESsvz1FxrX+XZ3WUzzz/1ifKekzfZ96Ewy5560rtL4EDwqLGXa/ULJv4ibqKtqbygGfWV5kAxaMBwia4Px+sbMBqtAYku/GiQZzm4KxmWeO0bbsMNeZV1YTsj87cmPwNj7Q2gNGJ0z38FM9nMDrzuqWNtfka3uiXmfJR+Ut6ll/kVXqYRVrcQ+A4SCbCYy+m+adcGcDOcGJN/Qk8XCVeKyVN5eGIWHk4J1A8L+mbSF2Zj+a9xuf5tz5r8etz/szLvp5x2CVvnfxv/v2fHv6LYEHFwmZEvjVxG5uw4n3wDd1PaNZ7WI0DdI3kCX+k3/0jIbQmu4UhiCXu3wSQiMVJZB44YuX1OeIBDnajA/+uf9r5KhMoeWKkdSHjKTzy3/sjoZBHV9FRZPYiec84zxdy46e+5rFDVDzOhwILi6293PoqE4cfW13AeG/izz9/Z4tf/pxBOtQ3Gj4ncSqoI6ZN47ze3g9AeN0Lea4gWYGsH8BZTPoJDzdVwAkJtwMH/pyH/9a//wLYqu1XPMvm+mBFCSwsVnq12ow8UdX57t3BSZ7wR/rP8wLYx8QgEO2AkabTV97D4IqCfUzPeche+yfqq0zA4MRI60LGU3jkPy+AOlAbc8wXD0AmKj3maLr+z3z+OmJ74H/ZFwA+J+2QV8t5zMZ5vf0F3zNWIOtfTa0l5lezuZvwYKoCTki4HTjw5zz8t/68AJDo8bHA9iRfSySfnGrC9WQDYwaOHoPLL+pqix142FPUjR5qwrKRYkmsNCg8bLi/6sDyimNM8MtovEnPeDrYyuupssIg6AJHFT4/EI9pdBKxBS0SsQBS4lQn2xQ+lK6J1KPsezjroEd0n2p3XfszHuq5wKFO88EPZK0NlLm+B4yheRWJ3dCn7s/rhRFaooSfEzii857pi1QBbtNwzsPfou7/PTzbqP3UKqvbqREXdN6Wff0FsM12P6Un2+g+Cjm0LZumDOyqcdDPC+CM4+Ef6h7qQPU9wdL5VZZXLgyCLvBwH/Cr0JGEbxjQAokS+wNfwLXJNqiCUSldE6mH83s466BHdJ9ql2PBquGhngsc6jQfDEiUic8xFppXkdgNfer+zIHl4YxR+DnLdm2c90xP3GWqDudrHd2/8SYcbUa/1T52o48zO2/3v14A/7h+03ueBB/w4u3ltbUaNcF69Fx53SdQbXCM+oHCfdCBhwc89m2RNtFRZSTh5InV8Cpe4yPcHJDmF12r0LbpX30yj1UVoh7QjM6r9Ou6nnHo+XxAahx53mBrI03EATj97CB5RKfE6YH1aM3438fdRxjEv63z3Na6JwcEji4R5T14/dFG8WT/qDyck/TPnSTtezjG1bpaW/NL/854jcu5xrGf++1Vvvt9lX1znc8LgKaciVeDO6wk2Daltmo4w/1C6oP0eQH4xHyOfVoxTzFnTj87SB7RKXFaYD06M/738Xp+uCJOX/ATDh9E+UXlB3g+PdQrKp4YAPkpHuVJeZpI2vfw/5svgH9bvwHEvGLRBopLvvC9vLZgWDQgL6SiUuh+7z648oFt5UaebvQ4JSwOnATjt/r4YHDa/Ow/Lr1OHfaxaPXhUPGf3kPWhT+i12nlGhoffOR7HOfvAsmL+raILRVCojL4fF/Dc75Vh2qIqg7nQ4HFiZIngOzGV5kovtjI+TphwvGADmXieQje2H80gFZL5L7CufHKdm0qj9uoeKNfZsZjPSjVZ+IpnM8Jf49RJhaNYNv0r7yn/G9/890XwK61/WsN68CTWdDTER5F4fV/8wWwjh8Dq/OJtJpfpQcLA2U9KCac8Oc7hvvy0ganUJ4LdZ+j5MX5vN9n+d1QYXB7YXh4E57nr7pSZG2UD+ehrH6SJ4BU+yoTKFCinK+zJhwHHMrEIII39h8NlH6x4b7CGZQTuUzlTXjec7FdG/NhPXhTncpTPnxO6DxGmVg0gm3Tv/Ke8u0F0P2UAXgLvyn3GpQTDcgGCrg2Lmz6eBGA3nCkEacBTjgecPj1OOoh8INSu3oAR8n+5sAyOIt/UQ8w+sF8fc9+BnD9JmjlqAzqMBCd7IWsE+WEgafpuYA7ZNEnEiBYzPMr/DmP46Vb5aVvMrxiT5x98t/0SUHxy3n4wQUPouDXsoC/fz9wKL65iZXob8LNfnUfxMeCIw4V7jPtcnU4bQudfn6rgPsMB7OvdIDj/C9iLJ8W2Wd8IA7t7uvnL4C78j7Q46EseRe+ZSFq2nhQQW440oh5YGRqnPCHJ6cYjHqw/aDUrh7AUbK/mhuc68WiPN8B+MZQbXB9d4Sglauum+sZBtzIgqzjLImHvSiAdPSJRCl/XbPCn/M4XrpVHsaUOFaVF9lIx+JA0kcA+Tnxgwte1MVBalnA4xeQvB84kK8lIi36m/CwJ30oD4VgnBcGiC5Lda7MCMQa9fmrnvuAj/EUrv2h96gMAkY/8YE4yC377a//7R8WCqIpk6DyXiHCxdvLa+uOwdyL9EeaBAZ4OtFcHULbhhsXcKgKJC2NsDrxpxdTqy/Llw3cP+lUpZY5r9KvM1SAfQznPCyqvt9zor7KBAxO/Oocu82oD0EsSn1s8pzf5JGsJtI/KmJx4tdxyL1OLQdwXcvPcBhNc57w/nxTuzwAmwsaQFQ8ylMF86N0nQ/Bw/zwBUfl0a/HaT4/xaPc0MirOp8XQEzxYdEG+2qQRd10wOhBE7zgB16VkQYxYn2wIx2Lycfw0R9+1Q4fm4W+7uOrc2xlxp9QUT76QL8t5jl7hUqUPJLVROrg91O8+VQ7gOv4DnwTh9F0TxP+eQGIC/ABT/ObcNxTn3Pk36hTXgDUbiRicSxfPtibWulXPwaw/qJYBUu4j7ZTyLt1vIxqSOQ5LfpoRGI1HFPAxf/+/u0gnKD+Son7BhoPQCZwtBMpLeYAEeaBPSLyrRvAGb/tnxa2os5FuvK4/ISjrvEmPeZfVWvHQlBOxPxK8mEz8SYc/eHFFPc19YdeBI/r1rkO8gU7vwbICL+As0R9/te1wVT3B9wifGqWdyNPzglePJ9f/wLYtXYdrhVJ0edW+v9cXAPAjNLIhBJOh7OSgxUGnH48LH0AicVGpR97AWwbKBHtAJGO81T8+Q422Xish5HC4R8fYRN4Gij8Vf3keT3dyCHk+dGfl3Vd66aS9u7b/t2KOjcCpWuCy0846hpv0vc5hzsLYXyimmshrc3Em3D093kB9Mnafpyfy0aeuO9Mx5MRjZQXQGRREIlweP6oBQz+vvG71r0+HEuwLgx84cIaLpIEil7VGQeKSsoAVQa8fwF51+MXU5aHAhGIRS7feG1bL+edNsyA66APL9Dq5HbAtTEKnDjd14T3e4A5l8/OwdkxeQ1v29QYkLpEbDXh4CteK+zbll0mEjgFxrmhDY8TX+LRhi3i20QMiM4heNbWer2QAI0bMOF6TM24bWO+MR/UrVHOJXRkXA3e5YVNLIrP3cef7gWAkrsH6sMS+kJucerJBsYMuMHrOvcgUPExDo2OPk0f7bb8Y+2VTP9QFirbNF7b9gthfbHfHZyE5nmBVie3A66NSyM5h5KOzYSrbwgun52H+Vokr+FtmxoDUpeIrSYcfMVrhX3bsstEAqfAODe04XHiSzzasMWvfQHs++GTW8uWl3CbD7u0TNvGfGM+bWCRJ2Eh6v4L7cU5UQj853p3nd/++l/3vwX0LCR5JGIB5Yk54Avfy2tbBOMXC9huUAPAffO5flwZrmkT7qbaoFS9B9yAui27a/NY5/4J5/V5U954bZsVp/NXYfqnw1kJAL/66+fAfOTcqEztJ+CWjrogBB4LICXmMSov86BXHNmILDgQp82H83CqdZhX8T7nQFmIAtYXdhNvwPvnMeqHvy3ofoAjtjrh0/KgI/JzFMpD0XLjMV71qNPn3L/olA/nw9EXqo/K43MW+dqIvkFbjfzpXwC72O7jsZf3Dhpi9yCrcaJTnQmPifniddAXUzuvu8tTnCd9pfKYpLzx2jYrGpC6RGxVhZIngPigV5teZP7JxhU5h2bR/KMuaIHHAkiJeYzKyzzoFUc2IgsOxGnz4Tycah3mVbx/1gJlIQpYX9hNvAH/vABskDym6Z7jAuw+4uKQr3H+HLw22Pr6AoA/6bzxCRe6I7uxe03g+ron3As3gGmeYQAGVk3gcqCujsb0X/s3f1kIjsYvu7Vp56zwujSyrYkJ718Q6W8+rE/GXr09pyrLskOByX/Co6zXqdMJVM6Z23t2SN4zngdGzcpLfcU5D7xGnkP15/qmD5YoFC/OINa62HF9R0Jni9hCiBiA4LX+QMcfWcj6aKPp14Wj8okEB+q8GgLtPs128b5WR/Xx9fNdLe6lMnbahv98LwD0tmdT50MJ2XcDyAbGDODIJzYbx/a8pNA4wP+iL4CnPmvfaDMOhrkgUenIrmgA6y/KZs2EKvBdlB30k/+ER3GvE3UDQEPPCLc38Z7xPnbMF22oOpyHokaeQ+ujbaGOtCj0eQH4hGrA+FaMCVqubTsuxhw+Cuf7vVrYaiUEbcA3/PwCCANanEScNxaC94TvHPLxKn9X33jw8XRufZUJCEucBjjh8xt2bKD2U3ZrM1yg0e/fCJ7rsc00H8NZhwbfw8GO+/ZEdvm6j3H+8FONej7rRUd1ofThD/qzE8sbr23zA2C+k/7reOuX6nvdoD0TphcB+sqfh4QPiKjXo8uiHuHVt+4WefI/fvfnBAXMScujMXeADrF10rbB0gWc8rqP6XMw4a/m8+d/AewjY1D7BbDX2Odis1707YLQHfqlfsaNlf+cBjfhLxo8Rb6qb8d5NYA8xFplHXLwPgp9KyzxTA9cP7cmnPCo2urk1leZCMle5LlKmjaS5w0K+/TRBzmchJ+dEodl47VtzN/pk/7reOuD6hseaS5wCPGFHET4ut7z/zNeAE/Pkx1AHH8d0g9YwzUEB5Bp20jrAk4xoaLJ5xtqJcwGsKL421/9y9//URaIA8XiGMQuFvCtCd3XxdvLawsniwawTxPIrQMNRw15bhAimgH34QQBZFo0AH8nSlYaQVEin6M6abnzKn151wTrDUc+vwBKW7kBMTNlxf0bHF9AYNe2kJ1fFF5fyK/jPjOy/QlHS8+8HGvF0x96xIlnuNY3n2qX7QStETyv7gcyxIk34dmQnyuNsTrxucsFzYPYJKexC8uZsxtIXsPbdnPtfxVI/ddw1kHvVSYC6BfvL/8C2E3t+dQZeauWvPoted+QNq18lYmQ7MX4QAZb9eEEbvAAmRYNwN+JkpVGUJTI56hOWu68Sl/eNcF6w5H/vADKddD8Ao2xxuJAmGPwYjHx6j2EjBbuU+3aLS+RaISfLypwEhNvwrMhPxfKtL7aMcCS/SfBVtYHu7Qyi8yc7ZC8hretVTuKXBY90lWY/hXnPHCL43xBv4zOCyDztRHkIzo8/2T27JN1H/CdekhbbQNSj46aQG4daDhcEKcBSpwbg+WJCQ8NuOr7dbp/3WcfaK/iPH/g9S9rlA/nWx3Y4ZyAe+HGCxp0opCc26ALf6pLiUPN8hMO58Zr2/7gp/+zXuGchx7RC7f6sR0M8Ln/4x/seVDzVvnoQtWJRoJ5FpFWOqdPdcOVfKKC1atbyFasANkArzTSsw4UE2rceDjn9IMXeHCnuAr9fl4Au7t9/sfhqcE0stw60PA+kGlgEh9uLOGhAW/o+3W6f91nHzh5xXn2wD8vAExsx5wj5nOjN45847Vtf+jT/1mvcM5Dj+iFW/3YDgafF0BM6gyUx/U8X0wf98w6MEyvcePh++GXvwCijThnLAB5B9hWPHa8gKDEPGgIbEbXtgj8Gyp1FcWA+xcZHtxgS38wjMB1qpBx10vA8ISr3/XNgkZObKzE0ihza4UHJJPPDixvvNjG4liyLivZyvjMqz58T/BxXqMHysaASuQ5FHgP6iSoTPjXF19TQ77S5GC+kY5FtaA0JV76RJvhWvWMO1EChsfnpdpxlcEHAnkPrhdl4n7CBwvEVv9dH8gtrtOS0BIqX/XU5oKbYdtCL+fihJ/i79QpvwGkIFZY1BgHisXBY8eLqvddDjgEhuxtSyXwNHA3hKhp44FuNGw5mkH2B0Y1Ztx5EjA84er38CQeQWOhGTkIfnCeHbIPWDZebGNh/dQtxFc0wvv+Jk1bX2Xi8t7HFkBhvcFzH3IL/88LoI30bGNeMacnVubkfan5Q9r8o+67uOAhjcj9WaVWftGpg2Mx8p5l43PMfaFjixMO9ive8AIICyxq9IPhC5Y+LnTwmsjB1fwpslOUronU17bmL1L3qXbNZP4CeTVYO8PrAtm/4CWh9BZsgYOs+zMHloezWbQtfHExrE/GXk31+X5Nj7LxPIlCeO6UD7rRfTjD/VEXuoiiPvCEnx0SD4UtnukLq4DSc775+3bk1XIwWV0A8JsQRtN8JxyfV1SLBtpC+kx9DX9Wwr61E7afcDReeTFOwB65fiUAH47x4vNmfvC53T8vgHsabf00sJsy4Xiwb829zgerPSggJQGZE4MtcJB1f+bA8nA2i7aFL76gWJ+MvZrqyw+E23xeADYInrO6Px9cGyzrG0/c8+cF8Hr+MUUxP3xOwGvXkml9QYeDz9Gf8AUQH7Vo6l6ggT/43/7Hwejg/mDe4nstDsrp5bOtyP82WzALndCEcutAw2uVV3WMqftoTqLfUa90sBd4wv2AfY9zhAILB+o2L8aeG91/raPbdF6l8/ULA12/9j3xJvy7L3TR9mpOHbjl/RjsU3lfxzEf96l2V3cSgMGJ0/wmHAXzxVPsr3FZP62r/UFtAttGVuBVtKqnoECZRzqISJwoec/0S2sE1oPyU9x87nvw3wB+hy+A3es+74uh3Qexo+GfTSS3DjQcLoi6jjEmHD7XkxWpvRj14omItgWOIuwfSlBOTJuGt21eyucFcA9QzS/zN3uv22BjG4siYJ/K+zoOe/epdld3EoDBifycFfiN59z4f9kXwP15rOee5ovTSl61A/2KRmA9KD/Fzee+p9/+6v//3R/zpl93mI0JXhLQ8YnB5oXhkYfsSuzltQXDYgW4fMW7Dz1ojZ61DGB/70IBaQBiz5T9fTEF6BuvF+2+W//47J9wQlmcOd14bZtiA1gPxnt4v59Ue2FZ35jqXPDBC1jaRBnJ8EJwrDw+f8VDFelYAHJ/kXfWVOfr+LMxdcHGpe/4PJEQxxJAcbm/gBuAbbOJuoFXQt0t0nSOwKsSaf3jsvNrQFe7sK2r7YU7jEKMnIyEnT99Dm789/8C2IfaA3scWk3yYCrePfjB8QlSMB/2N+I9UJLeCWXgnK/6xOkG37uFvbY6oQ6YbRqnbUPog2U9GCac8H4/qfbCsr4xx/l5A9ImykiGF8rOsNqRz/fsk7xn/MHoLvMAV5/0h2zCndeEVfV4QBQ4MT5PJDTaeD/uNvKaf9RFNz89R+hrIaT/970AMLgeceK4GCL0RN27vo5xUYZElgVxjXwvE6h1miHT4OMy2nqi5VuR3cBJsT8zd0Y+yIMBw62xRmjoizlZn7IvOcdWoW0xF0yhtYf0nshZT3hro2/H86GgPqcxJB7ni4X1DWNEfRDjV/nKqfMTERUsBhyLl/4Qc3uT3pUstHowRhx5Xq+WhVp/PsBwfyHHONdUjUFfzFN/Arfyy5UKU+JQkzfhcTCUQKJF80nfBrdPhOLJ59vtNm6/AXR/7Jtz2y7W84EhxwSJNSSyDoh+tRtAKorsRU2mHqSKN/raOt5oUGc0Avsn417JCxgMGG6NNUJD1zgoc7f14oNXdWlT8xhXmlY8dcmwlfEmvPtX9+WkDUpBOX9nSTwKxuIo6m7ug9s0B5Uvzd+bKBwL66dud0O36mFME+5ybtDqFfe1GXler5YNFzl/MNxfyOO4+Pz+2hfAPl6v3PfWaNImPA7mQux7NJ/0fcaRVTzuHwqLG/9vqhsCoW33jJAAAAAASUVORK5CYII=;" vertex="1" parent="1">
          <mxGeometry x="540" y="555" width="84" height="84" as="geometry" />
        </mxCell>
        <mxCell id="8nDSTVszZVtQRW60rJsY-42" style="edgeStyle=orthogonalEdgeStyle;rounded=0;orthogonalLoop=1;jettySize=auto;html=1;entryX=0;entryY=0.427;entryDx=0;entryDy=0;entryPerimeter=0;" edge="1" parent="1" source="8nDSTVszZVtQRW60rJsY-41" target="8nDSTVszZVtQRW60rJsY-25">
          <mxGeometry relative="1" as="geometry" />
        </mxCell>
        <mxCell id="8nDSTVszZVtQRW60rJsY-43" value="Amazon DynamoDB" style="sketch=0;outlineConnect=0;fontColor=#232F3E;gradientColor=none;strokeColor=#ffffff;fillColor=#232F3E;dashed=0;verticalLabelPosition=middle;verticalAlign=bottom;align=center;html=1;whiteSpace=wrap;fontSize=10;fontStyle=1;spacing=3;shape=mxgraph.aws4.productIcon;prIcon=mxgraph.aws4.dynamodb;" vertex="1" parent="1">
          <mxGeometry x="689.38" y="690" width="90" height="120" as="geometry" />
        </mxCell>
        <mxCell id="8nDSTVszZVtQRW60rJsY-46" value="Python&lt;br&gt;(1.28.57以上)" style="outlineConnect=0;dashed=0;verticalLabelPosition=bottom;verticalAlign=top;align=center;html=1;shape=mxgraph.aws3.android;fillColor=#FFD44F;gradientColor=none;" vertex="1" parent="1">
          <mxGeometry x="755" y="550" width="48.25" height="54" as="geometry" />
        </mxCell>
        <mxCell id="8nDSTVszZVtQRW60rJsY-48" style="edgeStyle=orthogonalEdgeStyle;rounded=0;orthogonalLoop=1;jettySize=auto;html=1;" edge="1" parent="1" source="8nDSTVszZVtQRW60rJsY-47" target="8nDSTVszZVtQRW60rJsY-10">
          <mxGeometry relative="1" as="geometry" />
        </mxCell>
        <mxCell id="8nDSTVszZVtQRW60rJsY-47" value="AWS Lambda" style="sketch=0;outlineConnect=0;fontColor=#232F3E;gradientColor=none;strokeColor=#ffffff;fillColor=#232F3E;dashed=0;verticalLabelPosition=middle;verticalAlign=bottom;align=center;html=1;whiteSpace=wrap;fontSize=10;fontStyle=1;spacing=3;shape=mxgraph.aws4.productIcon;prIcon=mxgraph.aws4.lambda;" vertex="1" parent="1">
          <mxGeometry x="90" y="517" width="80" height="100" as="geometry" />
        </mxCell>
        <mxCell id="8nDSTVszZVtQRW60rJsY-51" style="edgeStyle=orthogonalEdgeStyle;rounded=0;orthogonalLoop=1;jettySize=auto;html=1;endArrow=none;endFill=0;" edge="1" parent="1" source="8nDSTVszZVtQRW60rJsY-49" target="8nDSTVszZVtQRW60rJsY-47">
          <mxGeometry relative="1" as="geometry" />
        </mxCell>
        <mxCell id="8nDSTVszZVtQRW60rJsY-49" value="Amazon API Gateway" style="sketch=0;outlineConnect=0;fontColor=#232F3E;gradientColor=none;strokeColor=#ffffff;fillColor=#232F3E;dashed=0;verticalLabelPosition=middle;verticalAlign=bottom;align=center;html=1;whiteSpace=wrap;fontSize=10;fontStyle=1;spacing=3;shape=mxgraph.aws4.productIcon;prIcon=mxgraph.aws4.api_gateway;" vertex="1" parent="1">
          <mxGeometry x="6" y="518" width="72" height="109" as="geometry" />
        </mxCell>
        <mxCell id="8nDSTVszZVtQRW60rJsY-52" value="sqs:SendMessage" style="text;html=1;align=center;verticalAlign=middle;resizable=0;points=[];autosize=1;strokeColor=none;fillColor=none;fontStyle=1" vertex="1" parent="1">
          <mxGeometry x="125" y="478" width="130" height="30" as="geometry" />
        </mxCell>
        <mxCell id="8nDSTVszZVtQRW60rJsY-53" value="sqs:ReceiveMessage&lt;br&gt;/sqs:DeleteMessage" style="text;html=1;align=center;verticalAlign=middle;resizable=0;points=[];autosize=1;strokeColor=none;fillColor=none;fontStyle=1" vertex="1" parent="1">
          <mxGeometry x="130" y="323" width="140" height="40" as="geometry" />
        </mxCell>
        <mxCell id="8nDSTVszZVtQRW60rJsY-54" value="ses:SendTemplatedEmail" style="text;html=1;align=center;verticalAlign=middle;resizable=0;points=[];autosize=1;strokeColor=none;fillColor=none;fontStyle=1" vertex="1" parent="1">
          <mxGeometry x="286.75" y="333" width="170" height="30" as="geometry" />
        </mxCell>
        <mxCell id="8nDSTVszZVtQRW60rJsY-55" value="Amazon SNS" style="sketch=0;outlineConnect=0;fontColor=#232F3E;gradientColor=none;strokeColor=#ffffff;fillColor=#232F3E;dashed=0;verticalLabelPosition=middle;verticalAlign=bottom;align=center;html=1;whiteSpace=wrap;fontSize=10;fontStyle=1;spacing=3;shape=mxgraph.aws4.productIcon;prIcon=mxgraph.aws4.sns;" vertex="1" parent="1">
          <mxGeometry x="460" y="370" width="80" height="100" as="geometry" />
        </mxCell>
        <mxCell id="8nDSTVszZVtQRW60rJsY-58" style="edgeStyle=orthogonalEdgeStyle;rounded=0;orthogonalLoop=1;jettySize=auto;html=1;endArrow=none;endFill=0;" edge="1" parent="1" source="8nDSTVszZVtQRW60rJsY-57" target="8nDSTVszZVtQRW60rJsY-55">
          <mxGeometry relative="1" as="geometry" />
        </mxCell>
        <mxCell id="8nDSTVszZVtQRW60rJsY-61" style="edgeStyle=orthogonalEdgeStyle;rounded=0;orthogonalLoop=1;jettySize=auto;html=1;" edge="1" parent="1" source="8nDSTVszZVtQRW60rJsY-57" target="8nDSTVszZVtQRW60rJsY-59">
          <mxGeometry relative="1" as="geometry" />
        </mxCell>
        <mxCell id="8nDSTVszZVtQRW60rJsY-57" value="AWS Lambda" style="sketch=0;outlineConnect=0;fontColor=#232F3E;gradientColor=none;strokeColor=#ffffff;fillColor=#232F3E;dashed=0;verticalLabelPosition=middle;verticalAlign=bottom;align=center;html=1;whiteSpace=wrap;fontSize=10;fontStyle=1;spacing=3;shape=mxgraph.aws4.productIcon;prIcon=mxgraph.aws4.lambda;" vertex="1" parent="1">
          <mxGeometry x="570" y="370" width="80" height="100" as="geometry" />
        </mxCell>
        <mxCell id="8nDSTVszZVtQRW60rJsY-59" value="Amazon DynamoDB" style="sketch=0;outlineConnect=0;fontColor=#232F3E;gradientColor=none;strokeColor=#ffffff;fillColor=#232F3E;dashed=0;verticalLabelPosition=middle;verticalAlign=bottom;align=center;html=1;whiteSpace=wrap;fontSize=10;fontStyle=1;spacing=3;shape=mxgraph.aws4.productIcon;prIcon=mxgraph.aws4.dynamodb;" vertex="1" parent="1">
          <mxGeometry x="572" y="238" width="76" height="102" as="geometry" />
        </mxCell>
        <mxCell id="8nDSTVszZVtQRW60rJsY-62" style="edgeStyle=orthogonalEdgeStyle;rounded=0;orthogonalLoop=1;jettySize=auto;html=1;" edge="1" parent="1" source="8nDSTVszZVtQRW60rJsY-54">
          <mxGeometry relative="1" as="geometry">
            <mxPoint x="740" y="300" as="targetPoint" />
            <Array as="points">
              <mxPoint x="372" y="210" />
              <mxPoint x="740" y="210" />
            </Array>
          </mxGeometry>
        </mxCell>
        <UserObject label="SES受信アクション設定&#xa;&#xa;  Actions: 受信メールに対する処理を設定&#xa;  - S3：S3バケットへ受信データをファイルとして保存&#xa;&#xa;  - Stop：処理を終了します&#xa;" link="https://dev.classmethod.jp/articles/receiving-email-with-amazon-ses/" id="8nDSTVszZVtQRW60rJsY-63">
          <mxCell style="text;whiteSpace=wrap;fontStyle=0;fillColor=default;strokeColor=#FF3333;" vertex="1" parent="1">
            <mxGeometry x="432" y="76" width="305" height="100" as="geometry" />
          </mxCell>
        </UserObject>
        <mxCell id="8nDSTVszZVtQRW60rJsY-66" value="Bedrock" style="text;html=1;align=center;verticalAlign=middle;resizable=0;points=[];autosize=1;strokeColor=none;fillColor=none;" vertex="1" parent="1">
          <mxGeometry x="545" y="638" width="70" height="30" as="geometry" />
        </mxCell>
        <mxCell id="8nDSTVszZVtQRW60rJsY-69" value="&lt;div style=&quot;border-color: var(--border-color); font-style: normal; font-variant-ligatures: normal; font-variant-caps: normal; font-weight: 400; letter-spacing: normal; orphans: 2; text-indent: 0px; text-transform: none; widows: 2; word-spacing: 0px; -webkit-text-stroke-width: 0px; text-decoration-thickness: initial; text-decoration-style: initial; text-decoration-color: initial; font-size: 11px;&quot;&gt;&lt;div style=&quot;font-family: Menlo, Monaco, &amp;quot;Courier New&amp;quot;, monospace; border-color: var(--border-color);&quot;&gt;&lt;/div&gt;&lt;div style=&quot;font-family: Menlo, Monaco, &amp;quot;Courier New&amp;quot;, monospace; border-color: var(--border-color);&quot;&gt;&lt;font style=&quot;font-size: 11px;&quot;&gt;&lt;u&gt;Amazon Bedrock Setup&lt;/u&gt;&lt;/font&gt;&lt;/div&gt;&lt;/div&gt;&lt;span style=&quot;font-family: -apple-system, &amp;quot;system-ui&amp;quot;, &amp;quot;Segoe UI&amp;quot;, &amp;quot;Noto Sans&amp;quot;, Helvetica, Arial, sans-serif, &amp;quot;Apple Color Emoji&amp;quot;, &amp;quot;Segoe UI Emoji&amp;quot;; font-size: 11px; background-color: initial;&quot;&gt;モデル&lt;/span&gt;&lt;br&gt;aws_bedrock_custom_model&lt;font face=&quot;-apple-system, system-ui, Segoe UI, Noto Sans, Helvetica, Arial, sans-serif, Apple Color Emoji, Segoe UI Emoji&quot;&gt;&lt;span style=&quot;font-size: 11px;&quot;&gt;&lt;br&gt;&lt;/span&gt;&lt;/font&gt;スループット&amp;nbsp;&lt;br&gt;&lt;span style=&quot;font-family: -apple-system, &amp;quot;system-ui&amp;quot;, &amp;quot;Segoe UI&amp;quot;, &amp;quot;Noto Sans&amp;quot;, Helvetica, Arial, sans-serif, &amp;quot;Apple Color Emoji&amp;quot;, &amp;quot;Segoe UI Emoji&amp;quot;; font-size: 11px; background-color: initial;&quot;&gt;aws_bedrock_provisioned_model_throughput&lt;/span&gt;&lt;br&gt;&lt;span style=&quot;font-family: -apple-system, &amp;quot;system-ui&amp;quot;, &amp;quot;Segoe UI&amp;quot;, &amp;quot;Noto Sans&amp;quot;, Helvetica, Arial, sans-serif, &amp;quot;Apple Color Emoji&amp;quot;, &amp;quot;Segoe UI Emoji&amp;quot;; font-size: 11px; background-color: initial;&quot;&gt;ログ設定:&amp;nbsp;&lt;/span&gt;&lt;br&gt;&lt;span style=&quot;font-family: -apple-system, &amp;quot;system-ui&amp;quot;, &amp;quot;Segoe UI&amp;quot;, &amp;quot;Noto Sans&amp;quot;, Helvetica, Arial, sans-serif, &amp;quot;Apple Color Emoji&amp;quot;, &amp;quot;Segoe UI Emoji&amp;quot;; font-size: 11px; background-color: initial;&quot;&gt;aws_bedrock_model_invocation_logging_configuration&lt;/span&gt;" style="text;whiteSpace=wrap;html=1;strokeColor=#FF3333;" vertex="1" parent="1">
          <mxGeometry x="228" y="555" width="298" height="124" as="geometry" />
        </mxCell>
        <mxCell id="8nDSTVszZVtQRW60rJsY-74" value="" style="shape=image;verticalLabelPosition=bottom;labelBackgroundColor=default;verticalAlign=top;aspect=fixed;imageAspect=0;image=data:image/png,iVBORw0KGgoAAAANSUhEUgAAAMAAAAEGCAMAAAAExGooAAABF1BMVEVp1+L///8AAAD20qJr2+Zt3+pt4Ov92Kf816b/26n8/Pz29vba2trp6enk5ORXsrvw8PBlz9rJycnR0dFfw81LmqKsrKxiydNBho3Hx8eVlZW4uLjl5eWcnJxFjpVauMEbRkpdWlpQpKwAJik/gYilpaV7e3vOsIiGhYUQAADmxJePjo4AEhUfFhVJlZ0lVFgwY2hubGtNSUiqkXCLdltXU1NlYmIAGBs4dnwkSk41bXMTLjAHDxAzLi0+Pj4hISHGqYJ7aVFUSDdyYUuahGYyKR2SfGAkHRwZOT04NzYNIiQkGxkALjIVFRUjOT4vTlMdJChFOjFkVkIaAwYlFBEYGh9MPy81JxocFAQuJCO4nXkVEAj/5rGRaAD7AAAWD0lEQVR4nNWdd2PbNtPAqRNB7WUt27KmZVmWHS0vRR7xrpwmfdL0fdI2eb7/53gBTpAASdiSYuT+ahWTvB/G4Q6HoUTWIfn0Rq3en7Sn0+lp++xs0usf1vcqtY10JrnqTykrfVsqXdueTMGQ89ZojGU0GrVau0dgyW+nvb2t7Mo+uSqAZLHSMzTfHc0anWZV0TREiaZpSqGU6wy744X+Z+8m9Y1VVMcqANKVyTus0uWoW24WENZbxaJwhPxOYNRSZ3N8jh+56m+l3hggXT8lpT4fNhVdc57eXBKkKc3GCD97XV+qPS0DkKxNsAKtzZyi+RR5GAZCzQZuUf/WMz8fIFnDRX80y6nCxe5DoRXK7wGmWz8XYOMM4KJR0tBSyjsMjV2AvZ8GkKrjHrtZ1ZYreg9DE/eH+k8ByPQARrlVam8iVMevqYWXAmRw25kVtBVrbyAgjHDw0r7wMoAUNjubykoaPhdBKy2g7R4Zshu1WtDA/SKAbYCugtakvYlQBqhZ38vUry0HZLrnM+K9AKAIMC6sSH19RNbFW5tIeQ8T/Xsb2DX5OC/nms3ccH4JMOEOFn4AyXzeg9yDj01tNcprSm44G7UWi9ZoNmyqHghtCB/ykfQzbq3E0umCtOYcoC8IYLgHWJ77dpdKH0CXKS3Vz+kJUl8rbRJ37hr72P3e2TMZy8vuboVKANjUld3Vgwpj+MxWAgtQ+YDfOZp3u7MR8bcmaf1HOCq5Wg9uAppSKjVLJey+iWOoahkPWb0apUimhg3bvEq/XVUW8J61dFoOoBgGUCMjbBWPsLoPXOjg4eU0i5vPiNYRD52d2cL28D/Ny1Uhw6qiIS4RRodIcu8A5oqruEcwZNurWjhnCNwAqSksXGMUVnWGvV5oOG9TkTIkyp8dVraKxSIOvYgzvdsohFpXUoKHPsakApCjK0GbcwmUj+AxqS6ANG543qLECK53oyruTdPKjhu81sbNINhEqWgO7TxffVILbdikNdZmuBOwL8HK+AMU4WOVeUZVF+A0f1XB6m/z1EiRQSKgEtTCrmPgubIHcxfBHDrs69SmaWQ5AGlYcL6vXkDV/lnrYPV9y7AH5yW/SlBL8Jt/8Ruy5SEYQZNVCNeMqxs4ACm44Om/cPRX0RhOg0JA3AQ7fAKs/3WI+hFiQRr042gBBU1TPT67Cs98gGtQOLzvoWTrr1xAJUSFKZ8AN93nkCd12Xa+pn8QFmM8BI9d9aoOXVVgA+xx62vu/Koq55AOVaHNJUAXByL64wI4opXA9WaI652qqxdYAEl3+zO/W6YsAboAkch16ipE89GZ0KNY8p5GNDQJ6Hdia8YB2AYKESGFNDxcAA6VNhYofyKfzxmPoxna9Gyh9VD0jqzLe6p01RzdhiwAbAJtQhLdwaisossLx36WQ4ygLVnqVaYWFwId2BLYdPObVVCl+wYde5oAW1Bgqg1aUHAe85jfAOm7voa/1xGsO10OAXke1qVMvVLbpXQxASYLq45wBdlCdYA5iM8Dwtylg7Y4Fdc/koGcCx/bQSJDuhOMpgyAU3Haha0/1fAKLwm33e0Y96SNFwBErtz4alXXhaZC4ysvQMr5g6ZTAU5LQF3w+RxP8u7ycp7NVuqVUHO0DW5ziE0YjsxctokFSEPVAm7Y+lN9EcHhCwAipwtKB223Z/y6YwS47ZDp3KLTHU3BD7nGKDSi2qQBsGFXurppA1BOddPuhvnK4XYtrDtU6DZUMM3Xhv3i4MncpNeHQw1vtzjvsQD2eNuxezAFsGm1gonxbyFTaFnqi9go6K0m4zTNEHvgNaS4Csoe00oNKwZA0Sky1fzIEdXqUMuwW6nPlgrtYAJoOABDA75NAfCCc0emcw8AGtNNkpQx1ZEMgAzlsuU4hte0Qc+iOlyPnf4/+9f4Ai2BD09GnoEQq0S7EtqIdgwtM+roizqeHkBqRZ+dqNA6BDbkScsZQcanzLPBdrW38LqDGnSp9lx1+QQmQJuiRiU8FGzSL6kaffgDrUOP82lbDnftOkejNvml7wIIHFT6DADqXjptSHv/g/5rE6BG2w0VO26uKizp5e1uBYHNgLLlJkDP7j2pWogR6LW8AFgBuw1hD5kbkbk8MO1y7HLAqzrAhhsgyJTUKYCxPu4fWo/h/ncW7Jy2x0xEoV1a6qGmp/tZABXKccOdxm14jSa05bT/JLYpQePR9rkNYJrgmvVsitRGoHP3u9ebJW3oSLP0b7v/2o7Ini+ofgeeV+i1VrR0wA1gJ7gJUc3YHAeS1sPb2G8JfJYZyBR9JNXbkFaGM8+f2wB5GNsOKcw8Y6He720d9shfB7r4rlZgNBi7DV1BcAsqerxxUwM8sqDCiJ0TcYL6NIyN8B+XmSc8Rp/0585MFT4kcSsINCT0YIpahvPr2LBp0KOR/iVnDlwfy7pwwLY917zQhT63ps69LUgdt8kfZEWNUJ7uQziW0yeEUh+E9I8wAZ3+kg7M+daXnplLPcNQU/GwMfcCdAx9tx392RlaSmquYVCxXNk94olchYTHNV4LIi6hz4Puyd06nHe0EqcXmWOnTRCcijt1OQPYobdMbj4bNjsXeTfiZlFspzwYIJLCI+YImMfRyOz8ab0f9IJd+rynBAohnhMte/wKIKUgBECy2AcLpgxwv7aLLhNaiH1PH8Ixmeh6jjzMfOYmOz5TS5wUE+8d2lGg7+NRouz1hz/+Jvjs1Ue+/k5cFA7gnRYILgCOTHc5vox3/OFL2w5t2SK85LdDFqDGxKT68wvRyak9KrawsoCYX6QbnPHKzqpFOpIPBOAOJGR+2Tcx4JK0NbupIlTKlcudpkJMcyPY/9ZlGqC/HdmFA0xZZ1AxClFkGUPW9EhU1BlZNrc1VFVM0A4jh2ZAjoqaWAgBoOJZl2jd4NHL1OK9roTWuXT53h2NBHoBzyd70Cr4lz8RvgvFAHD7sEEwD62DGhjVhyMij2witbqAMz8TXAdeUtL9+XNuN2IANgIMQTdkfmtiJhpZ/cncoKoNrby5W9J49JyFLiIxI6NQgD2vJ0cTdODKf0iqWY2Ynh+25aNGrFID4MC11DK/1T/Ql/CEqE9PTgUD9D4F9STskU92eO+J1N5B18yQoxYHwDCuqpab6x7ppH942JuQycbLWU4TWQODrQivATIAp3wjZFdC7hNMmbnFImkEdp5b5elvdS0VadVyd9zaPT//1Jo3OgXRhYN4NOQZAQbggOeO0+/RmriFT7drWb0hpLIbdRwgfxrajUDVSlyAjuaMb8ZiZH2Jr5DyhnDNEAPgmhrnIyA1N/tEte55uUApN/yDqz/Af3yz4GKicU2IFyAfNBpSDAgVmrlOJ9esInpxCCp9gfubr6z2j/GbRxxqL7PaDrV4DpUXIM1LF/tQsMudUA7uBol49NGr/208Gk8cwxc2BSsu6vxfAYANrisn+okmnCSiWOJPLvVPBvqvscGffksRhN7OtaPsgqdlavngXtcU6xq/efr65++Pj3e3x/uJWNSU2D1vDY0oQJk3meYFqASMY2GCun/FLVWj8XgsQSTm/IQlcSvUx/gAOV5g5wXwpthe9AU4dmnLk8Tdwatfz013egH6TDgl/oEOhKlPxC/qFRDeQOAFYLML4gDdPxPh+seeXt3LEC+m8gJMmMl5cYD511g4QHRf3FB7xJWd9AM48yaoxAWJAQx4S+HEPsAbybwA7dcDqI3/E2hCcVwDr/wAGnEmFrwAIc5oIEAT9mkrFI8n4gM8AHsN6cGr7ej8XTiAT0gvJNofd3YVxGOx/ac/yTD87+1NPEZXQIi7GwDAW7GxSgBcBQ+GJxFL7N9i3XunUK/0r3RfwqiG+ODdl1cP9TieEwDwpslfImgI9/u4m34n2veLZKaKjJ3ZbYC777gtYa53f/Enb4UAeL7ESgEU1Pmv7r197hvB07U1Ibk1Bfh6cvIn/PF6/fnzm6tsQuQbarMMPTt2/WBnBvZgOPryZdRZZv8N1xlaoRUyv1KgZo+cTFQFcAS55L453MfYqJgZB5YFUKgpwCR8sP6zxmZNXg7A8+ZWOBKbX6HqmUrGFv3ny8SlypkaZHyhpQGoGsiAvTYszVnQ+2LhJTkYb/T1zpwJQE3f7Dgz0plXu3C0cPxpJh54vTttf8UuJgpAbLYjRFQBgMPzZfeKaU4yJuMApFYBoHFS3V6A+hIhpSFobGf08k5WfiU1oHEWGq0yqDcEj5e2GQI7r7XzaifaBcCGZOy0ytJ9QLXTYT2wJ5S5a1DWAbC1/ICDnUajCvowPLIGgv5S8002ADs76gVYxYCDLghBqg0NrQlT4kDme+FzxiIAnFyxFyC7ggGH7LebTvXtc6hJdk6ekg12y+uvaEfhAKux16g8Hg+NFLcyA1iUV7MDnzct4QXgrVh7hajOVlqkrWwLPm/NDZvg8K7UkEjEAJi14/II+iQAcPX6qcu1C/rE7kRiAJaMKdcqaCEAsHRAsEYRAugHJbrfWIQAlndH1ydowc7uMgDLu6PrE970NAOwAm9ubSIEsBK/d00iBLCa6Hs9glrtcIDUapyhtYgQgMzOkCCAvM6QGIDEzpAYwNLz0+sTMYAlMsXrFjEAiZ0hMYBllnusWdB7EYCKxAAjEYDlljytVVx70X0Bllp0tl4RA1hJLmU9Yu5NDgHYkdeb463/ZgFWkopYj6Axu1yFt4tJWneUt4+GByCtO6rOxQB89qC8vZgnJIQBHEjrT6MZe9IVB0Bef5p3Rg0H4Nq7G1ca4a2e5gAst2RoncJbssUBWH7ByrpEHQKzIdm7nzibTp9KO72rlslysA+TWp4LUDw0bw6QF6ADxw+3d1jF65oXIEMOP/l2cvz9Zv/re2kBchCNxRKxfbK/okID5CcAtzf4n+LxeOJW2qAYAwz01ZuxxM0jXO3YABWAp6i1wDYmMUDJBIjqO3L0hUkEoAd3A2dtbexEXoAqtbg5NvhB1oYpZBnDCb1oW2IApQA31CaXAVkUqUS24Na16FziJqQo8J1aSR7fhx4GgEf3ovnYvbRmVEHuXTqJe0gpW+418/jXb/ICaPDgUnYANaX/w7NrIfG3vABo98kGiO8n4nEM0HtMxBN0JSSYs2HkEdS6tcxl/ARuByeQxU3o+/4d1bljgyX2Sa1b0Oir017IGv9D3InJ+WPHNlf0GF6/xWLtgubwOLAQElFyiCseB6Z3Cav8yfDW/13akJLElG04icetLrxnDGT/mEyJwTeyLPBgFcvb1iMkJMN+z3Fcd9ruyX4Ihcwlkv4cTwxu4Zn4R/LOCxnnkySx43z/fX//Xl/eSXyhCTzs3zx8g0vDyZZ3Zs7aRZOqfyFxS9/2Ruvkf3vm5oLkKtbYrkmsw0vJ1W3pJB3QJJ2DFjLyzk7zdtHwptelzQ/wzpZgAYryZmhIQODdhMJLMUmbI+NtQuEk+Y4kBmD3cHDSrMtvQlmfIGYLBAvQk9eb5i3A5yw1GMvbiTnr1zmHhMnrTfMWH7MA/0qboFF4q+Z+qRVbvFQ3B0BeZ5SXaOUs+pM2z63w8pScZZfy+nK8NB8DILMvx0vzcQ7Kk7gCOGk+BmAFW/nWKGyaj3PSn8S+nAjAtrxr/hTeqaPsDg6JJ9f1qD4ZAiDzHhre4R7sWYvS5umJqJ1QgGd5Z0YV3pGX7GGR8s6MKkIAK9n4uzYRAZDZGRUASEo8M6qIAEi86JJIOEBe6nBAYBxYxZ76NUr4SJxdxTE665NwX0jueEbAG2UvlJNKwgOaosR7QRWRkFLuiFIgqN+QOqLkrF//1QBG3i0QvxpA6Nyo5ADs2R6/GkBogkNyAMQcE8aOA1Kb0fAspdwDmUCiW25fSGCpgdzeKOtNMwCSpwfYTTRsSCnvYhvuTjh2VkLmmJhzvM2vNa3COT6enZmTeWKLc2IqA3DdlRcAW1HmKicG4Ezi2Wkc0jN38rIJDonzA7zT49kjqnblzZFpIse0yZylVAWOrJXaGRI5+VvmoVhtcO7V/pWW2yDXBfW+APKu2EK82zk5p9vImijG0QznVsZfaOErtwtwALKyHjRnXfYdBiCvPxp6R7cpp3Juw1I7wLtQkgNQX/r8+LUIGnOu0eECSDoWq/z7hTkAcg5l9Jn0YQBSLv/WRrw7EfkAUh45WuDaID6AjIZU3eRdiegH0GtJZ4c0v3vWuQDy5VpxF/a5H5sLEPlrU7JurC34l7z7AQRdE/0WojY5V+gEAcjWjbX37NFOwQB9qdwJXAHcK94DAOQ6Olhrce8XDwKI9C/l6QVqzrcH+AMkYSgNATrnBPNhANgQvbXelqBNvhsXAhB5N5ajH6tV3mSEAEBaklyNduFrQoMBIj0pGpHWZXMCggCRd6O3b0TYArFXeIkCZKDx5paoAOwhr8IAkdqbdwP1nBvJiwJEDt847Y1a3pXGLwSITKDwhgTaKGgEEAKInL4hgTYONkBCAJHpmxGgkXOp4hIAkfYb9QO1BQ9wyZtNfCFATb/a7aerXziHQWIfONfJvhBgAvffoPGzRzSUg7+j8Wh88E+AJy0CkL2E74nYPYxWcyedoKjYfzBOA4tHH0MIggEq8EhOYUwcw2Xz5zUjVFjgYrPOAnvkJZYEASbWKYyxwSN0l7veWVhUbQh/U4dXRn8EDgYBAMlnuLHKIR47gfPcz+gJqLQwL4u3Pj0A/4g4CCB1CQP6/Lz9RxgX1t2OkDKDb3TxE4IbYJdIhAMk4Z+o61xD/YjSrrJOBKRuAjz8L+qRxG2AMfUFeP7hfU80Fj0B2FTW1RWQ2gA4vITjhPfDceeycmGAQ1f7sREGt7gWCmvozipSuqDHLj33+a1Ei/ixfxX4AGToo1Vpgv/dAMC4uaq7Pi31tebYPsd4jyaIP8T0KvDtBT4AvW9MPZL3xB+w+u3tUzhqrOy+Uqx9oXEEU8faVygztA9PMXKIq68h8pvcJUfD4pob0PonvgP0dAc3cwjQKiva0uOzirUvt3DTz9Bfr8N3yxAlnogOWBN+fsYPIG9oDncJuvi/QtuJj4o9zDCsLsGgqkgrNRa4UJjcRc85hjYG9zEC4BeZ8QF2IKpbL6oC4oMfXq9kg5z0Oe8UNPRSChUrj0pl3O4P+tzMyyk4nQD/Z+zphU0ohVWP78ODM6IkbuC/nELI7rVJpx42FQ0JYai67tVOF7cbOKtk2Fca8vnRNiLkcEu/DFlQH0g8Usch40Gs7feKdGXyFzlyflZuVlXMgVRLbJUNtRHSlFKnMcetBq56tcBYJQ/fzNJL3P/+v1t/d8gH4PBvbC8dS5o4AfZiXVpSxb3eNTly8rI1nm0OO7lms1SqVguFQrVaKjVznXJjNm7tkr941z6shYbqZNWPSYBbwlf//IZ/guPh3j4OOR6988kyeySZ3aocTk6vgCO/T8/69VrRt80wkjZceXIIcFBI4DcSbwFY5/OSwM4nx+kvqXwmmzZkJ5PnrLQKl8xneBpEB09wGUTt6wul9mBfHwTjJ3AVNru0JtkG+1xUXwmIB85wOJAgpyBzl7n8HCnWiiG1FxSRTbCZBpi8UfELSmBIuVOp1/yGcFnk/wEpZdYq3/YtRQAAAABJRU5ErkJggg==;" vertex="1" parent="1">
          <mxGeometry x="150" y="510" width="29.31" height="40" as="geometry" />
        </mxCell>
        <mxCell id="8nDSTVszZVtQRW60rJsY-75" value="" style="shape=image;verticalLabelPosition=bottom;labelBackgroundColor=default;verticalAlign=top;aspect=fixed;imageAspect=0;image=data:image/png,iVBORw0KGgoAAAANSUhEUgAAAMAAAAEGCAMAAAAExGooAAABF1BMVEVp1+L///8AAAD20qJr2+Zt3+pt4Ov92Kf816b/26n8/Pz29vba2trp6enk5ORXsrvw8PBlz9rJycnR0dFfw81LmqKsrKxiydNBho3Hx8eVlZW4uLjl5eWcnJxFjpVauMEbRkpdWlpQpKwAJik/gYilpaV7e3vOsIiGhYUQAADmxJePjo4AEhUfFhVJlZ0lVFgwY2hubGtNSUiqkXCLdltXU1NlYmIAGBs4dnwkSk41bXMTLjAHDxAzLi0+Pj4hISHGqYJ7aVFUSDdyYUuahGYyKR2SfGAkHRwZOT04NzYNIiQkGxkALjIVFRUjOT4vTlMdJChFOjFkVkIaAwYlFBEYGh9MPy81JxocFAQuJCO4nXkVEAj/5rGRaAD7AAAWD0lEQVR4nNWdd2PbNtPAqRNB7WUt27KmZVmWHS0vRR7xrpwmfdL0fdI2eb7/53gBTpAASdiSYuT+ahWTvB/G4Q6HoUTWIfn0Rq3en7Sn0+lp++xs0usf1vcqtY10JrnqTykrfVsqXdueTMGQ89ZojGU0GrVau0dgyW+nvb2t7Mo+uSqAZLHSMzTfHc0anWZV0TREiaZpSqGU6wy744X+Z+8m9Y1VVMcqANKVyTus0uWoW24WENZbxaJwhPxOYNRSZ3N8jh+56m+l3hggXT8lpT4fNhVdc57eXBKkKc3GCD97XV+qPS0DkKxNsAKtzZyi+RR5GAZCzQZuUf/WMz8fIFnDRX80y6nCxe5DoRXK7wGmWz8XYOMM4KJR0tBSyjsMjV2AvZ8GkKrjHrtZ1ZYreg9DE/eH+k8ByPQARrlVam8iVMevqYWXAmRw25kVtBVrbyAgjHDw0r7wMoAUNjubykoaPhdBKy2g7R4Zshu1WtDA/SKAbYCugtakvYlQBqhZ38vUry0HZLrnM+K9AKAIMC6sSH19RNbFW5tIeQ8T/Xsb2DX5OC/nms3ccH4JMOEOFn4AyXzeg9yDj01tNcprSm44G7UWi9ZoNmyqHghtCB/ykfQzbq3E0umCtOYcoC8IYLgHWJ77dpdKH0CXKS3Vz+kJUl8rbRJ37hr72P3e2TMZy8vuboVKANjUld3Vgwpj+MxWAgtQ+YDfOZp3u7MR8bcmaf1HOCq5Wg9uAppSKjVLJey+iWOoahkPWb0apUimhg3bvEq/XVUW8J61dFoOoBgGUCMjbBWPsLoPXOjg4eU0i5vPiNYRD52d2cL28D/Ny1Uhw6qiIS4RRodIcu8A5oqruEcwZNurWjhnCNwAqSksXGMUVnWGvV5oOG9TkTIkyp8dVraKxSIOvYgzvdsohFpXUoKHPsakApCjK0GbcwmUj+AxqS6ANG543qLECK53oyruTdPKjhu81sbNINhEqWgO7TxffVILbdikNdZmuBOwL8HK+AMU4WOVeUZVF+A0f1XB6m/z1EiRQSKgEtTCrmPgubIHcxfBHDrs69SmaWQ5AGlYcL6vXkDV/lnrYPV9y7AH5yW/SlBL8Jt/8Ruy5SEYQZNVCNeMqxs4ACm44Om/cPRX0RhOg0JA3AQ7fAKs/3WI+hFiQRr042gBBU1TPT67Cs98gGtQOLzvoWTrr1xAJUSFKZ8AN93nkCd12Xa+pn8QFmM8BI9d9aoOXVVgA+xx62vu/Koq55AOVaHNJUAXByL64wI4opXA9WaI652qqxdYAEl3+zO/W6YsAboAkch16ipE89GZ0KNY8p5GNDQJ6Hdia8YB2AYKESGFNDxcAA6VNhYofyKfzxmPoxna9Gyh9VD0jqzLe6p01RzdhiwAbAJtQhLdwaisossLx36WQ4ygLVnqVaYWFwId2BLYdPObVVCl+wYde5oAW1Bgqg1aUHAe85jfAOm7voa/1xGsO10OAXke1qVMvVLbpXQxASYLq45wBdlCdYA5iM8Dwtylg7Y4Fdc/koGcCx/bQSJDuhOMpgyAU3Haha0/1fAKLwm33e0Y96SNFwBErtz4alXXhaZC4ysvQMr5g6ZTAU5LQF3w+RxP8u7ycp7NVuqVUHO0DW5ziE0YjsxctokFSEPVAm7Y+lN9EcHhCwAipwtKB223Z/y6YwS47ZDp3KLTHU3BD7nGKDSi2qQBsGFXurppA1BOddPuhvnK4XYtrDtU6DZUMM3Xhv3i4MncpNeHQw1vtzjvsQD2eNuxezAFsGm1gonxbyFTaFnqi9go6K0m4zTNEHvgNaS4Csoe00oNKwZA0Sky1fzIEdXqUMuwW6nPlgrtYAJoOABDA75NAfCCc0emcw8AGtNNkpQx1ZEMgAzlsuU4hte0Qc+iOlyPnf4/+9f4Ai2BD09GnoEQq0S7EtqIdgwtM+roizqeHkBqRZ+dqNA6BDbkScsZQcanzLPBdrW38LqDGnSp9lx1+QQmQJuiRiU8FGzSL6kaffgDrUOP82lbDnftOkejNvml7wIIHFT6DADqXjptSHv/g/5rE6BG2w0VO26uKizp5e1uBYHNgLLlJkDP7j2pWogR6LW8AFgBuw1hD5kbkbk8MO1y7HLAqzrAhhsgyJTUKYCxPu4fWo/h/ncW7Jy2x0xEoV1a6qGmp/tZABXKccOdxm14jSa05bT/JLYpQePR9rkNYJrgmvVsitRGoHP3u9ebJW3oSLP0b7v/2o7Ini+ofgeeV+i1VrR0wA1gJ7gJUc3YHAeS1sPb2G8JfJYZyBR9JNXbkFaGM8+f2wB5GNsOKcw8Y6He720d9shfB7r4rlZgNBi7DV1BcAsqerxxUwM8sqDCiJ0TcYL6NIyN8B+XmSc8Rp/0585MFT4kcSsINCT0YIpahvPr2LBp0KOR/iVnDlwfy7pwwLY917zQhT63ps69LUgdt8kfZEWNUJ7uQziW0yeEUh+E9I8wAZ3+kg7M+daXnplLPcNQU/GwMfcCdAx9tx392RlaSmquYVCxXNk94olchYTHNV4LIi6hz4Puyd06nHe0EqcXmWOnTRCcijt1OQPYobdMbj4bNjsXeTfiZlFspzwYIJLCI+YImMfRyOz8ab0f9IJd+rynBAohnhMte/wKIKUgBECy2AcLpgxwv7aLLhNaiH1PH8Ixmeh6jjzMfOYmOz5TS5wUE+8d2lGg7+NRouz1hz/+Jvjs1Ue+/k5cFA7gnRYILgCOTHc5vox3/OFL2w5t2SK85LdDFqDGxKT68wvRyak9KrawsoCYX6QbnPHKzqpFOpIPBOAOJGR+2Tcx4JK0NbupIlTKlcudpkJMcyPY/9ZlGqC/HdmFA0xZZ1AxClFkGUPW9EhU1BlZNrc1VFVM0A4jh2ZAjoqaWAgBoOJZl2jd4NHL1OK9roTWuXT53h2NBHoBzyd70Cr4lz8RvgvFAHD7sEEwD62DGhjVhyMij2witbqAMz8TXAdeUtL9+XNuN2IANgIMQTdkfmtiJhpZ/cncoKoNrby5W9J49JyFLiIxI6NQgD2vJ0cTdODKf0iqWY2Ynh+25aNGrFID4MC11DK/1T/Ql/CEqE9PTgUD9D4F9STskU92eO+J1N5B18yQoxYHwDCuqpab6x7ppH942JuQycbLWU4TWQODrQivATIAp3wjZFdC7hNMmbnFImkEdp5b5elvdS0VadVyd9zaPT//1Jo3OgXRhYN4NOQZAQbggOeO0+/RmriFT7drWb0hpLIbdRwgfxrajUDVSlyAjuaMb8ZiZH2Jr5DyhnDNEAPgmhrnIyA1N/tEte55uUApN/yDqz/Af3yz4GKicU2IFyAfNBpSDAgVmrlOJ9esInpxCCp9gfubr6z2j/GbRxxqL7PaDrV4DpUXIM1LF/tQsMudUA7uBol49NGr/208Gk8cwxc2BSsu6vxfAYANrisn+okmnCSiWOJPLvVPBvqvscGffksRhN7OtaPsgqdlavngXtcU6xq/efr65++Pj3e3x/uJWNSU2D1vDY0oQJk3meYFqASMY2GCun/FLVWj8XgsQSTm/IQlcSvUx/gAOV5g5wXwpthe9AU4dmnLk8Tdwatfz013egH6TDgl/oEOhKlPxC/qFRDeQOAFYLML4gDdPxPh+seeXt3LEC+m8gJMmMl5cYD511g4QHRf3FB7xJWd9AM48yaoxAWJAQx4S+HEPsAbybwA7dcDqI3/E2hCcVwDr/wAGnEmFrwAIc5oIEAT9mkrFI8n4gM8AHsN6cGr7ej8XTiAT0gvJNofd3YVxGOx/ac/yTD87+1NPEZXQIi7GwDAW7GxSgBcBQ+GJxFL7N9i3XunUK/0r3RfwqiG+ODdl1cP9TieEwDwpslfImgI9/u4m34n2veLZKaKjJ3ZbYC777gtYa53f/Enb4UAeL7ESgEU1Pmv7r197hvB07U1Ibk1Bfh6cvIn/PF6/fnzm6tsQuQbarMMPTt2/WBnBvZgOPryZdRZZv8N1xlaoRUyv1KgZo+cTFQFcAS55L453MfYqJgZB5YFUKgpwCR8sP6zxmZNXg7A8+ZWOBKbX6HqmUrGFv3ny8SlypkaZHyhpQGoGsiAvTYszVnQ+2LhJTkYb/T1zpwJQE3f7Dgz0plXu3C0cPxpJh54vTttf8UuJgpAbLYjRFQBgMPzZfeKaU4yJuMApFYBoHFS3V6A+hIhpSFobGf08k5WfiU1oHEWGq0yqDcEj5e2GQI7r7XzaifaBcCGZOy0ytJ9QLXTYT2wJ5S5a1DWAbC1/ICDnUajCvowPLIGgv5S8002ADs76gVYxYCDLghBqg0NrQlT4kDme+FzxiIAnFyxFyC7ggGH7LebTvXtc6hJdk6ekg12y+uvaEfhAKux16g8Hg+NFLcyA1iUV7MDnzct4QXgrVh7hajOVlqkrWwLPm/NDZvg8K7UkEjEAJi14/II+iQAcPX6qcu1C/rE7kRiAJaMKdcqaCEAsHRAsEYRAugHJbrfWIQAlndH1ydowc7uMgDLu6PrE970NAOwAm9ubSIEsBK/d00iBLCa6Hs9glrtcIDUapyhtYgQgMzOkCCAvM6QGIDEzpAYwNLz0+sTMYAlMsXrFjEAiZ0hMYBllnusWdB7EYCKxAAjEYDlljytVVx70X0Bllp0tl4RA1hJLmU9Yu5NDgHYkdeb463/ZgFWkopYj6Axu1yFt4tJWneUt4+GByCtO6rOxQB89qC8vZgnJIQBHEjrT6MZe9IVB0Bef5p3Rg0H4Nq7G1ca4a2e5gAst2RoncJbssUBWH7ByrpEHQKzIdm7nzibTp9KO72rlslysA+TWp4LUDw0bw6QF6ADxw+3d1jF65oXIEMOP/l2cvz9Zv/re2kBchCNxRKxfbK/okID5CcAtzf4n+LxeOJW2qAYAwz01ZuxxM0jXO3YABWAp6i1wDYmMUDJBIjqO3L0hUkEoAd3A2dtbexEXoAqtbg5NvhB1oYpZBnDCb1oW2IApQA31CaXAVkUqUS24Na16FziJqQo8J1aSR7fhx4GgEf3ovnYvbRmVEHuXTqJe0gpW+418/jXb/ICaPDgUnYANaX/w7NrIfG3vABo98kGiO8n4nEM0HtMxBN0JSSYs2HkEdS6tcxl/ARuByeQxU3o+/4d1bljgyX2Sa1b0Oir017IGv9D3InJ+WPHNlf0GF6/xWLtgubwOLAQElFyiCseB6Z3Cav8yfDW/13akJLElG04icetLrxnDGT/mEyJwTeyLPBgFcvb1iMkJMN+z3Fcd9ruyX4Ihcwlkv4cTwxu4Zn4R/LOCxnnkySx43z/fX//Xl/eSXyhCTzs3zx8g0vDyZZ3Zs7aRZOqfyFxS9/2Ruvkf3vm5oLkKtbYrkmsw0vJ1W3pJB3QJJ2DFjLyzk7zdtHwptelzQ/wzpZgAYryZmhIQODdhMJLMUmbI+NtQuEk+Y4kBmD3cHDSrMtvQlmfIGYLBAvQk9eb5i3A5yw1GMvbiTnr1zmHhMnrTfMWH7MA/0qboFF4q+Z+qRVbvFQ3B0BeZ5SXaOUs+pM2z63w8pScZZfy+nK8NB8DILMvx0vzcQ7Kk7gCOGk+BmAFW/nWKGyaj3PSn8S+nAjAtrxr/hTeqaPsDg6JJ9f1qD4ZAiDzHhre4R7sWYvS5umJqJ1QgGd5Z0YV3pGX7GGR8s6MKkIAK9n4uzYRAZDZGRUASEo8M6qIAEi86JJIOEBe6nBAYBxYxZ76NUr4SJxdxTE665NwX0jueEbAG2UvlJNKwgOaosR7QRWRkFLuiFIgqN+QOqLkrF//1QBG3i0QvxpA6Nyo5ADs2R6/GkBogkNyAMQcE8aOA1Kb0fAspdwDmUCiW25fSGCpgdzeKOtNMwCSpwfYTTRsSCnvYhvuTjh2VkLmmJhzvM2vNa3COT6enZmTeWKLc2IqA3DdlRcAW1HmKicG4Ezi2Wkc0jN38rIJDonzA7zT49kjqnblzZFpIse0yZylVAWOrJXaGRI5+VvmoVhtcO7V/pWW2yDXBfW+APKu2EK82zk5p9vImijG0QznVsZfaOErtwtwALKyHjRnXfYdBiCvPxp6R7cpp3Juw1I7wLtQkgNQX/r8+LUIGnOu0eECSDoWq/z7hTkAcg5l9Jn0YQBSLv/WRrw7EfkAUh45WuDaID6AjIZU3eRdiegH0GtJZ4c0v3vWuQDy5VpxF/a5H5sLEPlrU7JurC34l7z7AQRdE/0WojY5V+gEAcjWjbX37NFOwQB9qdwJXAHcK94DAOQ6Olhrce8XDwKI9C/l6QVqzrcH+AMkYSgNATrnBPNhANgQvbXelqBNvhsXAhB5N5ajH6tV3mSEAEBaklyNduFrQoMBIj0pGpHWZXMCggCRd6O3b0TYArFXeIkCZKDx5paoAOwhr8IAkdqbdwP1nBvJiwJEDt847Y1a3pXGLwSITKDwhgTaKGgEEAKInL4hgTYONkBCAJHpmxGgkXOp4hIAkfYb9QO1BQ9wyZtNfCFATb/a7aerXziHQWIfONfJvhBgAvffoPGzRzSUg7+j8Wh88E+AJy0CkL2E74nYPYxWcyedoKjYfzBOA4tHH0MIggEq8EhOYUwcw2Xz5zUjVFjgYrPOAnvkJZYEASbWKYyxwSN0l7veWVhUbQh/U4dXRn8EDgYBAMlnuLHKIR47gfPcz+gJqLQwL4u3Pj0A/4g4CCB1CQP6/Lz9RxgX1t2OkDKDb3TxE4IbYJdIhAMk4Z+o61xD/YjSrrJOBKRuAjz8L+qRxG2AMfUFeP7hfU80Fj0B2FTW1RWQ2gA4vITjhPfDceeycmGAQ1f7sREGt7gWCmvozipSuqDHLj33+a1Ei/ixfxX4AGToo1Vpgv/dAMC4uaq7Pi31tebYPsd4jyaIP8T0KvDtBT4AvW9MPZL3xB+w+u3tUzhqrOy+Uqx9oXEEU8faVygztA9PMXKIq68h8pvcJUfD4pob0PonvgP0dAc3cwjQKiva0uOzirUvt3DTz9Bfr8N3yxAlnogOWBN+fsYPIG9oDncJuvi/QtuJj4o9zDCsLsGgqkgrNRa4UJjcRc85hjYG9zEC4BeZ8QF2IKpbL6oC4oMfXq9kg5z0Oe8UNPRSChUrj0pl3O4P+tzMyyk4nQD/Z+zphU0ohVWP78ODM6IkbuC/nELI7rVJpx42FQ0JYai67tVOF7cbOKtk2Fca8vnRNiLkcEu/DFlQH0g8Usch40Gs7feKdGXyFzlyflZuVlXMgVRLbJUNtRHSlFKnMcetBq56tcBYJQ/fzNJL3P/+v1t/d8gH4PBvbC8dS5o4AfZiXVpSxb3eNTly8rI1nm0OO7lms1SqVguFQrVaKjVznXJjNm7tkr941z6shYbqZNWPSYBbwlf//IZ/guPh3j4OOR6988kyeySZ3aocTk6vgCO/T8/69VrRt80wkjZceXIIcFBI4DcSbwFY5/OSwM4nx+kvqXwmmzZkJ5PnrLQKl8xneBpEB09wGUTt6wul9mBfHwTjJ3AVNru0JtkG+1xUXwmIB85wOJAgpyBzl7n8HCnWiiG1FxSRTbCZBpi8UfELSmBIuVOp1/yGcFnk/wEpZdYq3/YtRQAAAABJRU5ErkJggg==;" vertex="1" parent="1">
          <mxGeometry x="270" y="364" width="29.31" height="40" as="geometry" />
        </mxCell>
        <mxCell id="8nDSTVszZVtQRW60rJsY-77" value="" style="shape=image;verticalLabelPosition=bottom;labelBackgroundColor=default;verticalAlign=top;aspect=fixed;imageAspect=0;image=data:image/png,iVBORw0KGgoAAAANSUhEUgAAAMAAAAEGCAMAAAAExGooAAABF1BMVEVp1+L///8AAAD20qJr2+Zt3+pt4Ov92Kf816b/26n8/Pz29vba2trp6enk5ORXsrvw8PBlz9rJycnR0dFfw81LmqKsrKxiydNBho3Hx8eVlZW4uLjl5eWcnJxFjpVauMEbRkpdWlpQpKwAJik/gYilpaV7e3vOsIiGhYUQAADmxJePjo4AEhUfFhVJlZ0lVFgwY2hubGtNSUiqkXCLdltXU1NlYmIAGBs4dnwkSk41bXMTLjAHDxAzLi0+Pj4hISHGqYJ7aVFUSDdyYUuahGYyKR2SfGAkHRwZOT04NzYNIiQkGxkALjIVFRUjOT4vTlMdJChFOjFkVkIaAwYlFBEYGh9MPy81JxocFAQuJCO4nXkVEAj/5rGRaAD7AAAWD0lEQVR4nNWdd2PbNtPAqRNB7WUt27KmZVmWHS0vRR7xrpwmfdL0fdI2eb7/53gBTpAASdiSYuT+ahWTvB/G4Q6HoUTWIfn0Rq3en7Sn0+lp++xs0usf1vcqtY10JrnqTykrfVsqXdueTMGQ89ZojGU0GrVau0dgyW+nvb2t7Mo+uSqAZLHSMzTfHc0anWZV0TREiaZpSqGU6wy744X+Z+8m9Y1VVMcqANKVyTus0uWoW24WENZbxaJwhPxOYNRSZ3N8jh+56m+l3hggXT8lpT4fNhVdc57eXBKkKc3GCD97XV+qPS0DkKxNsAKtzZyi+RR5GAZCzQZuUf/WMz8fIFnDRX80y6nCxe5DoRXK7wGmWz8XYOMM4KJR0tBSyjsMjV2AvZ8GkKrjHrtZ1ZYreg9DE/eH+k8ByPQARrlVam8iVMevqYWXAmRw25kVtBVrbyAgjHDw0r7wMoAUNjubykoaPhdBKy2g7R4Zshu1WtDA/SKAbYCugtakvYlQBqhZ38vUry0HZLrnM+K9AKAIMC6sSH19RNbFW5tIeQ8T/Xsb2DX5OC/nms3ccH4JMOEOFn4AyXzeg9yDj01tNcprSm44G7UWi9ZoNmyqHghtCB/ykfQzbq3E0umCtOYcoC8IYLgHWJ77dpdKH0CXKS3Vz+kJUl8rbRJ37hr72P3e2TMZy8vuboVKANjUld3Vgwpj+MxWAgtQ+YDfOZp3u7MR8bcmaf1HOCq5Wg9uAppSKjVLJey+iWOoahkPWb0apUimhg3bvEq/XVUW8J61dFoOoBgGUCMjbBWPsLoPXOjg4eU0i5vPiNYRD52d2cL28D/Ny1Uhw6qiIS4RRodIcu8A5oqruEcwZNurWjhnCNwAqSksXGMUVnWGvV5oOG9TkTIkyp8dVraKxSIOvYgzvdsohFpXUoKHPsakApCjK0GbcwmUj+AxqS6ANG543qLECK53oyruTdPKjhu81sbNINhEqWgO7TxffVILbdikNdZmuBOwL8HK+AMU4WOVeUZVF+A0f1XB6m/z1EiRQSKgEtTCrmPgubIHcxfBHDrs69SmaWQ5AGlYcL6vXkDV/lnrYPV9y7AH5yW/SlBL8Jt/8Ruy5SEYQZNVCNeMqxs4ACm44Om/cPRX0RhOg0JA3AQ7fAKs/3WI+hFiQRr042gBBU1TPT67Cs98gGtQOLzvoWTrr1xAJUSFKZ8AN93nkCd12Xa+pn8QFmM8BI9d9aoOXVVgA+xx62vu/Koq55AOVaHNJUAXByL64wI4opXA9WaI652qqxdYAEl3+zO/W6YsAboAkch16ipE89GZ0KNY8p5GNDQJ6Hdia8YB2AYKESGFNDxcAA6VNhYofyKfzxmPoxna9Gyh9VD0jqzLe6p01RzdhiwAbAJtQhLdwaisossLx36WQ4ygLVnqVaYWFwId2BLYdPObVVCl+wYde5oAW1Bgqg1aUHAe85jfAOm7voa/1xGsO10OAXke1qVMvVLbpXQxASYLq45wBdlCdYA5iM8Dwtylg7Y4Fdc/koGcCx/bQSJDuhOMpgyAU3Haha0/1fAKLwm33e0Y96SNFwBErtz4alXXhaZC4ysvQMr5g6ZTAU5LQF3w+RxP8u7ycp7NVuqVUHO0DW5ziE0YjsxctokFSEPVAm7Y+lN9EcHhCwAipwtKB223Z/y6YwS47ZDp3KLTHU3BD7nGKDSi2qQBsGFXurppA1BOddPuhvnK4XYtrDtU6DZUMM3Xhv3i4MncpNeHQw1vtzjvsQD2eNuxezAFsGm1gonxbyFTaFnqi9go6K0m4zTNEHvgNaS4Csoe00oNKwZA0Sky1fzIEdXqUMuwW6nPlgrtYAJoOABDA75NAfCCc0emcw8AGtNNkpQx1ZEMgAzlsuU4hte0Qc+iOlyPnf4/+9f4Ai2BD09GnoEQq0S7EtqIdgwtM+roizqeHkBqRZ+dqNA6BDbkScsZQcanzLPBdrW38LqDGnSp9lx1+QQmQJuiRiU8FGzSL6kaffgDrUOP82lbDnftOkejNvml7wIIHFT6DADqXjptSHv/g/5rE6BG2w0VO26uKizp5e1uBYHNgLLlJkDP7j2pWogR6LW8AFgBuw1hD5kbkbk8MO1y7HLAqzrAhhsgyJTUKYCxPu4fWo/h/ncW7Jy2x0xEoV1a6qGmp/tZABXKccOdxm14jSa05bT/JLYpQePR9rkNYJrgmvVsitRGoHP3u9ebJW3oSLP0b7v/2o7Ini+ofgeeV+i1VrR0wA1gJ7gJUc3YHAeS1sPb2G8JfJYZyBR9JNXbkFaGM8+f2wB5GNsOKcw8Y6He720d9shfB7r4rlZgNBi7DV1BcAsqerxxUwM8sqDCiJ0TcYL6NIyN8B+XmSc8Rp/0585MFT4kcSsINCT0YIpahvPr2LBp0KOR/iVnDlwfy7pwwLY917zQhT63ps69LUgdt8kfZEWNUJ7uQziW0yeEUh+E9I8wAZ3+kg7M+daXnplLPcNQU/GwMfcCdAx9tx392RlaSmquYVCxXNk94olchYTHNV4LIi6hz4Puyd06nHe0EqcXmWOnTRCcijt1OQPYobdMbj4bNjsXeTfiZlFspzwYIJLCI+YImMfRyOz8ab0f9IJd+rynBAohnhMte/wKIKUgBECy2AcLpgxwv7aLLhNaiH1PH8Ixmeh6jjzMfOYmOz5TS5wUE+8d2lGg7+NRouz1hz/+Jvjs1Ue+/k5cFA7gnRYILgCOTHc5vox3/OFL2w5t2SK85LdDFqDGxKT68wvRyak9KrawsoCYX6QbnPHKzqpFOpIPBOAOJGR+2Tcx4JK0NbupIlTKlcudpkJMcyPY/9ZlGqC/HdmFA0xZZ1AxClFkGUPW9EhU1BlZNrc1VFVM0A4jh2ZAjoqaWAgBoOJZl2jd4NHL1OK9roTWuXT53h2NBHoBzyd70Cr4lz8RvgvFAHD7sEEwD62DGhjVhyMij2witbqAMz8TXAdeUtL9+XNuN2IANgIMQTdkfmtiJhpZ/cncoKoNrby5W9J49JyFLiIxI6NQgD2vJ0cTdODKf0iqWY2Ynh+25aNGrFID4MC11DK/1T/Ql/CEqE9PTgUD9D4F9STskU92eO+J1N5B18yQoxYHwDCuqpab6x7ppH942JuQycbLWU4TWQODrQivATIAp3wjZFdC7hNMmbnFImkEdp5b5elvdS0VadVyd9zaPT//1Jo3OgXRhYN4NOQZAQbggOeO0+/RmriFT7drWb0hpLIbdRwgfxrajUDVSlyAjuaMb8ZiZH2Jr5DyhnDNEAPgmhrnIyA1N/tEte55uUApN/yDqz/Af3yz4GKicU2IFyAfNBpSDAgVmrlOJ9esInpxCCp9gfubr6z2j/GbRxxqL7PaDrV4DpUXIM1LF/tQsMudUA7uBol49NGr/208Gk8cwxc2BSsu6vxfAYANrisn+okmnCSiWOJPLvVPBvqvscGffksRhN7OtaPsgqdlavngXtcU6xq/efr65++Pj3e3x/uJWNSU2D1vDY0oQJk3meYFqASMY2GCun/FLVWj8XgsQSTm/IQlcSvUx/gAOV5g5wXwpthe9AU4dmnLk8Tdwatfz013egH6TDgl/oEOhKlPxC/qFRDeQOAFYLML4gDdPxPh+seeXt3LEC+m8gJMmMl5cYD511g4QHRf3FB7xJWd9AM48yaoxAWJAQx4S+HEPsAbybwA7dcDqI3/E2hCcVwDr/wAGnEmFrwAIc5oIEAT9mkrFI8n4gM8AHsN6cGr7ej8XTiAT0gvJNofd3YVxGOx/ac/yTD87+1NPEZXQIi7GwDAW7GxSgBcBQ+GJxFL7N9i3XunUK/0r3RfwqiG+ODdl1cP9TieEwDwpslfImgI9/u4m34n2veLZKaKjJ3ZbYC777gtYa53f/Enb4UAeL7ESgEU1Pmv7r197hvB07U1Ibk1Bfh6cvIn/PF6/fnzm6tsQuQbarMMPTt2/WBnBvZgOPryZdRZZv8N1xlaoRUyv1KgZo+cTFQFcAS55L453MfYqJgZB5YFUKgpwCR8sP6zxmZNXg7A8+ZWOBKbX6HqmUrGFv3ny8SlypkaZHyhpQGoGsiAvTYszVnQ+2LhJTkYb/T1zpwJQE3f7Dgz0plXu3C0cPxpJh54vTttf8UuJgpAbLYjRFQBgMPzZfeKaU4yJuMApFYBoHFS3V6A+hIhpSFobGf08k5WfiU1oHEWGq0yqDcEj5e2GQI7r7XzaifaBcCGZOy0ytJ9QLXTYT2wJ5S5a1DWAbC1/ICDnUajCvowPLIGgv5S8002ADs76gVYxYCDLghBqg0NrQlT4kDme+FzxiIAnFyxFyC7ggGH7LebTvXtc6hJdk6ekg12y+uvaEfhAKux16g8Hg+NFLcyA1iUV7MDnzct4QXgrVh7hajOVlqkrWwLPm/NDZvg8K7UkEjEAJi14/II+iQAcPX6qcu1C/rE7kRiAJaMKdcqaCEAsHRAsEYRAugHJbrfWIQAlndH1ydowc7uMgDLu6PrE970NAOwAm9ubSIEsBK/d00iBLCa6Hs9glrtcIDUapyhtYgQgMzOkCCAvM6QGIDEzpAYwNLz0+sTMYAlMsXrFjEAiZ0hMYBllnusWdB7EYCKxAAjEYDlljytVVx70X0Bllp0tl4RA1hJLmU9Yu5NDgHYkdeb463/ZgFWkopYj6Axu1yFt4tJWneUt4+GByCtO6rOxQB89qC8vZgnJIQBHEjrT6MZe9IVB0Bef5p3Rg0H4Nq7G1ca4a2e5gAst2RoncJbssUBWH7ByrpEHQKzIdm7nzibTp9KO72rlslysA+TWp4LUDw0bw6QF6ADxw+3d1jF65oXIEMOP/l2cvz9Zv/re2kBchCNxRKxfbK/okID5CcAtzf4n+LxeOJW2qAYAwz01ZuxxM0jXO3YABWAp6i1wDYmMUDJBIjqO3L0hUkEoAd3A2dtbexEXoAqtbg5NvhB1oYpZBnDCb1oW2IApQA31CaXAVkUqUS24Na16FziJqQo8J1aSR7fhx4GgEf3ovnYvbRmVEHuXTqJe0gpW+418/jXb/ICaPDgUnYANaX/w7NrIfG3vABo98kGiO8n4nEM0HtMxBN0JSSYs2HkEdS6tcxl/ARuByeQxU3o+/4d1bljgyX2Sa1b0Oir017IGv9D3InJ+WPHNlf0GF6/xWLtgubwOLAQElFyiCseB6Z3Cav8yfDW/13akJLElG04icetLrxnDGT/mEyJwTeyLPBgFcvb1iMkJMN+z3Fcd9ruyX4Ihcwlkv4cTwxu4Zn4R/LOCxnnkySx43z/fX//Xl/eSXyhCTzs3zx8g0vDyZZ3Zs7aRZOqfyFxS9/2Ruvkf3vm5oLkKtbYrkmsw0vJ1W3pJB3QJJ2DFjLyzk7zdtHwptelzQ/wzpZgAYryZmhIQODdhMJLMUmbI+NtQuEk+Y4kBmD3cHDSrMtvQlmfIGYLBAvQk9eb5i3A5yw1GMvbiTnr1zmHhMnrTfMWH7MA/0qboFF4q+Z+qRVbvFQ3B0BeZ5SXaOUs+pM2z63w8pScZZfy+nK8NB8DILMvx0vzcQ7Kk7gCOGk+BmAFW/nWKGyaj3PSn8S+nAjAtrxr/hTeqaPsDg6JJ9f1qD4ZAiDzHhre4R7sWYvS5umJqJ1QgGd5Z0YV3pGX7GGR8s6MKkIAK9n4uzYRAZDZGRUASEo8M6qIAEi86JJIOEBe6nBAYBxYxZ76NUr4SJxdxTE665NwX0jueEbAG2UvlJNKwgOaosR7QRWRkFLuiFIgqN+QOqLkrF//1QBG3i0QvxpA6Nyo5ADs2R6/GkBogkNyAMQcE8aOA1Kb0fAspdwDmUCiW25fSGCpgdzeKOtNMwCSpwfYTTRsSCnvYhvuTjh2VkLmmJhzvM2vNa3COT6enZmTeWKLc2IqA3DdlRcAW1HmKicG4Ezi2Wkc0jN38rIJDonzA7zT49kjqnblzZFpIse0yZylVAWOrJXaGRI5+VvmoVhtcO7V/pWW2yDXBfW+APKu2EK82zk5p9vImijG0QznVsZfaOErtwtwALKyHjRnXfYdBiCvPxp6R7cpp3Juw1I7wLtQkgNQX/r8+LUIGnOu0eECSDoWq/z7hTkAcg5l9Jn0YQBSLv/WRrw7EfkAUh45WuDaID6AjIZU3eRdiegH0GtJZ4c0v3vWuQDy5VpxF/a5H5sLEPlrU7JurC34l7z7AQRdE/0WojY5V+gEAcjWjbX37NFOwQB9qdwJXAHcK94DAOQ6Olhrce8XDwKI9C/l6QVqzrcH+AMkYSgNATrnBPNhANgQvbXelqBNvhsXAhB5N5ajH6tV3mSEAEBaklyNduFrQoMBIj0pGpHWZXMCggCRd6O3b0TYArFXeIkCZKDx5paoAOwhr8IAkdqbdwP1nBvJiwJEDt847Y1a3pXGLwSITKDwhgTaKGgEEAKInL4hgTYONkBCAJHpmxGgkXOp4hIAkfYb9QO1BQ9wyZtNfCFATb/a7aerXziHQWIfONfJvhBgAvffoPGzRzSUg7+j8Wh88E+AJy0CkL2E74nYPYxWcyedoKjYfzBOA4tHH0MIggEq8EhOYUwcw2Xz5zUjVFjgYrPOAnvkJZYEASbWKYyxwSN0l7veWVhUbQh/U4dXRn8EDgYBAMlnuLHKIR47gfPcz+gJqLQwL4u3Pj0A/4g4CCB1CQP6/Lz9RxgX1t2OkDKDb3TxE4IbYJdIhAMk4Z+o61xD/YjSrrJOBKRuAjz8L+qRxG2AMfUFeP7hfU80Fj0B2FTW1RWQ2gA4vITjhPfDceeycmGAQ1f7sREGt7gWCmvozipSuqDHLj33+a1Ei/ixfxX4AGToo1Vpgv/dAMC4uaq7Pi31tebYPsd4jyaIP8T0KvDtBT4AvW9MPZL3xB+w+u3tUzhqrOy+Uqx9oXEEU8faVygztA9PMXKIq68h8pvcJUfD4pob0PonvgP0dAc3cwjQKiva0uOzirUvt3DTz9Bfr8N3yxAlnogOWBN+fsYPIG9oDncJuvi/QtuJj4o9zDCsLsGgqkgrNRa4UJjcRc85hjYG9zEC4BeZ8QF2IKpbL6oC4oMfXq9kg5z0Oe8UNPRSChUrj0pl3O4P+tzMyyk4nQD/Z+zphU0ohVWP78ODM6IkbuC/nELI7rVJpx42FQ0JYai67tVOF7cbOKtk2Fca8vnRNiLkcEu/DFlQH0g8Usch40Gs7feKdGXyFzlyflZuVlXMgVRLbJUNtRHSlFKnMcetBq56tcBYJQ/fzNJL3P/+v1t/d8gH4PBvbC8dS5o4AfZiXVpSxb3eNTly8rI1nm0OO7lms1SqVguFQrVaKjVznXJjNm7tkr941z6shYbqZNWPSYBbwlf//IZ/guPh3j4OOR6988kyeySZ3aocTk6vgCO/T8/69VrRt80wkjZceXIIcFBI4DcSbwFY5/OSwM4nx+kvqXwmmzZkJ5PnrLQKl8xneBpEB09wGUTt6wul9mBfHwTjJ3AVNru0JtkG+1xUXwmIB85wOJAgpyBzl7n8HCnWiiG1FxSRTbCZBpi8UfELSmBIuVOp1/yGcFnk/wEpZdYq3/YtRQAAAABJRU5ErkJggg==;" vertex="1" parent="1">
          <mxGeometry x="630" y="363" width="29.31" height="40" as="geometry" />
        </mxCell>
        <mxCell id="JFP16f0kiTrNc7SEcnO9-1" value="&lt;div style=&quot;text-align: left;&quot;&gt;20231102 Amazon Bedrock使っていくぞ&lt;/div&gt;&lt;div style=&quot;text-align: left;&quot;&gt;&lt;br&gt;&lt;/div&gt;&lt;div style=&quot;text-align: left;&quot;&gt;[*] 名前は知ってる&lt;/div&gt;&lt;div style=&quot;text-align: left;&quot;&gt;[ ] 使ったことがある&lt;/div&gt;&lt;div style=&quot;text-align: left;&quot;&gt;&lt;span style=&quot;background-color: initial;&quot;&gt;[ ] 用途、設計・構築のポイント、要件がわかってる&lt;/span&gt;&lt;/div&gt;&lt;div style=&quot;text-align: left;&quot;&gt;&lt;span style=&quot;background-color: initial;&quot;&gt;[ ] ベストプラクティスを実践した経験がある&lt;/span&gt;&lt;/div&gt;&lt;div style=&quot;text-align: left;&quot;&gt;&lt;span style=&quot;background-color: initial;&quot;&gt;[ ] いつでもすぐ実践できる&lt;/span&gt;&lt;/div&gt;" style="text;html=1;align=center;verticalAlign=middle;resizable=0;points=[];autosize=1;strokeColor=none;fillColor=none;" vertex="1" parent="1">
          <mxGeometry x="5.31" y="5" width="295" height="113" as="geometry" />
        </mxCell>
        <mxCell id="JFP16f0kiTrNc7SEcnO9-2" value="&lt;font style=&quot;font-size: 11px;&quot;&gt;&lt;span style=&quot;color: rgb(0, 0, 0); font-family: Menlo, Monaco, &amp;quot;Courier New&amp;quot;, monospace; font-style: normal; font-variant-ligatures: normal; font-variant-caps: normal; font-weight: 400; letter-spacing: normal; orphans: 2; text-align: left; text-indent: 0px; text-transform: none; widows: 2; word-spacing: 0px; -webkit-text-stroke-width: 0px; background-color: rgb(251, 251, 251); text-decoration-thickness: initial; text-decoration-style: initial; text-decoration-color: initial; float: none; display: inline !important;&quot;&gt;see: https://zenn.dev/myatti/articles/425c13426bc23f&lt;br&gt;see:&amp;nbsp;&lt;/span&gt;https://github.com/hashicorp/terraform-provider-aws/issues/33809&lt;br&gt;see:&amp;nbsp;https://dev.classmethod.jp/articles/inquiry-emails-automation-with-bedrock/&lt;br&gt;see: https://dev.classmethod.jp/articles/ses-email-receive-tokyo/&lt;br&gt;&lt;/font&gt;" style="text;whiteSpace=wrap;html=1;" vertex="1" parent="1">
          <mxGeometry x="14" y="129" width="409" height="73" as="geometry" />
        </mxCell>
      </root>
    </mxGraphModel>
  </diagram>
  <diagram id="T3APvgc3GklTuN-dWLFW" name="ページ2">
    <mxGraphModel dx="466" dy="1918" grid="1" gridSize="10" guides="1" tooltips="1" connect="1" arrows="1" fold="1" page="1" pageScale="1" pageWidth="827" pageHeight="1169" math="0" shadow="0">
      <root>
        <mxCell id="0" />
        <mxCell id="1" parent="0" />
        <mxCell id="w4gMR6AjTwp-XoRa3eux-1" value="&lt;div style=&quot;color: rgb(59, 59, 59); background-color: rgb(255, 255, 255); font-family: Menlo, Monaco, &amp;quot;Courier New&amp;quot;, monospace; font-weight: normal; font-size: 12px; line-height: 18px;&quot;&gt;&lt;div&gt;&lt;br&gt;&lt;br&gt;## 単一ステート&lt;br&gt;&lt;/div&gt;&lt;div&gt;&lt;br&gt;&lt;/div&gt;&lt;div&gt;definition:&lt;/div&gt;&lt;div&gt;&amp;nbsp; status:&lt;/div&gt;&lt;div&gt;&lt;span style=&quot;color: #3b3b3b;&quot;&gt;&lt;/span&gt;&lt;span style=&quot;color: #0451a5;&quot;&gt;&amp;nbsp; &amp;nbsp; -&lt;/span&gt;&lt;span style=&quot;color: #3b3b3b;&quot;&gt; name: Opened &lt;/span&gt;&lt;/div&gt;&lt;div&gt;&lt;span style=&quot;color: #3b3b3b;&quot;&gt;&amp;nbsp; &amp;nbsp; &amp;nbsp; value: opened&lt;/span&gt;&lt;/div&gt;&lt;div&gt;&lt;span style=&quot;color: #3b3b3b;&quot;&gt;&lt;/span&gt;&lt;span style=&quot;color: #0451a5;&quot;&gt;&amp;nbsp; &amp;nbsp; -&lt;/span&gt;&lt;span style=&quot;color: #3b3b3b;&quot;&gt; name: Closed&lt;/span&gt;&lt;/div&gt;&lt;div&gt;&lt;span style=&quot;color: #3b3b3b;&quot;&gt;&amp;nbsp; &amp;nbsp; &amp;nbsp; value: closed&lt;/span&gt;&lt;/div&gt;&lt;div&gt;&lt;span style=&quot;color: #3b3b3b;&quot;&gt;&amp;nbsp; actions:&lt;/span&gt;&lt;/div&gt;&lt;div&gt;&lt;span style=&quot;color: #3b3b3b;&quot;&gt;&lt;/span&gt;&lt;span style=&quot;color: #0451a5;&quot;&gt;&amp;nbsp; &amp;nbsp; -&lt;/span&gt;&lt;span style=&quot;color: #3b3b3b;&quot;&gt; name: open&lt;/span&gt;&lt;/div&gt;&lt;div&gt;&lt;span style=&quot;color: #3b3b3b;&quot;&gt;&amp;nbsp; &amp;nbsp; &amp;nbsp; currentState: closed&lt;/span&gt;&lt;/div&gt;&lt;div&gt;&amp;nbsp; &amp;nbsp; &amp;nbsp; allowed: true&lt;/div&gt;&lt;div&gt;&lt;span style=&quot;color: #3b3b3b;&quot;&gt;&amp;nbsp; &amp;nbsp; &amp;nbsp; next: opened&lt;/span&gt;&lt;/div&gt;&lt;div&gt;&lt;span style=&quot;color: #3b3b3b;&quot;&gt;&lt;/span&gt;&lt;span style=&quot;color: #0451a5;&quot;&gt;&amp;nbsp; &amp;nbsp; -&lt;/span&gt;&lt;span style=&quot;color: #3b3b3b;&quot;&gt; name: close&lt;/span&gt;&lt;/div&gt;&lt;div&gt;&lt;span style=&quot;color: #3b3b3b;&quot;&gt;&amp;nbsp; &amp;nbsp; &amp;nbsp; currentState: opened&lt;/span&gt;&lt;/div&gt;&lt;div&gt;&amp;nbsp; &amp;nbsp; &amp;nbsp; allowed: false&lt;br&gt;&lt;/div&gt;&lt;div style=&quot;border-color: var(--border-color);&quot;&gt;&lt;br&gt;&lt;/div&gt;&lt;div style=&quot;border-color: var(--border-color);&quot;&gt;## 複数ステート&lt;/div&gt;&lt;div style=&quot;border-color: var(--border-color);&quot;&gt;&lt;br&gt;&lt;/div&gt;&lt;div style=&quot;border-color: var(--border-color);&quot;&gt;&lt;div style=&quot;border-color: var(--border-color);&quot;&gt;status:&lt;/div&gt;&lt;div style=&quot;border-color: var(--border-color);&quot;&gt;&lt;div style=&quot;border-color: var(--border-color);&quot;&gt;&amp;nbsp; specin_status:&lt;/div&gt;&lt;div style=&quot;border-color: var(--border-color);&quot;&gt;&lt;div style=&quot;border-color: var(--border-color);&quot;&gt;&amp;nbsp; &amp;nbsp; -&amp;nbsp;name: Checking&lt;/div&gt;&lt;div style=&quot;border-color: var(--border-color);&quot;&gt;&lt;span style=&quot;border-color: var(--border-color);&quot;&gt;&amp;nbsp; &amp;nbsp; &amp;nbsp; value:&amp;nbsp;&lt;/span&gt;Checking&lt;/div&gt;&lt;div style=&quot;border-color: var(--border-color);&quot;&gt;&lt;span style=&quot;border-color: var(--border-color);&quot;&gt;&lt;/span&gt;&lt;span style=&quot;border-color: var(--border-color); color: rgb(4, 81, 165);&quot;&gt;&amp;nbsp; &amp;nbsp; -&lt;/span&gt;&lt;span style=&quot;border-color: var(--border-color);&quot;&gt;&amp;nbsp;name: Withhold&lt;/span&gt;&lt;/div&gt;&lt;div style=&quot;border-color: var(--border-color);&quot;&gt;&lt;span style=&quot;border-color: var(--border-color);&quot;&gt;&amp;nbsp; &amp;nbsp; &amp;nbsp; value: w&lt;/span&gt;ithhold&lt;/div&gt;&lt;/div&gt;&lt;div style=&quot;border-color: var(--border-color);&quot;&gt;&amp;nbsp; consul_request_status:&lt;/div&gt;&lt;div&gt;&lt;div style=&quot;border-color: var(--border-color);&quot;&gt;&amp;nbsp; &amp;nbsp; -&lt;span style=&quot;border-color: var(--border-color);&quot;&gt;&amp;nbsp;name: Unanswered&lt;/span&gt;&lt;/div&gt;&lt;div style=&quot;border-color: var(--border-color);&quot;&gt;&lt;span style=&quot;border-color: var(--border-color);&quot;&gt;&amp;nbsp; &amp;nbsp; &amp;nbsp; value:&amp;nbsp;&lt;/span&gt;unanswered&lt;/div&gt;&lt;div style=&quot;border-color: var(--border-color);&quot;&gt;&lt;span style=&quot;border-color: var(--border-color);&quot;&gt;&lt;/span&gt;&lt;span style=&quot;border-color: var(--border-color); color: rgb(4, 81, 165);&quot;&gt;&amp;nbsp; &amp;nbsp; -&lt;/span&gt;&lt;span style=&quot;border-color: var(--border-color);&quot;&gt;&amp;nbsp;name: Approved&lt;/span&gt;&lt;/div&gt;&lt;div style=&quot;border-color: var(--border-color);&quot;&gt;&lt;span style=&quot;border-color: var(--border-color);&quot;&gt;&amp;nbsp; &amp;nbsp; &amp;nbsp; value: approved&lt;/span&gt;&lt;/div&gt;&lt;/div&gt;&lt;div&gt;&amp;nbsp; project_status:&lt;br&gt;&lt;/div&gt;&lt;/div&gt;&lt;div style=&quot;border-color: var(--border-color);&quot;&gt;&lt;span style=&quot;border-color: var(--border-color); color: rgb(4, 81, 165);&quot;&gt;&amp;nbsp; &amp;nbsp; -&lt;/span&gt;&lt;span style=&quot;border-color: var(--border-color);&quot;&gt;&amp;nbsp;name: Opened&lt;/span&gt;&lt;/div&gt;&lt;div style=&quot;border-color: var(--border-color);&quot;&gt;&lt;span style=&quot;border-color: var(--border-color);&quot;&gt;&amp;nbsp; &amp;nbsp; &amp;nbsp; value: opened&lt;/span&gt;&lt;/div&gt;&lt;div style=&quot;border-color: var(--border-color);&quot;&gt;&lt;span style=&quot;border-color: var(--border-color);&quot;&gt;&lt;/span&gt;&lt;span style=&quot;border-color: var(--border-color); color: rgb(4, 81, 165);&quot;&gt;&amp;nbsp; &amp;nbsp; -&lt;/span&gt;&lt;span style=&quot;border-color: var(--border-color);&quot;&gt;&amp;nbsp;name: Closed&lt;/span&gt;&lt;/div&gt;&lt;div style=&quot;border-color: var(--border-color);&quot;&gt;&lt;span style=&quot;border-color: var(--border-color);&quot;&gt;&amp;nbsp; &amp;nbsp; &amp;nbsp; value: closed&lt;/span&gt;&lt;/div&gt;&lt;div&gt;&lt;span style=&quot;border-color: var(--border-color);&quot;&gt;&lt;div style=&quot;border-color: var(--border-color);&quot;&gt;actions:&lt;/div&gt;&lt;div style=&quot;border-color: var(--border-color);&quot;&gt;&lt;span style=&quot;border-color: var(--border-color);&quot;&gt;&lt;/span&gt;&lt;span style=&quot;border-color: var(--border-color); color: rgb(4, 81, 165);&quot;&gt;&amp;nbsp; -&lt;/span&gt;&lt;span style=&quot;border-color: var(--border-color);&quot;&gt;&amp;nbsp;name: open&lt;/span&gt;&lt;/div&gt;&lt;div style=&quot;border-color: var(--border-color);&quot;&gt;&lt;span style=&quot;border-color: var(--border-color); color: rgb(4, 81, 165);&quot;&gt;&amp;nbsp; -&lt;/span&gt;&lt;span style=&quot;border-color: var(--border-color);&quot;&gt;&amp;nbsp;name: close&lt;/span&gt;&lt;br&gt;&lt;/div&gt;&lt;div style=&quot;border-color: var(--border-color);&quot;&gt;&amp;nbsp; -&lt;span style=&quot;border-color: var(--border-color);&quot;&gt;&amp;nbsp;name: check&lt;/span&gt;&lt;br style=&quot;border-color: var(--border-color);&quot;&gt;&lt;/div&gt;&lt;div style=&quot;border-color: var(--border-color);&quot;&gt;transitions:&lt;/div&gt;&lt;div style=&quot;border-color: var(--border-color);&quot;&gt;&amp;nbsp; - state: checking&lt;/div&gt;&lt;div style=&quot;border-color: var(--border-color);&quot;&gt;&amp;nbsp; &amp;nbsp; action: check&lt;/div&gt;&lt;div style=&quot;border-color: var(--border-color);&quot;&gt;&amp;nbsp; &amp;nbsp; next: checked&lt;/div&gt;&lt;div style=&quot;border-color: var(--border-color);&quot;&gt;&lt;div style=&quot;border-color: var(--border-color);&quot;&gt;&amp;nbsp; &amp;nbsp; allowed: true&amp;nbsp;&amp;nbsp;&lt;/div&gt;&lt;div style=&quot;border-color: var(--border-color);&quot;&gt;&amp;nbsp; - state: checked&lt;/div&gt;&lt;div style=&quot;border-color: var(--border-color);&quot;&gt;&amp;nbsp; &amp;nbsp; action: withhold&lt;/div&gt;&lt;div style=&quot;border-color: var(--border-color);&quot;&gt;&lt;div style=&quot;border-color: var(--border-color);&quot;&gt;&amp;nbsp; &amp;nbsp; allowed: false&lt;/div&gt;&lt;/div&gt;&lt;div style=&quot;border-color: var(--border-color);&quot;&gt;&amp;nbsp; &amp;nbsp; next: null&lt;/div&gt;&lt;div style=&quot;border-color: var(--border-color);&quot;&gt;&lt;div style=&quot;border-color: var(--border-color);&quot;&gt;&amp;nbsp; - state: opened&lt;br&gt;&lt;/div&gt;&lt;/div&gt;&lt;div style=&quot;border-color: var(--border-color);&quot;&gt;&amp;nbsp; &amp;nbsp; action: close&lt;/div&gt;&lt;div style=&quot;border-color: var(--border-color);&quot;&gt;&amp;nbsp; &amp;nbsp; next: closed&lt;br&gt;&lt;/div&gt;&lt;div&gt;&lt;div style=&quot;border-color: var(--border-color);&quot;&gt;&amp;nbsp; &amp;nbsp; allowed: true&lt;/div&gt;&lt;/div&gt;&lt;div style=&quot;border-color: var(--border-color);&quot;&gt;&lt;div style=&quot;border-color: var(--border-color);&quot;&gt;&amp;nbsp; - state: closed&lt;/div&gt;&lt;div style=&quot;border-color: var(--border-color);&quot;&gt;&amp;nbsp; &amp;nbsp; action: open&lt;/div&gt;&lt;div style=&quot;border-color: var(--border-color);&quot;&gt;&amp;nbsp; &amp;nbsp; allowed: false&lt;/div&gt;&lt;div style=&quot;border-color: var(--border-color);&quot;&gt;&amp;nbsp; &amp;nbsp; next: null&lt;/div&gt;&lt;/div&gt;&lt;/div&gt;&lt;/span&gt;&lt;/div&gt;&lt;/div&gt;&lt;/div&gt;" style="text;whiteSpace=wrap;html=1;fillColor=default;" vertex="1" parent="1">
          <mxGeometry x="1150" y="-1060" width="326" height="1060" as="geometry" />
        </mxCell>
        <UserObject label="このサイトのアニメーションちょっと面白いな&#xa;https://low.dev/" link="https://low.dev/" id="CN7N2VGk3cFbTsD3iCTQ-1">
          <mxCell style="text;whiteSpace=wrap;" vertex="1" parent="1">
            <mxGeometry x="860" y="-1150" width="270" height="40" as="geometry" />
          </mxCell>
        </UserObject>
      </root>
    </mxGraphModel>
  </diagram>
</mxfile>
